<svg 
 xmlns="http://www.w3.org/2000/svg"
 xmlns:xlink="http://www.w3.org/1999/xlink"
 width="125px" height="40px">
<path fill-rule="evenodd"  fill="rgb(232, 232, 232)"
 d="M118.000,14.000 C114.134,14.000 111.000,10.866 111.000,7.000 C111.000,3.134 114.134,-0.000 118.000,-0.000 C121.866,-0.000 125.000,3.134 125.000,7.000 C125.000,10.866 121.866,14.000 118.000,14.000 ZM98.000,32.000 C94.134,32.000 91.000,28.866 91.000,25.000 C91.000,21.134 94.134,18.000 98.000,18.000 C101.866,18.000 105.000,21.134 105.000,25.000 C105.000,28.866 101.866,32.000 98.000,32.000 ZM63.000,40.000 C59.134,40.000 56.000,36.866 56.000,33.000 C56.000,29.134 59.134,26.000 63.000,26.000 C66.866,26.000 70.000,29.134 70.000,33.000 C70.000,36.866 66.866,40.000 63.000,40.000 ZM28.000,32.000 C24.134,32.000 21.000,28.866 21.000,25.000 C21.000,21.134 24.134,18.000 28.000,18.000 C31.866,18.000 35.000,21.134 35.000,25.000 C35.000,28.866 31.866,32.000 28.000,32.000 ZM7.000,14.000 C3.134,14.000 -0.000,10.866 -0.000,7.000 C-0.000,3.134 3.134,-0.000 7.000,-0.000 C10.866,-0.000 14.000,3.134 14.000,7.000 C14.000,10.866 10.866,14.000 7.000,14.000 Z"/>
</svg>