<svg 
 xmlns="http://www.w3.org/2000/svg"
 xmlns:xlink="http://www.w3.org/1999/xlink"
 width="125px" height="40px">
<path fill-rule="evenodd"  fill="rgb(232, 232, 232)"
 d="M118.000,40.000 C114.134,40.000 111.000,36.866 111.000,33.000 C111.000,29.134 114.134,26.000 118.000,26.000 C121.866,26.000 125.000,29.134 125.000,33.000 C125.000,36.866 121.866,40.000 118.000,40.000 ZM97.000,22.000 C93.134,22.000 90.000,18.866 90.000,15.000 C90.000,11.134 93.134,8.000 97.000,8.000 C100.866,8.000 104.000,11.134 104.000,15.000 C104.000,18.866 100.866,22.000 97.000,22.000 ZM62.000,14.000 C58.134,14.000 55.000,10.866 55.000,7.000 C55.000,3.134 58.134,-0.000 62.000,-0.000 C65.866,-0.000 69.000,3.134 69.000,7.000 C69.000,10.866 65.866,14.000 62.000,14.000 ZM27.000,22.000 C23.134,22.000 20.000,18.866 20.000,15.000 C20.000,11.134 23.134,8.000 27.000,8.000 C30.866,8.000 34.000,11.134 34.000,15.000 C34.000,18.866 30.866,22.000 27.000,22.000 ZM7.000,40.000 C3.134,40.000 -0.000,36.866 -0.000,33.000 C-0.000,29.134 3.134,26.000 7.000,26.000 C10.866,26.000 14.000,29.134 14.000,33.000 C14.000,36.866 10.866,40.000 7.000,40.000 Z"/>
</svg>