<?xml version="1.0" standalone="no"?>
<!DOCTYPE svg PUBLIC "-//W3C//DTD SVG 20010904//EN"
 "http://www.w3.org/TR/2001/REC-SVG-20010904/DTD/svg10.dtd">
<svg version="1.0" xmlns="http://www.w3.org/2000/svg"
 width="592.000000pt" height="592.000000pt" viewBox="0 0 592.000000 592.000000"
 preserveAspectRatio="xMidYMid meet">
<metadata>
Created by potrace 1.11, written by Peter Selinger 2001-2013
</metadata>
<g transform="translate(0.000000,592.000000) scale(0.100000,-0.100000)"
fill="#000000" stroke="none">
<path d="M2650 5755 c-25 -6 -71 -28 -103 -47 -31 -20 -78 -39 -105 -44 -26
-4 -50 -8 -54 -10 -5 -1 -16 -2 -25 -3 -16 -1 -15 -4 5 -20 12 -11 22 -22 22
-26 0 -9 -39 -42 -70 -59 -20 -11 -121 -39 -225 -62 -11 -3 -65 -7 -120 -9
-143 -5 -208 -29 -292 -108 -22 -21 -40 -29 -60 -27 -97 10 -162 1 -267 -34
l-109 -36 -31 31 c-26 27 -36 30 -68 26 -36 -5 -40 -2 -76 43 -33 43 -114 101
-150 106 -18 3 -38 -42 -52 -121 -7 -38 -17 -79 -23 -90 -21 -42 -64 -72 -112
-79 -26 -4 -55 -11 -64 -16 -9 -4 -43 -21 -76 -36 -42 -20 -85 -54 -142 -112
l-82 -84 -65 -4 c-94 -5 -154 -38 -206 -114 -53 -75 -22 -193 74 -282 63 -59
99 -72 201 -74 50 -1 108 -6 130 -12 22 -6 63 -12 90 -13 28 -1 61 -6 75 -11
30 -10 68 -63 99 -137 27 -65 30 -75 37 -173 l6 -78 -44 0 c-24 0 -54 -7 -66
-16 -21 -15 -24 -13 -65 26 -23 23 -53 48 -67 55 -38 19 -87 28 -95 16 -16
-27 -17 -139 -1 -201 14 -54 25 -74 68 -117 l51 -52 -34 -45 c-19 -24 -60 -76
-92 -115 -63 -77 -153 -252 -163 -315 -3 -22 -9 -49 -14 -60 -4 -12 -8 -60 -8
-109 -1 -48 -3 -91 -7 -96 -9 -16 -19 -103 -18 -164 1 -64 27 -180 55 -245 10
-24 18 -45 18 -47 0 -2 -18 -6 -40 -10 -50 -9 -100 -32 -107 -52 -5 -13 15
-47 79 -134 17 -23 18 -31 8 -67 -16 -51 -7 -85 26 -106 29 -20 44 -22 94 -12
34 6 36 5 60 -45 14 -29 49 -74 83 -105 44 -41 63 -67 73 -101 46 -151 153
-213 377 -218 42 0 81 -5 86 -11 5 -5 20 -68 34 -139 58 -291 184 -485 361
-551 70 -27 116 -62 116 -89 0 -8 16 -41 35 -73 82 -140 199 -190 399 -171
187 18 266 20 306 8 77 -23 179 -166 165 -230 -7 -32 -48 -69 -76 -69 -17 0
-16 3 6 36 31 46 32 81 2 125 -15 23 -35 37 -66 46 -39 11 -49 10 -87 -6 -35
-16 -107 -79 -96 -84 2 -1 -3 -17 -11 -36 -12 -27 -12 -43 -2 -92 13 -61 21
-75 67 -121 24 -24 84 -61 90 -57 2 1 20 -4 42 -11 49 -16 151 -3 207 26 74
38 150 153 163 243 3 24 7 46 9 48 2 2 48 -19 102 -47 54 -27 106 -50 116 -50
10 0 63 27 117 60 55 33 104 60 108 60 5 0 10 -22 11 -49 6 -115 76 -221 181
-273 95 -46 238 -21 315 56 34 34 67 112 67 159 0 60 -46 134 -102 163 -59 31
-147 3 -169 -53 -11 -29 -3 -99 12 -109 13 -8 11 -23 -3 -20 -50 9 -78 40 -78
84 0 29 46 116 74 140 60 51 144 79 226 75 68 -3 173 -14 181 -19 5 -3 44 -5
87 -5 121 0 194 27 258 98 29 30 61 76 73 102 44 93 44 94 98 111 124 40 218
126 296 270 55 103 117 307 117 387 0 30 20 42 81 48 30 3 77 8 104 10 158 16
254 91 296 233 8 27 24 51 46 68 53 40 80 74 109 134 l27 57 40 -14 c50 -17
85 -5 110 36 21 35 22 71 3 96 -12 17 -8 27 40 99 30 45 54 86 54 91 0 15 -85
55 -115 55 -32 0 -39 14 -21 42 20 31 46 122 53 183 8 68 8 107 -1 195 -5 41
-10 121 -11 176 -4 122 -13 156 -70 280 -47 101 -106 191 -186 285 l-48 56 45
47 c57 60 65 81 71 187 6 105 -3 129 -51 129 -36 0 -70 -22 -126 -81 -33 -35
-37 -36 -60 -23 -14 7 -45 13 -69 14 l-43 0 5 78 c6 90 29 164 71 235 41 66
69 84 141 91 33 3 73 9 90 14 16 4 48 5 70 2 70 -11 130 -3 182 24 56 28 132
106 158 163 9 21 24 43 32 50 12 10 13 20 4 65 -21 99 -117 170 -231 170 -58
0 -59 0 -110 55 -104 114 -224 186 -330 199 -73 9 -116 62 -125 153 -6 65 -25
124 -43 135 -24 15 -167 -88 -183 -131 -2 -6 -26 -13 -54 -16 -39 -5 -55 -12
-74 -35 l-24 -30 -56 25 c-119 53 -240 73 -315 52 -25 -7 -34 -3 -75 33 -76
68 -160 97 -291 104 -184 8 -275 31 -367 91 l-54 37 23 17 23 18 -30 11 c-17
6 -50 15 -75 20 -60 12 -80 19 -115 45 -16 12 -39 25 -50 29 -65 26 -167 11
-206 -30 -29 -31 -45 -30 -53 1 -8 33 -26 22 -26 -16 0 -16 -4 -29 -10 -29 -5
0 -10 3 -10 8 -1 4 -10 18 -21 32 l-21 24 -33 -39 c-25 -29 -33 -35 -31 -20 2
12 -2 31 -9 45 l-13 24 -7 -33 c-5 -26 -9 -30 -18 -19 -50 57 -121 81 -187 63z
m101 -32 c41 -18 77 -68 85 -121 5 -26 9 -50 10 -54 1 -5 3 -14 4 -20 1 -7 7
3 14 22 15 48 69 140 81 140 14 0 75 -104 91 -154 7 -23 14 -33 15 -23 1 9 2
20 3 25 1 4 6 27 10 52 16 85 47 124 112 138 38 8 102 -4 142 -27 15 -9 15
-10 -5 -11 -12 0 -24 4 -27 9 -5 7 -52 8 -88 2 -17 -3 -58 -58 -64 -86 -9 -39
-12 -125 -4 -125 3 0 16 24 28 53 51 115 94 134 256 113 56 -8 57 -16 0 -17
-27 -1 -42 -3 -33 -6 14 -3 12 -9 -10 -31 -15 -15 -46 -73 -70 -129 -23 -56
-48 -106 -55 -112 -8 -6 -19 -4 -36 9 -23 17 -24 21 -11 42 10 18 10 20 0 11
-18 -17 -35 -16 -66 4 -14 10 -37 18 -51 19 -13 0 -28 7 -32 14 -4 7 -13 9
-19 5 -19 -11 -61 4 -61 21 0 13 -3 14 -14 5 -11 -10 -15 -8 -19 6 -4 15 -5
14 -6 -3 -1 -25 -20 -35 -49 -27 -11 2 -31 -2 -44 -11 -23 -15 -26 -15 -43 4
-20 22 -27 54 -26 118 1 56 -21 97 -61 118 -30 15 -50 15 -118 -1 -18 -5 -21
-4 -10 3 8 6 20 12 25 13 6 2 26 9 45 15 39 14 62 13 101 -3z m-21 -73 c0 -5
3 -17 6 -27 3 -10 -2 -6 -10 8 -8 15 -22 29 -31 33 -8 3 -15 10 -15 16 0 6 11
3 25 -6 14 -9 25 -20 25 -24z m530 35 c0 -2 -16 -12 -35 -21 -20 -9 -43 -30
-51 -46 -18 -35 -28 -32 -18 6 8 33 49 66 80 66 13 0 24 -2 24 -5z m-594 -41
c17 -11 44 -53 72 -113 l45 -94 -21 -18 c-35 -28 -58 -13 -93 60 -17 36 -38
80 -47 98 -17 35 -70 69 -93 60 -9 -3 -6 -6 8 -6 24 -1 93 -64 93 -85 0 -7 16
-46 36 -85 34 -68 35 -73 19 -91 -9 -10 -23 -16 -30 -14 -14 6 -45 63 -75 144
-12 30 -34 71 -48 90 -15 19 -26 39 -24 43 1 5 -2 6 -8 2 -5 -3 -18 -2 -27 4
-15 8 -14 10 12 16 17 4 35 8 40 10 26 8 117 -6 141 -21z m-196 -73 c-1 -8
-102 -53 -108 -47 -8 9 80 65 94 59 8 -3 14 -8 14 -12z m1061 -38 c13 -15 12
-15 -11 -3 -34 17 -36 20 -18 20 9 0 22 -7 29 -17z m-496 -101 c148 -56 268
-211 250 -324 -13 -80 -84 -179 -161 -224 -74 -44 -181 -60 -266 -42 -42 10
-115 57 -164 107 -151 153 -99 354 120 462 90 44 146 49 221 21z m-979 -3 c3
-5 -3 -9 -13 -10 -13 -1 -10 -3 7 -9 l25 -7 -25 -11 -25 -11 25 0 c44 -2 7
-19 -51 -24 -31 -3 -67 -11 -80 -18 -13 -7 -26 -12 -29 -12 -3 1 -21 -8 -42
-18 -39 -20 -69 -56 -85 -104 -9 -29 -9 -46 1 -123 4 -28 3 -32 -9 -22 -8 6
-19 30 -24 53 l-10 42 2 -37 c2 -26 0 -35 -7 -28 -16 16 -10 138 9 172 4 7 0
5 -10 -4 -14 -13 -19 -33 -19 -92 -1 -86 -15 -92 -18 -8 l-1 57 -6 -60 c-7
-66 -21 -63 -18 3 2 23 -1 42 -5 42 -8 0 -12 -31 -10 -90 1 -32 0 -34 -13 -16
-9 11 -12 32 -10 50 3 17 7 45 9 62 8 77 112 177 220 212 63 20 202 27 212 11z
m519 -30 c67 -48 77 -57 70 -68 -8 -14 -23 -6 -68 35 -18 18 -44 37 -55 43
-26 14 -29 33 -4 24 9 -4 35 -19 57 -34z m821 26 c-11 -8 -31 -25 -45 -37 -75
-67 -101 -80 -101 -54 0 17 46 54 105 85 45 24 69 27 41 6z m664 -5 c89 -27
154 -77 197 -151 35 -61 45 -140 23 -178 -6 -11 -8 -1 -3 32 3 29 2 47 -4 47
-6 0 -8 -11 -6 -24 3 -14 -2 -35 -11 -48 -16 -23 -16 -23 -10 12 4 19 7 37 6
40 -1 79 -7 78 -17 -5 -9 -80 -16 -84 -14 -7 1 34 -1 65 -4 69 -4 3 -7 -16 -7
-43 0 -27 -5 -56 -11 -64 -8 -12 -9 -7 -6 18 2 17 0 32 -5 32 -4 0 -8 -12 -8
-27 0 -44 -11 -73 -27 -73 -12 0 -14 7 -7 38 35 165 -65 263 -278 271 -33 1
-38 21 -5 22 21 0 21 1 -3 10 -20 8 -22 12 -10 19 13 9 13 10 0 11 -10 0 -8 3
5 9 33 13 146 8 205 -10z m-3066 -31 c75 -66 141 -208 116 -250 -11 -17 -13
-15 -71 83 -27 46 -49 79 -49 73 0 -5 13 -45 29 -89 l30 -78 -32 6 c-17 3 -41
13 -53 21 -28 18 -61 117 -58 175 2 50 19 100 32 100 5 0 30 -18 56 -41z
m4001 -62 c0 -116 -22 -169 -78 -191 -24 -9 -46 -16 -50 -16 -4 0 2 21 12 48
22 59 28 74 31 87 1 6 6 16 12 23 7 8 7 12 0 12 -5 0 -19 -17 -30 -39 -33 -63
-82 -137 -83 -126 -15 98 46 224 140 287 37 25 46 9 46 -85z m-2487 59 c57
-30 112 -74 112 -92 0 -26 -18 -23 -61 10 -24 18 -52 36 -61 39 -30 10 -20 -1
15 -18 43 -21 90 -63 82 -74 -3 -5 -43 10 -89 33 -88 45 -112 48 -221 32 -29
-4 -36 -3 -25 4 11 7 -2 9 -43 6 -32 -3 -65 -2 -73 1 -26 10 -15 23 20 23 31
0 88 18 128 40 9 5 32 12 50 15 18 3 34 8 36 9 10 10 89 -7 130 -28z m1099 -4
c48 -17 100 -29 123 -28 41 1 41 1 19 -16 -28 -23 -45 -22 -158 6 -76 18 -103
21 -144 14 -46 -9 -124 -48 -138 -71 -10 -14 -40 0 -33 15 10 26 95 83 146 99
64 20 80 18 185 -19z m-1570 -62 c3 0 -1 8 -8 17 -8 9 3 4 24 -11 60 -46 51
-61 -38 -62 -65 -1 -80 -5 -111 -29 -36 -28 -56 -63 -56 -103 0 -12 -4 -25 -9
-28 -21 -12 -7 66 17 102 14 21 20 33 13 27 -21 -21 -34 -15 -14 7 9 10 25 18
34 17 9 -1 17 2 18 8 1 5 19 15 40 22 34 11 35 12 7 9 -16 -2 -49 -13 -72 -24
-23 -11 -40 -16 -36 -11 13 22 -17 6 -40 -22 -14 -17 -26 -27 -26 -22 1 19 92
103 112 103 6 0 0 -9 -13 -20 -13 -10 -19 -19 -13 -20 6 0 23 12 37 26 14 14
41 28 59 31 18 3 35 6 37 8 2 2 10 -2 18 -10 8 -8 17 -15 20 -15z m1573 6 l55
-15 -95 5 c-102 6 -151 -6 -219 -57 -18 -13 -36 -19 -47 -15 -16 6 -16 8 1 27
10 11 45 32 78 48 67 32 127 34 227 7z m408 -31 c53 -24 70 -41 30 -30 -21 5
-20 4 5 -15 15 -12 27 -26 27 -31 0 -5 -10 0 -22 12 -37 34 -84 50 -136 45
-49 -5 -112 -9 -125 -7 -4 1 0 12 9 25 26 41 122 41 212 1z m-2406 -3 c5 -5 6
-16 2 -26 -5 -14 -13 -16 -33 -10 -111 34 -253 -14 -371 -125 -58 -55 -90 -70
-90 -42 0 6 22 32 48 58 90 90 275 167 381 159 30 -3 58 -9 63 -14z m2894 -12
c38 -12 66 -25 152 -71 57 -31 136 -114 128 -136 -6 -13 -18 -6 -64 39 -31 30
-78 69 -104 87 -70 47 -210 78 -272 60 -33 -10 -58 4 -49 27 6 17 149 13 209
-6z m-3325 1 c15 -2 16 -41 2 -60 -21 -31 -40 -25 -47 14 -8 42 -2 54 22 50 9
-2 20 -4 23 -4z m1306 -15 c5 -4 -113 -26 -142 -26 -31 0 -8 12 47 25 49 11
85 12 95 1z m1017 0 c21 -3 46 -11 55 -16 16 -11 -42 -7 -119 7 -33 6 -34 7
-10 13 14 4 27 6 30 4 3 -1 22 -5 44 -8z m1270 6 c3 -5 1 -26 -5 -46 -10 -36
-11 -37 -29 -21 -26 23 -31 53 -12 65 21 12 39 13 46 2z m-264 -50 c57 -13
116 -46 125 -72 3 -8 3 -11 -1 -7 -10 10 -35 -13 -27 -26 4 -6 0 -8 -10 -4
-30 11 -19 -27 18 -63 49 -47 44 -59 -6 -16 -41 35 -133 64 -163 53 -8 -3 -18
5 -24 18 -11 23 -10 23 33 21 45 -2 75 7 63 20 -4 4 -31 13 -60 20 -45 12 -47
13 -16 11 21 -2 34 1 30 5 -5 5 -25 10 -45 11 -20 2 -40 6 -43 10 -13 13 63 7
106 -8 49 -17 61 -19 40 -5 -35 23 -107 38 -149 30 -23 -4 -39 -4 -34 0 11 11
97 28 103 20 3 -3 30 -12 60 -18z m-2973 5 c3 -4 -21 -7 -53 -7 -40 0 -67 -5
-80 -16 -19 -15 -19 -16 1 -8 30 11 125 17 125 7 0 -4 -21 -9 -47 -11 -26 -1
-52 -7 -58 -13 -7 -9 -2 -10 20 -5 24 5 26 4 13 -4 -10 -6 -24 -10 -30 -9 -27
3 -40 -1 -35 -13 2 -7 21 -14 43 -14 65 -2 66 -3 56 -20 -5 -10 -25 -18 -43
-20 -66 -7 -121 -27 -150 -57 -17 -16 -32 -27 -34 -25 -3 2 13 21 34 42 38 37
46 71 13 59 -11 -5 -14 -2 -9 9 8 22 -2 29 -25 17 -17 -9 -18 -8 -9 10 17 30
88 75 136 84 31 6 124 1 132 -6z m561 -11 c3 -3 -10 -11 -28 -17 l-33 -12 27
-14 c14 -7 26 -15 26 -18 0 -2 -17 -9 -37 -15 -21 -7 -58 -21 -82 -32 -52 -24
-66 -14 -62 44 1 24 39 57 76 67 31 9 103 6 113 -3z m1867 -10 c29 -19 43 -44
39 -70 -6 -38 -20 -40 -96 -18 -89 27 -99 36 -62 55 l28 14 -38 14 c-29 10
-33 15 -19 20 31 11 122 2 148 -15z m95 -3 c17 -21 21 -37 17 -70 -6 -60 -17
-66 -15 -9 0 34 -6 56 -21 77 -27 37 -10 38 19 2z m987 -9 c7 -18 -17 -38 -31
-24 -11 11 -1 40 14 40 6 0 13 -7 17 -16z m-4162 -14 c3 -5 -1 -10 -9 -10 -9
0 -16 5 -16 10 0 6 4 10 9 10 6 0 13 -4 16 -10z m1685 -9 c0 -13 -7 -21 -17
-22 -17 -1 -17 -2 0 -6 10 -3 17 -14 17 -30 0 -25 0 -26 -65 -20 -35 3 -92 14
-126 23 l-61 17 28 15 c41 21 105 37 169 40 50 3 55 1 55 -17z m880 8 c76 -13
121 -30 117 -44 -5 -13 -135 -42 -188 -41 -41 1 -44 3 -44 29 1 15 -3 27 -7
27 -4 0 -8 6 -8 14 0 26 40 30 130 15z m-1872 -79 c-5 -25 -12 -62 -15 -82 -5
-34 -8 -38 -34 -38 -25 0 -29 4 -29 29 0 58 61 164 82 143 3 -4 2 -27 -4 -52z
m2813 -30 c6 -13 13 -41 15 -62 5 -33 3 -38 -14 -38 -26 0 -38 17 -45 65 -7
49 -16 95 -22 115 -7 23 55 -52 66 -80z m676 64 l28 6 -25 -15 c-23 -13 -23
-14 -5 -16 19 -1 19 -2 1 -6 -11 -3 -14 -8 -8 -12 20 -12 -25 -50 -136 -114
-132 -77 -149 -84 -272 -102 -88 -13 -126 -13 -172 1 -9 3 -25 7 -35 9 -10 2
-29 8 -43 14 -24 9 -24 10 10 11 l35 2 -30 9 c-16 4 -41 10 -55 13 -14 3 -34
12 -45 20 -18 13 -16 14 20 2 51 -18 151 -12 260 15 28 6 101 39 164 72 131
69 249 111 268 95 7 -6 25 -7 40 -4z m-4054 -25 c29 -11 66 -29 82 -39 57 -35
190 -98 220 -104 73 -14 104 -18 170 -18 39 -1 82 5 95 12 23 11 24 11 10 -4
-9 -9 -49 -23 -90 -31 -97 -20 -107 -25 -42 -22 54 2 68 -6 30 -19 -155 -52
-321 -21 -528 99 -94 55 -125 84 -108 104 8 10 7 13 -3 13 -8 0 -19 8 -26 19
-11 17 -8 18 63 14 43 -2 98 -13 127 -24z m1185 -17 c20 -13 -105 -89 -159
-96 -52 -7 -84 -13 -107 -20 -22 -7 -101 -17 -160 -21 -53 -3 -93 15 -119 54
-15 23 -14 24 3 17 11 -4 43 -13 71 -19 57 -12 73 -8 273 62 83 29 172 39 198
23z m1683 -8 c30 -9 92 -32 139 -51 71 -30 96 -36 155 -35 l70 1 -29 -25 c-24
-21 -37 -25 -87 -23 -33 1 -91 10 -130 20 -71 17 -121 27 -191 35 -34 4 -117
50 -118 66 0 11 53 26 96 27 22 1 65 -6 95 -15z m-3035 -56 c49 -24 95 -48
102 -55 6 -6 22 -15 33 -18 12 -4 36 -17 54 -29 57 -39 186 -76 283 -80 48 -3
96 -8 105 -12 10 -3 31 -4 47 -2 37 6 39 -7 3 -26 -16 -8 -24 -15 -20 -16 7 0
59 22 132 57 l30 14 -30 -26 c-35 -31 -97 -64 -134 -73 -54 -13 -187 -6 -256
12 -38 11 -121 41 -184 68 -183 78 -280 109 -353 113 -78 4 -122 -7 -200 -52
-71 -41 -77 -41 -39 0 16 17 40 43 53 57 67 74 170 122 244 115 23 -2 81 -23
130 -47z m4468 37 c20 -9 61 -44 93 -77 32 -33 70 -73 86 -88 38 -40 34 -45
-15 -16 -81 47 -151 67 -214 62 -97 -8 -121 -14 -329 -96 -220 -86 -284 -102
-391 -102 -60 0 -84 6 -137 31 -35 17 -71 38 -78 48 -13 15 -12 15 8 5 37 -20
74 -32 69 -23 -8 12 20 18 71 15 24 -1 40 2 37 7 -3 5 10 9 28 9 18 0 51 5 73
10 22 5 54 11 70 14 97 18 170 47 262 107 54 35 123 72 154 84 75 27 168 31
213 10z m-3869 -55 c0 -19 -5 -24 -22 -23 -13 0 -35 1 -50 2 l-26 1 22 24 c30
32 76 30 76 -4z m976 9 c30 -6 60 -11 67 -12 20 -1 -2 -18 -24 -18 -10 -1 -30
2 -44 5 -14 4 -43 9 -65 12 -22 3 -44 10 -49 15 -14 13 49 11 115 -2z m164
-29 c-26 -29 -96 -60 -152 -67 -72 -8 -68 -17 5 -10 52 4 73 12 115 41 36 26
54 33 62 25 13 -14 -63 -83 -122 -110 -58 -26 -115 -23 -203 11 -47 19 -94 30
-125 30 -50 1 -50 1 -28 19 18 15 30 17 65 11 24 -5 63 -11 88 -15 24 -4 49
-9 54 -12 5 -4 6 -1 2 5 -3 6 -27 14 -51 18 -25 3 -45 11 -45 16 0 5 4 7 9 3
6 -3 46 -7 90 -9 78 -3 82 -2 158 39 78 42 114 45 78 5z m867 -37 c18 -5 71
-8 118 -7 l85 3 -65 -15 c-107 -25 -165 -20 -227 19 -47 29 -67 53 -58 67 4 6
27 -3 60 -24 29 -19 68 -39 87 -43z m103 58 c-44 -20 -150 -28 -159 -12 -4 6
14 12 41 16 27 3 55 7 63 9 8 1 33 3 55 3 l40 2 -40 -18z m972 13 c42 -11 32
-29 -18 -32 -44 -3 -49 -1 -49 17 0 22 22 27 67 15z m-2437 -50 c0 -21 -35
-31 -112 -33 -37 -1 -77 -4 -89 -6 -17 -3 -20 -2 -11 7 9 9 147 42 195 45 9 1
17 -5 17 -13z m1271 -31 c34 -22 45 -26 113 -39 26 -4 136 13 222 35 21 6 39
4 55 -5 13 -7 20 -14 14 -14 -48 -6 -81 -14 -153 -36 -107 -34 -164 -35 -225
-5 -64 31 -107 68 -107 92 0 22 11 18 81 -28z m559 32 c3 -2 18 -6 33 -9 15
-4 39 -9 54 -12 56 -11 35 -16 -62 -13 -96 2 -155 18 -155 42 0 9 115 1 130
-8z m-1270 -44 c0 -11 -126 -110 -155 -121 -22 -8 -24 -8 -14 8 6 9 33 35 61
57 27 22 58 48 70 57 19 17 38 16 38 -1z m672 -28 c66 -58 104 -96 93 -91 -81
34 -165 94 -165 117 0 22 30 11 72 -26z m-630 -43 c-20 -32 -29 -51 -62 -125
-17 -39 -40 -77 -51 -83 -21 -13 -79 -25 -79 -16 0 3 14 19 31 37 18 18 46 70
66 122 20 50 42 98 50 107 14 16 16 16 36 -3 18 -17 20 -23 9 -39z m566 27
c10 -19 34 -72 53 -118 18 -46 44 -94 56 -105 17 -16 20 -23 10 -27 -32 -12
-117 52 -117 89 0 7 -5 16 -11 19 -5 4 -3 -10 6 -30 17 -42 60 -84 88 -86 9
-1 22 -3 27 -4 6 -1 25 -4 43 -5 32 -3 31 -3 -8 -10 -60 -9 -125 -2 -171 21
-34 16 -49 33 -78 87 l-36 67 4 -70 c5 -84 17 -118 48 -139 25 -18 74 -21 112
-6 14 5 28 5 31 0 6 -9 -40 -26 -95 -34 -42 -7 -94 17 -123 55 -19 26 -32 77
-43 171 -5 42 -4 47 17 53 16 5 26 2 36 -11 13 -18 14 -17 8 7 -5 22 -2 28 25
39 26 11 33 10 50 -5 11 -10 24 -33 30 -51 7 -19 15 -34 20 -34 5 0 -5 28 -22
62 l-30 62 24 18 c13 9 24 18 25 18 0 0 10 -15 21 -33z m2162 10 c19 -9 50
-30 68 -46 47 -43 153 -118 185 -130 34 -13 63 2 72 36 3 13 9 23 15 23 18 0
21 -39 5 -64 -17 -26 -77 -52 -95 -41 -5 3 -10 1 -10 -5 0 -8 15 -11 45 -8 48
3 60 -5 23 -16 -18 -5 -20 -8 -9 -15 22 -14 -19 -22 -85 -16 -40 3 -54 2 -44
-5 12 -7 8 -10 -14 -10 -29 0 -31 -9 -4 -14 64 -15 78 -20 78 -28 0 -6 -13 -8
-30 -6 -35 5 -39 -5 -7 -20 19 -9 17 -11 -21 -10 -23 1 -45 -1 -48 -5 -9 -9
-65 14 -110 44 -45 31 -104 87 -144 138 -14 18 -40 49 -58 69 -46 51 -79 97
-62 87 24 -15 61 -48 101 -90 34 -34 37 -36 32 -15 l-6 25 23 -20 c13 -11 20
-14 16 -7 -13 22 11 13 55 -23 63 -50 72 -43 15 11 -27 25 -46 47 -43 50 9 9
55 -15 93 -50 37 -34 62 -47 49 -26 -10 17 18 11 66 -13 64 -33 79 -38 79 -27
0 6 -4 10 -10 10 -16 0 -180 121 -234 173 -55 53 -43 47 47 -22 32 -24 60 -42
62 -39 3 2 -29 31 -70 63 -66 51 -91 74 -67 62 4 -2 23 -11 42 -20z m-4892 8
c-3 -3 -38 -30 -78 -60 -41 -30 -69 -55 -62 -55 6 0 17 7 26 15 8 8 19 15 25
15 6 0 11 3 11 8 0 4 24 20 53 36 65 36 57 27 -64 -66 -122 -94 -155 -114
-204 -122 -36 -6 -44 -4 -73 25 -36 35 -39 47 -17 75 8 10 14 15 14 9 -1 -5 3
-22 9 -37 9 -22 18 -28 42 -28 43 0 80 21 155 89 35 32 84 68 107 80 40 20 68
28 56 16z m-178 -44 c-6 -12 -12 -21 -13 -21 -1 -1 -20 -3 -42 -6 -46 -6 -89
-46 -82 -75 8 -29 -18 -23 -31 6 -26 58 34 109 131 114 46 2 48 1 37 -18z
m1823 0 c-5 -20 -30 -30 -93 -38 -19 -2 -47 -6 -62 -8 -52 -6 -28 13 45 38 91
32 117 34 110 8z m3476 8 c21 -6 47 -19 59 -28 26 -19 38 -67 21 -87 -16 -19
-31 -18 -28 4 2 9 -2 27 -9 39 -13 23 -74 48 -96 40 -16 -6 -50 26 -39 36 10
10 51 8 92 -4z m-2894 -21 c31 -14 29 -28 -12 -121 -27 -59 -90 -126 -121
-128 -9 -1 -33 -2 -52 -4 -19 -1 -51 4 -70 11 l-35 13 36 0 c81 2 98 16 146
120 61 130 61 131 108 109z m2314 -31 c8 -7 48 -57 89 -112 78 -103 116 -143
165 -172 43 -27 32 -36 -35 -30 -92 8 -128 30 -267 167 -14 14 -52 46 -85 70
-79 60 -54 63 40 5 89 -56 110 -55 27 1 -73 48 -79 53 -62 50 15 -2 48 -19 89
-45 23 -15 24 -15 11 2 -17 22 -3 22 21 0 10 -9 21 -14 24 -10 10 10 -14 43
-50 68 -20 13 -36 27 -36 31 0 9 49 -9 69 -25z m-4346 11 c-4 -7 -17 -24 -29
-38 -12 -14 -54 -63 -93 -109 -40 -46 -82 -92 -96 -102 -39 -31 -129 -69 -139
-59 -5 5 -21 6 -36 3 -15 -3 -31 0 -34 6 -5 7 2 11 16 12 13 0 32 4 43 9 12 5
-4 6 -40 3 -67 -6 -67 5 -2 24 l42 12 -50 -3 c-27 -2 -54 -5 -60 -6 -22 -5
-55 0 -55 8 0 5 22 9 50 8 28 0 55 5 62 12 11 11 9 12 -12 5 -40 -14 -93 -2
-96 23 -3 18 1 21 29 20 41 -2 91 15 156 54 62 36 71 37 45 8 -22 -25 -9 -19
58 30 64 45 78 37 28 -16 -51 -53 -52 -68 -2 -20 45 43 68 52 84 34 11 -12 23
-5 70 40 54 52 78 68 61 42z m177 5 c-1 -5 -19 -20 -40 -35 -27 -19 -40 -35
-40 -50 0 -13 4 -18 8 -12 4 5 25 20 47 33 22 12 30 15 18 5 -13 -9 -23 -21
-23 -26 0 -7 4 -7 13 0 23 19 89 53 94 48 3 -2 -20 -21 -51 -42 -31 -20 -56
-41 -56 -47 0 -5 6 -4 14 2 21 18 129 71 134 67 2 -3 -7 -10 -21 -18 -22 -11
-80 -61 -196 -166 -58 -52 -146 -92 -204 -92 l-50 0 44 31 c52 37 72 58 150
161 69 89 126 148 146 148 7 0 13 -3 13 -7z m2698 -9 c-9 -9 -31 -18 -49 -20
-38 -5 -31 6 14 23 45 16 54 15 35 -3z m-1025 -32 c-3 -12 -31 -38 -67 -60
-83 -52 -86 -54 -86 -48 0 7 152 138 156 134 2 -2 1 -14 -3 -26z m271 19 c3
-4 -1 -50 -10 -102 -12 -74 -21 -101 -42 -128 -35 -44 -83 -61 -137 -49 -56
13 -63 25 -14 22 40 -2 100 23 116 49 3 5 9 47 14 92 4 46 12 92 18 104 12 21
45 29 55 12z m59 -20 c18 -7 26 -19 31 -52 5 -32 10 -39 18 -31 9 9 9 15 0 24
-14 14 -16 48 -2 48 5 0 7 -8 4 -17 -3 -10 4 -6 16 10 21 26 59 37 61 17 5
-42 3 -61 -11 -100 -9 -26 -28 -63 -42 -83 l-25 -38 -33 51 c-49 76 -73 154
-53 173 8 9 7 9 36 -2z m803 -18 c21 -9 44 -18 49 -19 6 -1 26 -9 45 -17 19
-9 77 -25 129 -37 150 -36 250 -20 349 54 31 23 62 26 62 6 0 -15 -94 -91
-137 -111 -119 -54 -292 -45 -462 26 -194 80 -214 90 -199 102 29 25 103 23
164 -4z m-1384 -10 c17 -15 10 -20 -123 -75 -104 -44 -159 -61 -212 -67 -117
-12 -228 -1 -289 30 -43 22 -128 95 -128 111 0 22 33 17 75 -12 67 -46 110
-61 184 -64 82 -3 161 13 282 58 52 19 101 36 109 39 25 9 83 -2 102 -20z
m-1190 -92 c-4 -10 -8 -7 -14 9 -5 13 -6 31 -2 39 5 13 8 10 14 -9 4 -14 4
-31 2 -39z m425 -17 c28 -28 67 -54 109 -70 35 -15 64 -30 64 -34 0 -4 -73 -7
-162 -6 -153 1 -165 2 -195 24 -18 13 -33 27 -33 32 0 5 46 11 103 13 l102 3
-116 2 c-124 2 -126 3 -196 67 l-23 20 127 3 c69 1 128 4 131 7 8 8 44 -16 89
-61z m2078 48 c44 -26 212 -95 240 -99 48 -8 198 -7 230 1 24 6 28 5 17 -5
-16 -17 -165 -46 -222 -43 -171 8 -316 60 -351 126 -13 23 -6 21 49 -20 17
-13 32 -20 32 -15 0 6 -18 22 -40 37 -22 14 -40 28 -40 29 0 8 67 -1 85 -11z
m948 7 c64 0 117 -2 117 -6 0 -7 -45 -48 -77 -70 -26 -17 -279 -28 -303 -13
-8 5 -10 10 -4 10 6 0 32 20 58 44 34 33 52 44 69 40 12 -3 75 -5 140 -5z
m221 3 c3 -5 -4 -21 -15 -38 l-19 -29 2 30 c1 17 3 33 5 38 5 9 21 9 27 -1z
m-4104 -18 c0 -8 -4 -12 -10 -9 -5 3 -7 0 -4 -8 3 -8 1 -18 -5 -22 -6 -3 -11
2 -11 12 -1 17 -2 17 -15 -1 -12 -16 -15 -17 -15 -4 0 14 35 46 53 47 4 1 7
-6 7 -15z m1621 6 c20 9 22 9 9 -2 -8 -7 -16 -20 -18 -28 -10 -43 -99 -89
-207 -105 -38 -6 -168 -7 -210 -1 -26 3 -98 27 -107 35 -4 3 48 6 115 6 67 0
133 3 147 6 42 11 194 71 215 85 13 10 21 10 26 3 5 -8 13 -8 30 1z m2912 -33
l19 -32 -22 20 c-28 26 -46 57 -28 50 7 -3 21 -20 31 -38z m36 4 c31 -43 25
-50 -9 -11 -33 37 -34 40 -21 40 5 0 19 -13 30 -29z m-3982 -57 c26 -25 31
-38 27 -61 -3 -15 -7 -167 -9 -338 -2 -170 -6 -413 -10 -540 -10 -383 -11
-466 -3 -471 4 -3 9 34 9 83 6 424 9 538 15 612 4 47 7 218 8 378 1 161 2 293
4 293 17 0 62 -34 63 -48 3 -41 -4 -336 -16 -657 -8 -227 -2 -850 9 -980 3
-33 8 -96 11 -140 9 -125 13 -158 35 -267 63 -311 178 -572 389 -878 109 -159
324 -390 456 -491 80 -62 75 -58 181 -142 44 -36 114 -87 155 -114 109 -73
315 -193 332 -193 22 0 285 147 357 200 36 26 92 64 124 85 48 30 169 132 256
215 9 8 69 65 135 125 274 255 522 673 638 1076 22 75 28 105 42 199 16 117
23 237 32 575 10 399 6 833 -11 1280 -3 81 19 149 53 160 12 3 21 10 21 15 0
9 100 84 105 78 4 -5 17 -915 19 -1318 1 -354 -5 -506 -30 -735 -3 -33 -8 -76
-9 -97 -7 -82 -83 -331 -156 -508 -83 -204 -166 -341 -335 -555 -151 -190
-174 -218 -257 -309 -197 -215 -272 -272 -672 -514 -256 -155 -270 -162 -304
-162 -92 0 -687 387 -856 556 -67 67 -230 245 -257 281 -12 15 -63 80 -113
143 -126 159 -206 280 -274 418 -68 137 -165 413 -196 562 -2 8 -8 35 -13 60
-16 71 -22 117 -28 240 -3 63 -6 131 -8 150 -2 19 -7 76 -12 125 -9 103 -9
480 1 935 3 173 7 410 8 527 l2 212 25 -16 c14 -9 39 -31 57 -49z m3577 36
c-10 -16 -20 -27 -22 -25 -5 5 26 55 34 55 3 0 -3 -13 -12 -30z m-3775 -62
c46 -100 60 -167 59 -291 0 -164 -10 -205 -81 -331 -57 -101 -77 -125 -237
-285 -240 -241 -314 -331 -367 -448 -23 -50 -26 -72 -27 -163 -1 -88 2 -112
20 -147 15 -28 17 -40 8 -36 -17 6 -61 97 -70 143 -3 19 -6 69 -6 111 1 170
120 383 342 614 201 209 314 347 337 412 19 55 3 333 -22 374 -14 21 20 7 41
-18 32 -38 30 -19 -6 55 -31 64 -34 72 -25 72 3 0 18 -28 34 -62z m1651 43
c-11 -22 -49 -51 -65 -51 -8 0 63 68 73 70 1 0 -2 -9 -8 -19z m-2080 6 c0 -2
-12 -14 -27 -28 l-28 -24 24 28 c23 25 31 32 31 24z m316 -45 c59 -89 70 -120
81 -227 13 -141 3 -196 -51 -272 -35 -51 -54 -57 -27 -10 52 93 66 248 32 358
-12 36 -38 93 -60 126 -22 34 -37 64 -34 67 14 14 30 3 59 -42z m44 -17 c-1
-11 -27 20 -41 50 -6 11 1 7 15 -10 14 -16 26 -34 26 -40z m2176 34 c23 -24
25 -29 9 -23 -21 7 -45 32 -45 46 0 13 4 10 36 -23z m1714 -19 c-12 -17 -24
-29 -27 -26 -3 3 2 12 10 21 9 8 19 25 23 38 4 12 9 16 11 10 3 -7 -5 -27 -17
-43z m84 41 c5 -7 -22 -51 -44 -71 -14 -13 -42 -89 -54 -144 -23 -113 -21
-194 10 -272 15 -38 31 -75 37 -81 6 -8 6 -13 0 -13 -5 0 -15 12 -22 28 -7 15
-24 45 -39 66 -24 35 -27 49 -29 135 -1 117 15 201 52 269 42 77 74 107 89 83z
m-449 -59 c-28 -28 -25 -27 -255 -23 l-105 2 40 21 c35 19 57 22 172 23 73 0
135 4 139 7 3 4 12 4 20 1 11 -4 9 -11 -11 -31z m-1984 -23 c37 -22 83 -41
105 -43 45 -5 105 13 145 43 36 27 37 26 50 -6 12 -29 13 -28 24 22 l6 29 29
-32 28 -33 21 27 c12 15 21 31 21 36 0 20 18 -4 23 -32 8 -37 24 -39 33 -4 l7
25 26 -24 c41 -38 71 -50 127 -50 35 0 65 7 91 22 76 43 122 61 166 67 46 7
79 -4 342 -112 81 -33 179 -108 298 -229 179 -182 269 -324 345 -546 l40 -115
-4 -235 c-5 -299 -5 -291 -5 -379 0 -41 -1 -93 -4 -115 -2 -22 -6 -83 -10
-135 -8 -128 -31 -280 -55 -357 -98 -319 -221 -559 -428 -835 -138 -183 -222
-268 -426 -432 -34 -27 -63 -52 -66 -56 -18 -27 -510 -340 -535 -340 -14 0
-61 25 -260 141 -39 22 -311 220 -370 269 -16 13 -95 90 -175 170 -151 151
-214 228 -363 447 -37 56 -142 244 -174 313 -75 163 -130 344 -149 490 -3 25
-7 56 -10 70 -2 14 -6 49 -10 78 -3 29 -7 63 -10 75 -6 28 -15 362 -16 627 -2
183 1 214 20 288 28 104 124 297 192 385 81 107 239 255 359 339 147 103 389
201 470 191 20 -3 66 -22 102 -44z m2253 -12 c-20 -42 -21 -48 -5 -29 10 12
24 22 30 22 6 0 11 5 11 10 0 6 4 10 10 10 6 0 6 -9 0 -26 -14 -35 -21 -102
-25 -224 -4 -113 7 -153 56 -214 13 -16 55 -68 93 -115 39 -47 113 -131 167
-186 53 -55 110 -115 125 -134 16 -19 43 -50 60 -70 54 -63 132 -203 160 -286
53 -161 36 -322 -44 -407 -29 -31 -26 -37 5 -11 79 70 108 233 68 388 -18 73
-61 168 -99 220 -12 17 -30 44 -39 60 -18 29 -18 29 0 9 81 -95 105 -137 149
-269 44 -130 47 -197 15 -299 -22 -70 -75 -155 -119 -191 -14 -11 -60 -39
-102 -61 -76 -41 -78 -41 -171 -39 -170 5 -285 64 -366 186 -24 37 -26 49 -29
166 -2 77 1 133 7 146 16 29 99 107 114 107 26 0 23 -16 -11 -55 -46 -52 -77
-95 -69 -95 3 0 3 -6 -2 -12 -14 -24 -18 -71 -9 -113 3 -11 5 -27 5 -35 2 -26
74 -127 114 -159 21 -16 70 -42 110 -57 83 -32 179 -36 261 -10 55 17 147 75
143 91 -1 5 11 37 28 70 26 53 29 70 28 145 -1 175 -46 249 -311 512 -281 278
-366 398 -396 559 -24 126 -18 301 14 374 4 11 14 34 21 52 7 17 17 29 21 27
4 -3 -4 -28 -18 -57z m901 54 c-6 -5 -28 -6 -50 -1 l-40 8 50 1 c29 1 45 -3
40 -8z m-4779 -83 c25 -49 54 -132 54 -153 0 -5 -27 37 -60 95 -40 71 -55 107
-47 112 17 10 25 2 53 -54z m4052 -46 c-27 -48 -52 -89 -55 -92 -18 -17 14 85
44 138 27 50 37 61 48 52 11 -9 4 -27 -37 -98z m-3042 55 c2 -2 -29 -29 -69
-61 -77 -60 -230 -212 -289 -286 -20 -25 -64 -85 -97 -134 -59 -87 -61 -89
-61 -55 0 60 30 141 72 198 56 74 232 255 290 297 26 20 60 39 76 44 25 7 69
6 78 -3z m66 -15 c-171 -126 -309 -257 -403 -382 -60 -80 -152 -234 -171 -287
-7 -18 -15 -33 -19 -33 -10 0 1 81 16 117 13 32 102 172 116 183 3 3 30 34 59
70 66 81 207 220 280 274 30 22 57 44 60 47 11 13 46 28 65 28 19 0 19 -1 -3
-17z m1930 4 c15 -8 46 -30 69 -48 45 -36 226 -213 274 -269 77 -86 168 -221
195 -287 11 -29 22 -112 14 -112 -1 0 -28 48 -58 106 -47 87 -133 222 -156
244 -3 3 -23 28 -45 55 -65 82 -164 174 -269 252 -76 56 -94 73 -75 73 13 0
36 -7 51 -14z m184 -36 c186 -138 361 -372 362 -487 0 -24 -1 -43 -2 -43 -2 0
-20 26 -41 57 -21 31 -41 61 -46 67 -127 162 -183 226 -259 296 -51 47 -98 90
-104 96 -6 6 -23 18 -38 28 -42 27 -35 39 20 34 37 -4 62 -15 108 -48z m-2386
31 c0 -2 -37 -41 -83 -85 -46 -45 -111 -116 -145 -159 -34 -43 -65 -77 -69
-77 -8 0 -10 285 -2 308 6 15 24 17 153 17 80 0 146 -2 146 -4z m2714 -11 c8
-8 21 -310 13 -310 -2 0 -26 28 -52 61 -26 34 -92 105 -146 159 -54 54 -96
100 -93 103 8 8 268 -4 278 -13z m602 -45 c-37 -81 -44 -102 -49 -145 -3 -25
-8 -56 -12 -70 -3 -14 -6 -49 -6 -77 0 -29 -4 -53 -8 -53 -14 0 -31 96 -27
155 4 61 27 128 47 141 8 4 8 0 -1 -15 -6 -12 -10 -27 -8 -32 2 -6 19 24 37
65 19 42 36 74 39 72 2 -3 -3 -21 -12 -41z m-36 -16 c-7 -11 -14 -18 -17 -15
-3 3 0 12 7 21 18 21 23 19 10 -6z m-4085 -82 c23 -74 29 -151 15 -192 -17
-50 -27 -51 -28 -2 -1 50 -29 213 -39 230 -4 7 1 5 11 -3 17 -13 17 -12 2 25
l-16 40 20 -23 c11 -13 27 -47 35 -75z m-73 -24 c34 -76 41 -114 41 -200 0
-44 -4 -66 -16 -78 -16 -15 -17 -15 -18 7 0 23 -4 59 -13 128 -3 19 -14 64
-25 100 -25 78 -24 73 -7 67 10 -4 13 -1 9 9 -3 7 -2 14 1 14 4 0 16 -21 28
-47z m4213 5 c-1 -24 -9 -67 -18 -96 -19 -62 -17 -47 -17 -127 0 -67 -9 -82
-27 -42 -22 49 9 250 44 290 9 9 17 17 18 17 2 0 2 -19 0 -42z m-4520 -268
c60 -37 105 -123 105 -199 0 -29 -2 -32 -16 -20 -8 7 -24 30 -35 51 -29 58
-32 46 -4 -18 28 -64 28 -64 15 -64 -17 0 -71 63 -94 110 -26 51 -36 160 -15
160 6 0 26 -9 44 -20z m4849 4 c11 -28 6 -61 -16 -119 -21 -55 -82 -134 -94
-123 -3 3 11 38 30 77 40 78 43 89 21 71 -8 -7 -15 -16 -15 -21 0 -11 -69
-119 -76 -119 -8 0 3 93 15 124 18 44 51 86 85 107 38 23 42 23 50 3z m-4484
-81 c-50 -57 -101 -112 -140 -152 -19 -20 -64 -70 -100 -111 -36 -41 -75 -85
-88 -98 -32 -34 -102 -130 -102 -141 0 -5 -3 -11 -7 -13 -5 -1 -16 -16 -26
-33 -60 -100 -85 -197 -83 -330 1 -121 21 -168 106 -255 58 -60 134 -97 217
-107 96 -12 264 42 329 106 41 41 92 138 99 189 7 59 -26 139 -81 202 -25 27
-43 50 -39 50 20 0 68 -36 101 -75 36 -44 38 -50 42 -135 8 -173 -48 -265
-212 -345 -123 -61 -238 -60 -374 5 -155 73 -230 215 -226 425 3 112 75 272
174 385 12 14 33 39 47 55 56 65 177 201 187 210 6 6 51 54 100 108 49 53 93
97 98 97 6 0 -5 -17 -22 -37z m-132 4 c20 -13 14 -30 -27 -80 -43 -51 -51 -49
-58 14 -7 58 39 94 85 66z m4292 -81 c150 -156 289 -316 273 -316 -5 1 -21 17
-36 38 -16 20 -86 98 -156 172 -132 139 -200 216 -168 191 10 -8 49 -47 87
-85z m109 65 c14 -14 18 -29 15 -47 -10 -56 -19 -59 -52 -13 -34 46 -39 64
-19 72 23 10 37 7 56 -12z m-4149 -224 c0 -2 -10 -12 -22 -23 l-23 -19 19 23
c18 21 26 27 26 19z m3892 -75 c14 -13 31 -21 37 -18 6 4 30 -4 53 -17 24 -14
48 -23 54 -20 19 7 238 -217 292 -298 77 -116 104 -236 76 -342 -29 -112 -94
-178 -197 -199 -96 -20 -278 33 -345 100 -55 55 -86 113 -90 171 -4 59 10 107
29 96 5 -4 7 -10 4 -15 -3 -5 -1 -11 3 -14 5 -3 16 11 26 31 20 42 33 37 18
-6 -15 -42 -8 -39 19 9 13 22 26 40 31 40 4 0 -2 -16 -13 -35 -28 -46 -26 -91
4 -151 31 -61 49 -77 114 -102 113 -43 244 -3 309 94 20 29 28 131 15 180 -26
98 -138 219 -304 332 -118 80 -147 102 -147 114 0 16 26 8 40 -12 8 -11 19
-20 24 -20 6 0 -19 30 -54 67 -61 62 -60 70 2 15z m-3942 -8 c-28 -28 -36 -42
-22 -35 18 10 22 9 22 -4 0 -8 -3 -15 -8 -15 -4 0 -18 -10 -32 -23 -14 -12
-65 -49 -115 -82 -179 -119 -296 -271 -300 -388 -2 -61 16 -131 42 -159 52
-58 183 -90 268 -66 71 21 104 47 134 104 29 57 32 96 10 143 -22 50 -10 55
16 6 24 -44 30 -39 10 8 -20 48 -4 48 19 0 17 -35 19 -36 31 -19 13 17 14 17
25 -4 16 -31 14 -113 -4 -152 -23 -47 -104 -131 -148 -151 -71 -33 -190 -59
-243 -52 -151 18 -241 138 -239 315 2 72 30 153 84 232 67 100 158 190 325
324 50 39 55 42 30 14 -28 -31 -28 -33 -5 -19 51 31 66 30 32 -1 -18 -16 -28
-30 -23 -30 5 0 17 8 27 18 23 22 98 82 104 82 2 0 -16 -21 -40 -46z m104 -23
c-51 -48 -125 -105 -301 -230 -57 -40 -103 -76 -103 -81 0 -4 -12 -15 -26 -25
l-27 -17 28 36 c28 36 100 91 282 216 51 34 114 85 140 114 26 28 50 47 52 42
2 -5 -18 -30 -45 -55z m3701 33 c9 -15 12 -23 6 -20 -11 7 -35 46 -28 46 3 0
12 -12 22 -26z m278 -208 c32 -21 56 -40 54 -43 -9 -8 -143 79 -197 128 l-55
50 70 -48 c39 -27 96 -66 128 -87z m-4023 3 c-30 -37 -31 -41 -10 -34 15 5 20
4 16 -4 -4 -6 -2 -11 3 -11 6 0 11 4 11 9 0 5 7 12 17 15 9 4 -20 -31 -65 -76
-162 -166 -217 -248 -216 -324 0 -29 5 -58 10 -66 19 -23 24 -48 11 -48 -8 0
-21 16 -31 36 -9 20 -20 34 -23 30 -3 -3 -13 0 -21 7 -13 10 -14 8 -7 -12 5
-18 4 -22 -6 -16 -9 6 -11 4 -6 -8 3 -9 2 -19 -3 -22 -13 -8 -28 53 -23 90 16
102 80 192 267 373 53 51 96 98 96 104 0 6 3 8 7 5 3 -4 -9 -26 -27 -48z
m3873 -44 c170 -173 226 -238 252 -290 16 -33 25 -66 22 -80 -2 -13 1 -26 7
-29 6 -2 3 -5 -6 -5 -12 -1 -18 -9 -19 -23 0 -17 -2 -19 -7 -8 -12 27 -39 22
-52 -10 -7 -16 -19 -35 -28 -42 -13 -11 -15 -10 -10 7 4 11 12 35 19 52 29 72
-44 209 -190 354 -47 47 -78 84 -68 81 9 -2 17 1 17 8 0 9 6 8 18 -3 28 -26
36 -20 10 6 -13 12 -34 36 -48 52 -41 48 6 9 83 -70z m-4049 -36 c-16 -17 -42
-38 -59 -46 -36 -18 -26 -7 35 41 56 43 62 45 24 5z m4246 -56 c0 -5 -51 24
-72 40 -38 30 -15 26 27 -4 25 -18 45 -34 45 -36z m-3996 -7 c2 -16 -2 -26
-10 -26 -20 0 -26 18 -14 41 14 25 21 20 24 -15z m4087 -98 c20 -15 46 -48 58
-73 24 -51 24 -54 12 -74 -8 -12 -13 -11 -30 10 -11 13 -20 29 -21 35 0 6 -17
35 -38 65 -21 30 -41 60 -45 66 -12 20 22 4 64 -29z m-4454 10 c-9 -13 -33
-52 -53 -88 -21 -36 -41 -66 -46 -68 -4 -2 -8 -15 -8 -28 0 -30 -15 -31 -31
-3 -24 45 16 131 84 180 50 36 77 40 54 7z m163 -187 c13 -25 12 -32 -5 -54
-13 -18 -14 -18 -34 2 -21 21 -27 51 -14 64 13 14 43 7 53 -12z m4130 -5 c0
-13 -9 -34 -20 -47 -20 -24 -20 -24 -35 -5 -19 25 -19 41 1 60 24 25 54 20 54
-8z m154 -58 c-10 -36 -26 -58 -20 -28 3 14 6 31 6 38 0 6 5 12 11 12 6 0 8
-9 3 -22z m-4835 -214 c2 -35 52 -116 102 -167 33 -32 59 -63 59 -67 0 -16
-23 -60 -31 -60 -12 0 -78 73 -110 121 -49 74 -91 237 -71 273 5 9 50 -80 51
-100z m5231 69 c-1 -97 -56 -225 -132 -308 -27 -30 -53 -55 -57 -55 -3 0 -14
15 -24 32 -19 33 -19 33 5 47 53 34 105 100 132 167 16 38 29 76 31 84 1 8 8
14 14 13 6 -2 11 10 11 27 0 17 5 30 10 30 6 0 10 -17 10 -37z m-4464 -92 c0
-20 -4 -27 -13 -24 -16 6 -16 9 -3 34 14 25 16 24 16 -10z m3658 7 c14 -20 14
-23 0 -31 -19 -11 -28 -3 -30 28 -1 31 10 32 30 3z m-4329 -61 c9 -19 36 -53
61 -77 47 -45 50 -57 13 -45 -44 14 -147 144 -133 167 9 15 43 -12 59 -45z
m5033 12 c-13 -37 -110 -139 -132 -139 -23 0 -20 6 24 46 22 20 52 58 67 84
30 54 59 60 41 9z m-4388 -32 l21 -15 -31 -22 c-41 -29 -104 -36 -155 -16 -34
12 -36 15 -15 16 37 2 84 11 89 16 2 2 -42 2 -99 0 -74 -3 -98 -1 -85 7 63 35
233 44 275 14z m3913 8 c84 -22 94 -35 21 -29 -146 12 -164 12 -164 3 0 -5 3
-8 8 -7 13 3 103 -14 98 -19 -2 -3 -8 -5 -13 -5 -4 0 -12 -3 -18 -7 -26 -21
-63 -19 -112 3 -64 30 -72 43 -35 59 45 19 146 20 215 2z m-4428 -21 c52 -25
64 -45 27 -44 -15 1 -104 70 -89 70 4 0 31 -12 62 -26z m4760 3 c-21 -33 -58
-51 -86 -42 -22 7 -18 11 36 36 33 16 61 29 63 29 1 0 -4 -11 -13 -23z m-4200
-102 c2 -25 1 -45 -1 -45 -8 0 -64 54 -64 61 0 10 53 39 59 33 3 -2 5 -24 6
-49z m-179 7 c77 -39 114 -77 172 -176 84 -144 126 -248 138 -346 2 -14 8 -54
13 -90 6 -36 13 -94 16 -130 3 -36 8 -78 11 -95 3 -21 2 -26 -4 -15 -5 8 -12
42 -16 75 -3 33 -8 69 -10 80 -2 11 -9 60 -16 108 -8 48 -16 90 -20 92 -4 3
-4 -14 1 -38 4 -23 10 -64 13 -90 3 -26 12 -93 21 -149 8 -56 15 -103 15 -105
0 -2 5 -1 10 2 6 3 10 -4 11 -17 0 -13 2 -30 4 -39 1 -8 6 -42 9 -75 18 -158
68 -243 181 -310 57 -33 131 -37 209 -9 33 11 52 13 59 6 7 -7 2 -14 -16 -22
-15 -7 -24 -16 -21 -20 7 -11 -30 -29 -60 -29 -14 0 -27 -4 -30 -8 -7 -11 59
-5 83 8 29 15 48 12 25 -4 -11 -8 -45 -22 -75 -30 l-54 -16 50 6 c28 3 59 10
70 16 20 9 20 9 1 -6 -11 -9 -23 -16 -28 -16 -4 0 -8 -5 -8 -10 0 -6 15 -4 38
5 l37 15 -29 -24 c-17 -14 -33 -23 -37 -20 -4 2 -10 0 -14 -6 -11 -17 28 -11
65 10 l35 21 -35 -32 -35 -31 37 16 c21 8 54 27 73 42 47 35 45 14 -2 -25 -66
-54 -116 -72 -207 -73 -166 -1 -290 70 -355 205 -25 52 -26 56 -45 217 -4 30
-8 71 -11 90 -2 19 -7 60 -10 90 -3 30 -8 66 -10 80 -2 14 -7 45 -10 70 -34
297 -101 500 -204 621 -106 123 -268 184 -380 144 -57 -20 -62 -14 -14 16 107
68 251 76 359 21z m3817 27 c12 -7 24 -13 26 -15 6 -6 -51 -64 -61 -64 -5 0
-7 12 -4 28 2 15 5 35 5 45 1 20 5 21 34 6z m425 -19 c50 -22 75 -48 30 -31
-33 12 -105 5 -156 -15 -46 -17 -137 -85 -184 -137 -55 -60 -174 -324 -155
-343 3 -3 16 27 28 67 52 173 163 322 279 376 105 48 212 40 269 -21 31 -33
22 -42 -19 -21 -18 9 -36 13 -41 8 -11 -11 1 -26 35 -41 16 -7 27 -15 24 -17
-4 -4 -63 14 -83 26 -16 9 -95 11 -95 2 0 -4 14 -8 32 -7 41 1 96 -15 130 -38
14 -10 29 -18 33 -18 11 0 73 -73 78 -92 10 -35 -10 -27 -42 18 -54 77 -172
110 -264 73 -51 -20 -151 -94 -182 -134 -60 -80 -121 -263 -151 -455 -8 -58
-17 -112 -19 -120 -2 -8 -4 -23 -4 -32 -1 -10 -6 -18 -12 -18 -5 0 -8 3 -6 8
3 4 8 45 11 91 4 47 9 88 12 93 3 4 1 8 -4 8 -6 0 -14 -28 -18 -62 -4 -35 -8
-65 -9 -68 -1 -3 -5 -35 -9 -73 -5 -37 -12 -70 -17 -73 -9 -5 -11 6 -12 71 0
73 36 356 49 376 3 5 0 9 -5 9 -9 0 -14 -18 -10 -32 0 -2 -4 -14 -9 -28 -5
-14 -13 -61 -17 -105 -4 -44 -8 -82 -10 -85 -2 -3 -6 -39 -9 -80 -4 -41 -9
-86 -11 -100 -3 -14 -7 -47 -10 -75 -20 -185 -31 -222 -83 -290 -60 -77 -97
-111 -147 -135 -75 -35 -215 -44 -303 -19 -45 12 -132 82 -119 95 4 4 20 -4
35 -19 28 -27 120 -72 129 -64 2 3 -6 8 -19 12 -29 10 -81 46 -74 52 3 3 23
-4 46 -16 48 -25 53 -19 8 9 -28 17 -26 26 5 21 5 -1 5 4 1 10 -4 8 1 9 17 4
51 -17 89 -23 89 -14 0 5 -9 9 -21 9 -18 0 -109 36 -109 44 0 2 23 -3 52 -10
29 -8 64 -14 78 -13 17 1 10 5 -23 14 -78 21 -84 25 -67 35 13 8 13 10 -1 10
-17 0 -45 27 -37 35 3 3 17 -1 31 -8 67 -35 206 -13 279 44 36 29 87 119 107
189 13 47 22 132 13 126 -4 -3 -8 7 -9 22 -2 24 -1 25 8 7 8 -17 9 -16 6 7 -2
15 1 29 7 32 7 3 6 8 -4 15 -12 8 -12 11 -1 11 10 0 11 3 2 14 -8 10 -8 16 2
25 10 8 16 56 7 56 -1 0 -3 8 -5 18 -2 10 1 14 7 11 7 -4 8 8 3 36 -5 30 -4
41 4 36 6 -4 11 -2 11 3 0 6 -6 11 -12 11 -9 0 -10 2 -2 8 7 4 15 27 18 52 10
71 14 89 41 180 49 161 117 282 200 359 100 92 264 122 383 71z m-4378 -77
c68 -31 141 -95 178 -156 42 -70 117 -241 127 -292 5 -22 9 -44 10 -50 2 -5 5
-27 9 -47 3 -21 11 -59 17 -85 5 -27 12 -70 14 -98 2 -27 7 -77 11 -110 10
-79 8 -115 -4 -127 -6 -6 -12 9 -17 44 -4 29 -9 62 -10 73 -2 11 -6 38 -10 60
-8 62 -14 87 -21 94 -3 3 -4 -12 0 -34 3 -22 8 -62 11 -88 2 -27 7 -53 10 -58
4 -5 1 -9 -4 -9 -6 0 -11 2 -11 4 0 2 -4 25 -9 52 -5 27 -12 67 -15 89 -4 23
-9 52 -12 65 -3 14 -7 36 -10 50 -25 124 -78 293 -101 319 -7 9 -26 31 -41 50
-33 43 -132 107 -186 123 -87 24 -175 0 -236 -65 -39 -42 -48 -42 -25 2 35 70
141 117 240 109 31 -3 52 -1 48 3 -5 5 -37 11 -72 14 -50 4 -73 1 -110 -15
-39 -17 -43 -17 -25 -2 12 9 30 23 40 30 11 7 13 10 7 7 -7 -3 -13 -2 -13 4 0
6 -11 6 -32 0 -18 -5 -35 -9 -37 -9 -13 0 48 55 74 66 42 19 150 12 205 -13z
m-415 -44 c40 -28 38 -35 -6 -20 -37 13 -66 15 -55 4 4 -5 28 -15 54 -23 84
-27 58 -69 -34 -55 -34 5 -54 16 -84 48 -22 23 -39 46 -37 51 10 31 114 27
162 -5z m5235 11 c0 -3 -14 -22 -31 -43 -35 -42 -69 -63 -118 -70 -39 -7 -53
-17 -22 -17 27 0 58 -15 88 -43 17 -15 20 -24 12 -38 -5 -11 -19 -19 -31 -19
-27 0 -110 83 -102 103 3 8 1 18 -5 22 -6 3 -11 15 -11 25 0 14 10 21 38 25
54 9 64 14 57 24 -3 6 -11 8 -18 6 -7 -2 -25 -6 -42 -10 -29 -6 -28 -5 10 20
34 21 50 25 107 22 38 -1 68 -4 68 -7z m-5206 -138 c9 -14 -63 -101 -90 -108
-37 -9 -61 17 -47 49 17 38 122 83 137 59z m299 -54 c-19 -24 -22 -61 -8 -93
10 -25 28 -40 76 -63 l64 -31 -39 0 c-56 -1 -39 -11 30 -17 72 -6 84 -14 21
-14 -26 0 -47 -4 -47 -10 0 -9 31 -14 75 -11 19 1 19 1 2 -10 -11 -6 -46 -9
-82 -7 -73 4 -78 -6 -8 -18 58 -9 118 -9 156 1 17 5 27 3 27 -4 0 -6 -7 -11
-15 -11 -24 0 -28 -1 -65 -20 -59 -29 -145 -26 -237 9 -148 58 -227 162 -186
247 12 28 13 28 8 4 -2 -14 0 -39 4 -55 5 -17 10 -25 10 -20 1 6 10 -8 21 -30
11 -22 17 -29 13 -15 -5 22 -4 23 11 11 15 -13 16 -12 8 10 -7 22 -8 35 -3 57
2 4 9 -15 17 -42 18 -56 30 -56 15 1 l-10 38 19 -25 c11 -14 20 -29 21 -35 1
-5 5 6 9 25 l7 35 13 -33 c9 -24 15 -30 21 -21 4 7 5 18 1 24 -3 5 2 4 11 -4
16 -12 16 -11 3 20 -12 30 -11 39 5 77 10 23 23 42 30 42 8 0 8 -4 2 -12z
m4445 -47 c6 -16 6 -34 1 -42 -13 -20 -11 -41 3 -33 8 5 9 2 5 -9 -12 -32 13
-17 27 16 l14 32 1 -32 c1 -18 6 -33 11 -33 6 0 10 4 10 9 0 5 3 17 7 27 4 10
2 15 -3 11 -6 -3 -10 3 -11 13 -1 11 2 22 6 24 9 6 12 -11 14 -67 1 -34 2 -37
14 -21 7 10 13 26 13 37 0 10 4 16 9 13 5 -3 7 -15 4 -26 -3 -12 0 -20 6 -20
7 0 9 -6 6 -12 -4 -7 0 -5 8 4 8 10 18 14 23 10 4 -4 3 0 -4 10 -8 10 -9 19
-3 22 5 3 11 0 14 -6 2 -7 7 6 11 30 9 47 25 49 20 2 -11 -93 -132 -199 -250
-216 -83 -13 -256 4 -269 27 -3 4 14 2 38 -3 52 -12 143 -6 160 11 7 7 8 12 2
11 -19 -4 -138 0 -134 4 2 3 24 7 49 10 25 2 46 5 48 5 1 1 2 6 2 11 0 6 -16
10 -37 10 -52 0 -36 9 26 14 64 5 79 16 25 17 l-39 1 50 23 c28 13 63 36 78
52 24 23 27 34 24 66 -6 42 6 41 21 -2z m-4276 -18 c50 -49 49 -62 -3 -57 -84
8 -138 54 -108 90 20 24 68 9 111 -33z m4172 24 c9 -15 6 -23 -21 -46 -18 -14
-46 -28 -63 -29 -17 -1 -36 -3 -42 -5 -16 -3 -19 16 -5 34 19 24 91 70 106 67
8 -2 19 -11 25 -21z m216 -17 c0 -5 -4 -10 -10 -10 -5 0 -10 5 -10 10 0 6 5
10 10 10 6 0 10 -4 10 -10z m-350 -126 c0 -3 -13 -3 -29 -2 -16 1 -28 5 -26 9
5 6 55 0 55 -7z m277 -180 l-14 -27 -5 26 c-3 15 -2 24 2 22 4 -3 11 5 15 18
6 18 8 19 12 5 2 -9 -2 -29 -10 -44z m-4549 -1 c21 -46 21 -47 17 -13 l-5 35
15 -30 16 -30 -4 33 c-5 42 0 41 19 -4 8 -20 18 -34 20 -31 3 3 0 15 -6 27 -6
11 -10 29 -8 38 3 12 11 5 31 -25 15 -23 37 -47 49 -53 l23 -11 -21 18 c-12
10 -24 26 -27 36 -5 14 1 12 29 -9 44 -34 112 -52 175 -47 26 2 50 -1 54 -7 4
-6 -22 -10 -76 -10 -93 0 -100 -6 -18 -16 29 -3 56 -8 59 -11 5 -4 -24 -24
-35 -24 -2 0 -19 -6 -36 -13 -35 -15 -123 -5 -170 19 -65 34 -113 88 -129 146
-13 45 4 34 28 -18z m351 11 c10 -23 9 -24 -32 -24 -23 0 -60 5 -82 12 l-40
11 55 12 c82 16 86 16 99 -11z m4120 -25 c-11 -28 -15 -48 -10 -45 5 4 11 0
14 -6 3 -8 9 -2 15 14 6 14 15 29 21 32 16 11 -15 -56 -37 -79 -30 -31 -105
-52 -171 -48 -31 2 -64 3 -73 4 -18 0 -32 25 -19 33 4 3 37 10 74 16 106 17
141 37 167 99 7 17 18 31 25 31 10 0 8 -13 -6 -51z m-165 21 c40 0 4 -13 -50
-17 -63 -4 -89 1 -79 18 5 6 27 8 59 5 28 -3 60 -5 70 -6z m116 -5 c0 -19 -38
-53 -79 -71 -37 -15 -201 -20 -201 -5 0 14 30 22 48 13 39 -20 158 10 198 48
34 34 34 34 34 15z m66 -37 c-19 -27 -20 -22 -4 23 8 23 13 28 16 17 2 -10 -4
-28 -12 -40z m-676 -152 c0 -2 -9 -6 -20 -9 -11 -3 -18 -1 -14 4 5 9 34 13 34
5z m-30 -40 c0 -2 -7 -6 -15 -10 -8 -3 -15 -1 -15 4 0 6 7 10 15 10 8 0 15 -2
15 -4z m-2965 -115 c39 -18 105 -76 105 -92 0 -4 -8 -7 -17 -7 -10 1 -41 -2
-70 -6 -60 -8 -66 -2 -78 77 -8 54 -3 57 60 28z m2961 -8 c-3 -16 -8 -41 -12
-58 -3 -16 -7 -36 -7 -43 0 -9 -8 -11 -26 -7 -44 12 -55 13 -89 14 -30 1 -32
3 -22 22 18 33 49 59 93 80 58 26 69 25 63 -8z m72 -38 c-1 -14 -6 -25 -11
-25 -5 0 -6 7 -3 16 3 9 6 20 6 25 0 5 2 9 5 9 3 0 4 -11 3 -25z m-25 -82 c-9
-27 -20 -52 -25 -58 -7 -8 1 22 27 93 2 6 6 12 9 12 3 0 -2 -21 -11 -47z
m-2854 -37 c17 -9 31 -18 31 -20 0 -8 -61 2 -75 14 -20 16 -20 -4 0 -24 9 -8
14 -20 13 -27 -2 -7 17 -18 42 -25 39 -11 41 -12 15 -13 -16 0 -46 4 -66 9
-50 14 -111 84 -91 105 11 11 97 -2 131 -19z m2737 12 c10 -10 -69 -87 -99
-96 -59 -18 -89 -23 -83 -14 3 6 22 13 42 17 20 3 33 9 30 12 -3 3 4 19 15 34
23 33 19 36 -17 13 -13 -9 -27 -14 -31 -10 -3 3 -1 6 5 6 7 0 12 5 12 10 0 7
-6 7 -19 0 -25 -13 -38 -13 -24 1 22 22 152 43 169 27z m-2389 -393 c61 -58
57 -69 -14 -40 -49 20 -80 60 -63 80 7 8 14 15 16 15 2 0 30 -25 61 -55z
m1978 45 c9 -14 -19 -55 -49 -75 -13 -9 -39 -18 -57 -20 l-34 -4 57 54 c57 56
72 63 83 45z m201 -107 c-4 -16 -9 -37 -12 -48 -5 -19 -4 -19 7 -1 8 13 13 15
19 7 4 -8 13 0 23 21 11 21 17 26 17 15 0 -10 -7 -31 -15 -47 -9 -17 -11 -30
-6 -30 5 0 17 20 27 45 9 25 21 45 25 45 14 0 -29 -99 -56 -128 -14 -15 -25
-30 -25 -34 0 -11 -81 -55 -125 -67 -82 -23 -156 -24 -245 -1 -47 12 -110 26
-140 32 -74 14 -86 27 -14 16 32 -5 65 -7 73 -5 9 3 4 5 -11 6 -15 0 -30 5
-33 11 -4 6 6 8 24 6 18 -2 28 1 25 6 -4 6 14 7 47 2 106 -15 181 -11 231 14
61 30 132 93 148 132 16 37 24 39 16 3z m-2415 -40 c72 -96 204 -138 338 -108
31 7 72 15 91 19 32 6 33 6 15 -9 -20 -16 -20 -16 2 -10 18 5 22 3 17 -10 -6
-14 -1 -16 25 -12 17 3 33 1 37 -4 3 -5 -1 -9 -8 -10 -21 -1 -51 -7 -162 -34
-57 -14 -128 -25 -157 -25 -78 0 -191 36 -238 76 -41 36 -91 124 -90 158 0 21
0 21 9 1 7 -17 9 -17 9 -2 1 18 21 24 21 6 0 -15 32 -81 36 -76 3 2 -3 23 -11
47 -8 23 -15 43 -15 44 0 1 9 2 19 3 13 1 34 -18 62 -54z m179 16 c33 -16 76
-33 96 -36 45 -7 26 -22 -31 -24 -28 0 -34 -3 -21 -8 10 -4 32 -6 50 -5 29 2
30 1 12 -12 -35 -25 -145 -24 -183 2 -27 18 -28 19 -5 22 27 4 28 10 0 39 -12
13 -16 23 -10 23 7 0 12 -5 12 -11 0 -6 6 -9 12 -7 7 3 19 -2 27 -9 9 -10 17
-11 24 -4 6 6 9 12 6 14 -2 2 -17 13 -33 25 -39 30 -28 28 44 -9z m2260 1 c0
-5 -2 -10 -4 -10 -3 0 -8 5 -11 10 -3 6 -1 10 4 10 6 0 11 -4 11 -10z m-2375
-20 c16 -17 16 -20 3 -15 -9 4 -19 13 -22 21 -7 19 -2 18 19 -6z m2128 2 c-7
-4 -9 -13 -4 -20 6 -10 14 -8 33 7 27 22 45 17 26 -7 -24 -28 -18 -41 14 -30
41 15 46 3 7 -18 -41 -21 -114 -26 -169 -12 -56 15 -50 30 9 22 27 -3 51 -2
54 2 3 5 -7 10 -21 10 -77 3 -78 5 -17 29 60 24 91 32 68 17z m-1463 -297 c6
-19 16 -35 21 -35 6 0 7 5 4 10 -3 6 -2 10 3 10 5 0 12 -14 16 -31 3 -16 12
-37 20 -45 13 -12 15 -11 19 8 2 13 3 1 0 -26 -4 -47 -28 -100 -42 -92 -4 3
-8 35 -9 72 -1 38 -7 71 -12 74 -5 3 -18 27 -29 53 -12 26 -17 45 -12 42 5 -3
15 -21 21 -40z m904 -35 c-15 -45 -24 -92 -24 -132 l0 -63 -24 40 c-25 43 -39
119 -27 148 7 18 8 18 21 1 8 -10 10 -15 4 -11 -6 3 -11 0 -11 -8 0 -22 15
-18 22 5 3 11 10 20 15 20 4 0 15 16 24 35 27 56 27 41 0 -35z m-1025 -65 c19
-19 17 -66 -5 -82 -34 -24 -70 -16 -92 21 -23 38 -20 50 9 35 10 -5 28 -14 39
-19 24 -12 26 -3 3 22 -11 13 -12 18 -3 18 10 0 9 4 -1 16 -12 15 -11 16 11 9
14 -4 31 -13 39 -20z m930 -110 c29 -71 100 -115 186 -115 61 0 102 16 147 59
28 26 35 43 38 86 2 39 22 -13 23 -60 1 -92 -88 -166 -205 -167 -65 -1 -104
12 -165 55 -52 37 -81 93 -89 173 -5 51 -3 64 12 83 l19 22 11 -53 c6 -29 17
-66 23 -83z m275 120 c-13 -10 -14 -14 -5 -15 10 0 11 -3 2 -14 -9 -11 -7 -13
11 -11 13 2 31 6 40 10 14 6 16 2 13 -17 -6 -29 -49 -67 -72 -63 -10 2 -21 4
-25 4 -4 1 -15 12 -24 25 -14 23 -14 28 1 60 14 30 23 36 48 36 29 0 30 -1 11
-15z m-956 -57 c-5 -29 -18 -74 -28 -101 -12 -30 -14 -47 -7 -44 10 3 25 43
55 147 9 31 10 28 6 -25 -7 -105 -74 -205 -145 -221 -145 -31 -247 2 -293 93
-17 34 -20 63 -10 100 7 27 24 21 24 -9 0 -24 70 -95 108 -109 40 -15 112 -13
159 6 48 19 88 70 109 142 18 62 22 73 27 73 2 0 0 -23 -5 -52z"/>
<path d="M3321 5627 c-25 -12 -68 -74 -58 -83 3 -3 15 12 27 34 12 21 34 44
48 49 15 6 23 11 17 12 -5 0 -21 -5 -34 -12z"/>
<path d="M2936 5545 c-3 -8 0 -14 7 -12 7 1 11 -4 10 -10 -2 -7 2 -13 8 -13 6
0 8 7 5 16 -3 9 -6 20 -6 25 0 15 -17 10 -24 -6z"/>
<path d="M2386 5349 c4 -7 44 0 44 7 0 2 -11 3 -24 2 -14 -1 -23 -5 -20 -9z"/>
<path d="M2447 5349 c7 -7 15 -10 18 -7 3 3 -2 9 -12 12 -14 6 -15 5 -6 -5z"/>
<path d="M3965 5290 c32 -11 61 -17 63 -15 8 7 -70 35 -97 34 -17 0 -6 -6 34
-19z"/>
<path d="M4459 4907 c5 -5 19 -7 32 -5 20 3 19 5 -9 9 -20 3 -29 2 -23 -4z"/>
<path d="M5656 4628 c3 -4 17 -8 31 -8 15 0 23 3 19 7 -10 10 -56 12 -50 1z"/>
<path d="M5550 4556 c14 -8 27 -12 29 -10 6 6 -1 11 -29 18 l-25 7 25 -15z"/>
<path d="M206 4632 c-3 -5 1 -9 9 -9 8 0 12 4 9 9 -3 4 -7 8 -9 8 -2 0 -6 -4
-9 -8z"/>
<path d="M2280 4680 c10 -6 11 -10 3 -10 -7 0 -13 -5 -13 -10 0 -6 8 -5 20 2
14 9 16 14 7 20 -7 4 -16 8 -22 8 -5 0 -3 -5 5 -10z"/>
<path d="M2240 4670 c-9 -6 -10 -10 -3 -10 6 0 15 5 18 10 8 12 4 12 -15 0z"/>
<path d="M4575 4540 c3 -5 8 -10 11 -10 2 0 4 5 4 10 0 6 -5 10 -11 10 -5 0
-7 -4 -4 -10z"/>
<path d="M4594 4260 c0 -129 2 -182 3 -117 2 64 2 170 0 235 -1 64 -3 11 -3
-118z"/>
<path d="M4591 4004 c0 -11 3 -14 6 -6 3 7 2 16 -1 19 -3 4 -6 -2 -5 -13z"/>
<path d="M4609 3738 c-6 -20 -5 -38 1 -48 5 -7 7 0 6 19 -1 26 -4 39 -7 29z"/>
<path d="M4605 3660 c3 -5 8 -10 11 -10 2 0 4 5 4 10 0 6 -5 10 -11 10 -5 0
-7 -4 -4 -10z"/>
<path d="M4611 3604 c0 -11 3 -14 6 -6 3 7 2 16 -1 19 -3 4 -6 -2 -5 -13z"/>
<path d="M4605 3571 c-3 -5 -2 -12 3 -15 5 -3 9 1 9 9 0 17 -3 19 -12 6z"/>
<path d="M1285 3103 c3 -88 13 -174 21 -182 2 -3 1 51 -2 120 -4 68 -7 130 -7
137 0 6 -3 12 -7 12 -4 0 -6 -39 -5 -87z"/>
<path d="M1310 2760 c0 -5 5 -10 11 -10 5 0 7 5 4 10 -3 6 -8 10 -11 10 -2 0
-4 -4 -4 -10z"/>
<path d="M1324 2645 c4 -44 9 -87 11 -95 2 -8 6 -33 10 -54 3 -22 8 -42 11
-45 5 -5 -1 69 -11 119 -2 14 -7 52 -10 85 -3 33 -9 62 -12 65 -3 3 -2 -31 1
-75z"/>
<path d="M4569 2593 c0 -10 -2 -25 -4 -33 -7 -36 -15 -89 -20 -135 -4 -43 -3
-41 9 17 18 86 29 168 22 168 -3 0 -6 -8 -7 -17z"/>
<path d="M1353 2423 c3 -10 11 -42 17 -71 7 -28 16 -55 21 -58 12 -7 12 -4 -6
46 -8 23 -15 55 -15 71 0 16 -5 29 -11 29 -6 0 -8 -8 -6 -17z"/>
<path d="M4523 2325 c-3 -9 -3 -18 -1 -21 3 -3 8 4 11 16 6 23 -1 27 -10 5z"/>
<path d="M4480 2193 c-18 -54 -52 -142 -75 -195 -24 -54 -39 -96 -35 -93 20
12 157 371 146 382 -2 2 -18 -40 -36 -94z"/>
<path d="M1390 2279 c0 -11 59 -179 69 -196 9 -15 10 -15 11 -2 0 9 -3 19 -7
23 -4 3 -8 12 -9 19 -8 41 -64 178 -64 156z"/>
<path d="M1470 2055 c0 -3 4 -13 9 -23 5 -9 31 -64 59 -122 59 -122 208 -353
289 -449 155 -184 316 -351 433 -451 35 -30 86 -74 113 -98 141 -124 365 -267
524 -332 l68 -28 115 60 c163 86 259 143 305 184 37 32 35 31 -25 -9 -111 -74
-373 -211 -401 -210 -60 2 -465 246 -589 355 -19 17 -64 56 -99 87 -137 119
-344 335 -432 448 -97 124 -243 353 -301 471 -55 110 -68 133 -68 117z"/>
<path d="M4283 1769 c-80 -125 -145 -223 -152 -229 -4 -3 -22 -25 -41 -50 -33
-44 -48 -61 -160 -190 -30 -35 -57 -67 -58 -72 -3 -7 72 70 137 142 84 91 244
319 319 453 39 68 14 38 -45 -54z"/>
<path d="M3744 1112 c-27 -26 -86 -78 -129 -117 -117 -103 -158 -144 -90 -89
33 27 65 54 71 59 6 6 37 33 69 60 72 61 107 95 124 118 22 28 9 19 -45 -31z"/>
<path d="M3439 843 c-13 -16 -12 -17 4 -4 16 13 21 21 13 21 -2 0 -10 -8 -17
-17z"/>
<path d="M2812 4291 c-13 -14 -29 -35 -36 -45 -12 -18 -17 -19 -54 -8 -59 18
-151 17 -197 -2 -42 -18 -85 -53 -85 -69 0 -5 12 2 26 17 50 49 160 66 248 36
39 -12 52 -36 14 -25 -13 4 -27 8 -33 9 -16 2 -15 -150 1 -183 13 -27 44 -168
44 -204 0 -9 -3 -16 -7 -16 -22 4 -33 -4 -53 -36 -12 -19 -28 -35 -35 -35 -46
0 -19 -88 46 -150 47 -45 50 -51 43 -84 -3 -20 -10 -38 -14 -41 -8 -5 -108
130 -133 181 -17 34 -16 39 35 120 39 61 56 131 52 205 -11 174 -24 204 -86
192 -18 -3 -27 0 -32 13 -3 9 -5 18 -4 19 2 1 17 10 33 19 l30 17 -30 -6 c-50
-10 -98 -56 -123 -120 -18 -44 -21 -63 -14 -79 6 -12 13 -41 16 -66 24 -188
101 -377 200 -488 30 -34 65 -82 76 -106 28 -62 58 -180 64 -251 l6 -60 -41
63 c-40 64 -91 118 -169 182 -23 19 -39 35 -34 37 5 2 35 -8 68 -21 61 -25
126 -77 126 -102 0 -8 5 -14 11 -14 12 0 9 4 -42 81 -21 31 -57 76 -80 100
-131 136 -210 343 -206 539 1 54 -1 96 -5 93 -5 -2 -8 -21 -8 -41 -1 -29 -3
-33 -10 -20 -19 32 -11 170 11 184 12 7 12 24 0 24 -5 0 -12 -13 -16 -30 -8
-36 -17 -38 -34 -6 -7 13 -28 30 -47 39 l-33 16 -7 -33 c-3 -19 -4 -42 -1 -53
3 -11 5 -6 6 13 1 38 9 46 32 33 29 -15 46 -58 53 -129 l6 -65 -25 55 c-20 42
-25 48 -22 25 2 -16 12 -48 21 -70 l17 -40 -35 39 c-18 22 -39 58 -44 80 -8
32 -10 35 -9 11 2 -33 7 -31 -103 -34 -29 -1 -54 -9 -70 -22 -23 -19 -23 -19
-2 -9 32 16 38 -7 17 -71 -28 -84 -67 -139 -99 -139 -8 0 4 54 15 65 5 5 9 15
9 23 0 9 -7 6 -20 -9 l-19 -24 -1 26 c0 26 31 76 57 92 20 12 16 29 -4 18 -10
-5 -35 -17 -57 -27 -25 -12 -44 -31 -52 -51 -16 -38 -18 -56 -3 -30 6 9 14 15
18 12 5 -2 11 4 14 15 3 11 10 20 16 20 8 0 7 -10 -2 -32 -25 -62 7 -132 91
-200 31 -25 100 -58 218 -104 164 -63 189 -77 143 -80 -31 -2 -32 -3 -19 -19
23 -27 3 -28 -87 -2 -48 14 -90 24 -91 22 -2 -2 33 -15 77 -29 94 -30 145 -54
182 -88 23 -20 128 -155 167 -214 11 -17 12 -17 6 6 l-7 25 22 -20 c24 -20 78
-126 86 -163 2 -12 7 -27 10 -32 3 -6 1 -10 -4 -10 -15 0 -71 80 -71 101 0 25
-21 69 -33 69 -6 0 -6 -5 0 -12 12 -16 24 -48 18 -48 -2 0 -16 17 -30 37 -32
48 -32 35 0 -23 26 -47 14 -62 -20 -24 -10 11 -21 17 -25 15 -12 -7 -38 27
-46 60 -25 103 -105 214 -171 236 -54 18 -92 6 -230 -70 -71 -38 -149 -75
-175 -81 -53 -14 -63 -30 -20 -31 15 0 34 -2 42 -3 20 -4 127 -16 204 -22 138
-11 356 -94 392 -149 22 -34 78 -176 89 -229 5 -22 13 -31 20 -24 3 3 -1 25
-9 49 -9 24 -16 50 -16 57 0 7 -9 32 -19 55 -11 24 -23 56 -27 72 l-7 29 28
-22 c33 -26 75 -84 75 -104 0 -7 5 -20 11 -28 8 -12 9 -7 6 18 -4 36 -2 38 18
19 21 -21 30 -75 29 -164 0 -46 3 -83 7 -83 9 0 5 336 -4 380 -9 39 -19 102
-22 135 -6 58 -16 101 -44 180 -26 77 -27 82 -13 138 8 32 16 56 19 54 2 -3 6
-26 10 -53 3 -27 7 -56 9 -64 1 -8 3 -27 3 -42 1 -16 6 -28 12 -28 6 0 8 8 5
18 -2 9 -7 49 -11 87 -3 39 -7 84 -9 100 -2 17 -7 57 -11 90 -4 33 -9 69 -10
80 -23 164 -23 170 5 240 24 58 24 59 32 29 34 -117 44 -174 29 -174 -6 0 -11
7 -11 15 0 8 -3 15 -8 15 -4 0 -6 -18 -4 -40 l4 -40 34 30 c44 38 65 38 102 0
17 -16 32 -30 35 -30 2 0 7 18 11 39 3 22 8 48 11 58 3 10 -4 0 -15 -22 l-20
-40 5 45 c2 25 10 63 16 85 7 22 12 43 11 48 -1 4 2 7 6 7 15 0 46 -85 46
-125 0 -22 -3 -65 -7 -95 -20 -153 -29 -297 -18 -280 5 8 7 18 5 22 -3 4 0 16
5 25 9 15 11 13 11 -12 1 -16 3 -39 6 -50 9 -42 5 -73 -19 -166 -14 -53 -28
-119 -32 -145 -3 -27 -8 -65 -11 -84 -8 -57 -16 -446 -8 -438 4 4 8 60 10 125
4 141 6 150 39 186 37 39 45 34 29 -20 -27 -88 -38 -189 -22 -199 4 -3 8 14 9
38 3 142 34 220 109 271 37 26 42 21 21 -20 -30 -61 -69 -165 -76 -205 -8 -43
-8 -49 2 -45 5 1 6 8 5 16 -6 23 39 133 77 190 25 38 55 65 100 92 36 21 66
37 69 35 2 -3 14 -1 27 4 58 22 210 46 350 55 70 4 135 17 130 25 -3 5 -31 14
-63 21 -53 11 -98 32 -255 119 -64 35 -118 43 -157 24 -58 -29 -120 -115 -150
-209 -17 -54 -33 -70 -71 -73 -30 -2 -32 -1 -17 15 40 47 24 42 -23 -7 -30
-31 -51 -51 -46 -46 4 6 7 17 7 25 0 8 -10 3 -25 -15 -35 -40 -32 -12 5 52 28
49 101 119 113 108 3 -3 1 -19 -4 -37 -13 -45 3 -24 51 68 22 44 53 93 68 108
34 35 104 69 212 100 47 13 126 45 175 69 50 24 93 45 98 45 4 1 20 4 35 7 15
4 38 9 52 12 14 3 57 8 96 11 57 4 72 3 77 -9 4 -11 -3 -15 -25 -16 -35 -1
-228 -60 -243 -75 -12 -11 7 -6 115 28 107 34 146 39 180 25 17 -7 30 -17 30
-22 0 -5 -7 -5 -17 0 -24 13 -33 11 -233 -51 -80 -25 -166 -48 -192 -52 -26
-4 -55 -13 -64 -20 -16 -11 -13 -15 27 -44 100 -73 227 -115 335 -109 94 4
121 23 153 107 20 50 27 59 34 45 19 -33 9 -76 -24 -110 -17 -18 -33 -43 -34
-56 -1 -13 -3 -26 -4 -30 0 -4 -19 -12 -42 -18 -23 -6 -39 -13 -37 -15 2 -2
28 -6 58 -9 53 -6 94 -25 55 -27 -19 0 -19 -1 0 -9 12 -5 -11 -7 -60 -3 -140
9 -222 9 -300 0 -81 -10 -87 -13 -40 -20 23 -3 36 -15 60 -54 57 -94 148 -200
196 -227 114 -64 229 1 229 128 0 25 4 46 9 46 10 0 32 -56 25 -62 -2 -3 -6
-24 -9 -48 -6 -47 -34 -94 -68 -112 -29 -16 -124 -37 -146 -33 -32 6 -86 33
-112 57 -15 12 -61 68 -104 123 -125 161 -152 178 -197 125 -15 -18 -38 -61
-51 -94 -24 -59 -27 -62 -98 -99 -41 -21 -65 -35 -54 -31 77 26 184 54 206 54
35 0 95 -22 204 -75 49 -24 114 -51 143 -60 29 -9 76 -27 105 -40 29 -13 68
-30 88 -38 28 -12 40 -25 55 -61 10 -25 22 -46 26 -46 8 0 -4 36 -23 71 -9 17
-6 21 20 30 35 12 38 25 15 54 -16 20 -16 20 -10 -1 5 -17 1 -23 -16 -28 -38
-10 -72 -6 -92 9 -19 15 -19 15 5 15 l24 1 -25 14 -25 13 27 7 c15 4 42 2 59
-4 26 -9 29 -8 20 3 -9 10 -5 26 14 67 14 30 25 63 25 74 0 38 12 63 30 68 21
5 21 12 -4 84 -12 35 -30 63 -53 82 l-36 30 31 26 c41 34 40 57 -2 98 -29 27
-34 39 -33 73 0 27 -6 51 -21 71 -13 19 -22 46 -22 68 0 32 -8 45 -52 89 l-53
52 17 50 c10 27 17 63 15 79 -2 26 -5 30 -27 26 -14 -1 -36 -9 -50 -16 -20
-10 -32 -10 -60 0 -32 11 -35 16 -46 69 -13 63 -31 88 -77 107 -18 7 -45 23
-62 35 -37 27 -96 44 -156 44 l-46 0 4 53 c2 28 0 65 -6 80 -11 28 -11 28 -40
11 -15 -9 -36 -30 -46 -47 l-18 -31 -13 38 c-19 52 -52 96 -83 107 -14 6 -27
10 -28 10 -2 0 -20 6 -40 13 -47 16 -103 13 -162 -10 -43 -16 -45 -16 -55 1
-16 25 -55 65 -66 65 -5 0 -3 -19 5 -41 16 -45 20 -134 6 -125 -4 3 -14 25
-21 50 -6 24 -26 61 -43 82 l-31 37 -37 -79 -37 -79 -1 57 c-1 31 3 68 9 82
13 35 0 38 -28 7z m4 -58 c-3 -21 -8 -67 -12 -103 -7 -66 -39 -170 -53 -170
-16 0 -4 184 14 230 16 40 42 80 52 80 2 0 1 -17 -1 -37z m134 -59 c0 -24 -36
-156 -65 -239 -2 -5 -4 15 -6 45 l-2 55 -6 -45 -6 -45 -11 30 c-19 53 -1 161
43 265 l14 35 19 -35 c11 -19 19 -49 20 -66z m126 -28 c19 -72 22 -216 5 -216
-18 0 -41 69 -46 141 -3 41 -7 101 -10 134 l-6 60 22 -32 c11 -18 27 -57 35
-87z m252 62 c65 -32 84 -73 87 -189 2 -51 -1 -86 -6 -83 -5 3 -7 9 -5 13 7
11 -26 117 -52 167 -12 23 -35 53 -52 67 -52 44 -143 45 -191 1 -13 -12 -19
-12 -24 -3 -9 13 28 45 60 53 44 10 137 -3 183 -26z m-72 -23 c21 -15 18 -17
-38 -29 -38 -8 -47 -49 -45 -191 l2 -120 44 -89 c38 -75 43 -93 34 -115 -15
-40 -136 -202 -144 -194 -4 5 -10 27 -14 50 -6 36 -3 44 16 60 60 49 80 71 93
104 19 47 8 63 -46 68 -5 1 -8 9 -8 19 -1 22 -20 46 -43 55 -16 6 -18 14 -12
54 3 26 8 49 10 52 1 3 6 22 9 41 3 19 8 46 12 60 3 14 8 58 10 99 1 43 8 77
15 81 20 13 86 9 105 -5z m-709 -52 c15 -55 8 -146 -15 -193 l-21 -45 4 65 c4
64 -4 58 -20 -14 -11 -51 -23 -9 -19 66 4 67 33 148 54 148 5 0 13 -12 17 -27z
m178 -22 c-2 -9 -4 -29 -5 -46 -1 -41 -18 -12 -21 36 -3 58 -1 65 15 44 7 -10
12 -26 11 -34z m589 30 c21 -23 41 -119 32 -154 -3 -15 -10 -26 -14 -23 -4 2
-6 -14 -4 -37 3 -41 3 -42 -12 -17 -24 38 -38 98 -42 169 -4 85 6 100 40 62z
m-188 -32 c0 -19 -2 -43 -5 -53 -4 -20 -4 -20 -12 0 -13 33 -11 96 4 91 6 -2
12 -19 13 -38z m128 8 c-1 -12 -3 -38 -4 -57 l-1 -35 -29 34 c-29 34 -30 56
-3 78 21 16 40 6 37 -20z m271 -61 c-6 -44 -41 -109 -66 -125 -16 -9 -16 -7 1
32 11 23 19 49 19 57 0 8 -8 -1 -16 -20 -19 -42 -28 -26 -18 36 4 29 17 57 38
81 l31 35 8 -28 c5 -16 6 -46 3 -68z m-895 43 c0 -10 -11 -31 -25 -46 l-24
-28 -1 30 c-1 17 -3 38 -5 47 -4 23 25 40 42 26 7 -6 13 -19 13 -29z m351 34
c0 -5 3 -19 5 -33 6 -35 6 -91 0 -115 -2 -11 -5 -24 -6 -30 -1 -5 -6 1 -11 15
-6 20 -8 16 -5 -18 3 -42 -10 -47 -17 -7 -1 11 -5 25 -9 30 -14 24 14 165 34
165 4 0 8 -3 9 -7z m-334 -205 c-7 -83 -60 -211 -86 -206 -26 5 -23 39 8 101
15 31 25 57 21 57 -3 0 -17 -22 -30 -50 -26 -56 -41 -57 -34 -2 5 45 44 126
81 169 24 26 29 29 37 16 5 -9 6 -47 3 -85z m593 56 c34 -50 56 -104 65 -153
7 -41 -6 -58 -19 -25 -4 9 -9 15 -11 12 -3 -3 1 -20 9 -39 15 -37 7 -67 -14
-54 -14 9 -57 102 -65 142 -11 52 -17 124 -11 139 8 22 19 17 46 -22z m-962
-3 c12 -1 22 -7 22 -16 0 -9 -10 -15 -22 -16 -25 -1 -49 -5 -84 -13 -15 -4
-24 -1 -28 10 -10 26 10 41 51 38 21 -1 48 -2 61 -3z m1380 -20 c4 -23 2 -23
-50 -16 -100 14 -113 19 -88 36 8 5 42 8 75 7 55 -3 60 -5 63 -27z m-265 -85
c0 -34 -3 -72 -6 -86 -9 -38 -63 -211 -76 -244 -13 -33 -85 -136 -124 -178
-51 -55 -117 -140 -117 -151 0 -7 6 -4 12 7 28 49 72 81 138 101 20 6 16 0
-20 -31 -81 -70 -131 -127 -152 -174 -14 -32 -33 -42 -24 -12 2 9 7 39 11 66
16 127 43 192 115 271 27 30 60 72 73 92 57 93 143 335 147 413 1 23 1 24 12
6 6 -11 11 -47 11 -80z m348 67 c32 -27 59 -77 59 -110 0 -14 -6 -12 -26 12
l-26 30 27 -48 c34 -62 21 -81 -23 -36 -33 34 -62 104 -62 151 0 35 10 35 51
1z m-806 -52 l13 -50 -34 1 c-24 1 -33 5 -30 14 3 7 10 31 16 54 6 23 14 40
16 37 3 -3 11 -28 19 -56z m623 7 c2 -18 14 -57 28 -87 l25 -55 -26 -21 c-26
-23 -36 -71 -22 -111 6 -17 0 -22 -45 -38 -29 -10 -84 -32 -122 -48 -38 -15
-70 -27 -71 -26 -2 2 7 26 18 55 20 47 26 53 64 62 68 18 143 98 143 155 0 23
-67 21 -107 -4 -36 -22 -49 -14 -28 17 10 14 22 19 39 16 28 -6 81 39 73 60
-17 47 -17 55 0 59 26 6 28 3 31 -34z m-1298 15 c0 -10 -13 -40 -29 -68 -69
-123 -68 -121 -118 -131 -36 -7 -37 15 -1 50 18 18 40 41 48 52 14 19 14 19
-8 0 -28 -24 -28 -8 -1 45 27 54 109 92 109 52z m52 11 c3 -3 1 -22 -4 -42 -9
-33 -8 -38 18 -60 21 -19 35 -23 61 -19 30 5 33 3 33 -18 0 -19 -4 -23 -17
-18 -15 5 -14 2 3 -18 12 -13 25 -34 29 -47 7 -23 7 -23 -24 -7 -42 21 -39 11
5 -19 43 -29 31 -42 -17 -18 -32 16 -99 93 -99 113 0 5 10 14 23 19 21 8 21 9
-5 9 -34 1 -39 -15 -19 -59 25 -54 52 -81 106 -105 l50 -22 -70 -12 c-45 -8
-84 -9 -110 -4 -39 9 -40 9 -36 52 2 30 -3 48 -15 62 -17 19 -17 22 9 73 15
29 27 57 27 62 0 5 5 26 11 47 9 33 26 46 41 31z m1540 -51 c40 -68 23 -173
-40 -251 -40 -49 -146 -105 -277 -147 -84 -26 -120 -31 -110 -15 5 8 -3 13
-25 12 -3 0 -25 -3 -49 -7 -56 -9 -48 6 16 30 310 113 406 167 438 246 22 55
22 107 1 149 -9 18 -16 35 -16 38 0 12 47 -29 62 -55z m-204 27 c12 -11 29
-34 37 -51 16 -30 16 -30 -4 -19 -31 16 -26 9 29 -51 27 -30 50 -57 50 -61 0
-5 -11 -8 -25 -8 -51 0 -141 110 -152 188 -3 17 1 22 20 22 13 0 33 -9 45 -20z
m-1266 -17 c46 -49 3 -95 -48 -52 -17 14 -18 33 -4 60 14 25 21 24 52 -8z
m1119 20 c0 -5 2 -17 4 -29 3 -14 -4 -25 -23 -36 -53 -32 -80 21 -29 57 23 16
47 20 48 8z m-371 -152 c0 -9 -13 -25 -33 -40 -17 -13 -18 -12 -15 25 4 46 18
61 36 37 6 -9 12 -19 12 -22z m-382 -14 c4 -41 -3 -45 -36 -21 -25 17 -28 34
-10 52 23 23 43 9 46 -31z m782 32 c0 -42 -81 -119 -125 -119 -15 0 -11 6 18
27 45 32 49 50 6 28 -40 -21 -49 -12 -18 21 36 38 119 68 119 43z m503 -85
c-20 -43 -34 -60 -51 -62 -13 -2 -24 3 -28 12 -9 24 14 82 39 94 22 11 59 20
65 16 2 -1 -10 -28 -25 -60z m-100 44 c15 -11 15 -18 5 -51 -10 -32 -15 -38
-37 -35 -20 2 -27 9 -29 30 -4 32 13 68 31 68 7 0 21 -6 30 -12z m-258 -20
c19 -13 35 -28 35 -34 0 -14 -72 -54 -98 -54 -34 0 -44 60 -15 92 21 24 36 23
78 -4z m-1461 -4 c20 -19 21 -63 2 -70 -13 -5 -96 31 -96 41 0 3 66 42 77 45
1 0 9 -7 17 -16z m976 -1 c0 -37 -70 -133 -96 -133 -26 0 -23 20 8 57 32 37
32 37 6 20 -27 -17 -28 -17 -28 0 0 22 9 35 37 54 27 19 73 20 73 2z m-464
-15 c6 -7 15 -24 19 -38 3 -14 3 -20 -2 -14 -4 6 -19 17 -33 24 -20 10 -18 5
13 -27 42 -44 45 -53 19 -53 -24 0 -67 46 -87 94 l-16 39 37 -6 c21 -4 43 -12
50 -19z m-241 -109 c4 -23 -51 -38 -94 -27 -40 11 -31 26 17 30 19 1 36 6 39
11 8 13 36 3 38 -14z m35 -74 c0 -11 -5 -11 -31 2 -22 11 -27 18 -18 24 16 10
49 -7 49 -26z m1538 -32 c-14 -16 -31 -42 -39 -60 -11 -27 -17 -31 -40 -26
-15 3 -36 0 -49 -7 -25 -13 -51 -67 -42 -88 9 -24 -19 -30 -64 -15 -24 8 -44
17 -44 19 0 3 16 12 35 20 19 8 35 18 35 23 0 5 -16 21 -36 36 l-37 28 34 16
c32 15 181 65 224 74 45 10 49 7 23 -20z m66 -52 c-4 -39 -38 -131 -49 -131
-8 0 1 55 11 71 4 7 3 10 -4 5 -6 -3 -18 -29 -28 -58 -18 -56 -36 -49 -30 13
9 94 18 119 49 144 28 22 33 23 43 10 7 -9 10 -33 8 -54z m-1591 27 c12 -6 40
-29 62 -51 l40 -39 -32 16 c-42 21 -42 8 0 -21 17 -13 26 -23 19 -23 -36 0
-162 91 -162 116 0 17 43 18 73 2z m857 4 c0 -11 -52 -46 -115 -78 -63 -31
-67 -32 -42 -9 30 27 28 32 -6 14 -20 -11 -20 -10 3 16 26 28 54 43 105 54 35
8 55 9 55 3z m373 -61 c13 -5 32 -17 41 -27 14 -14 15 -19 4 -25 -21 -14 -87
-10 -118 6 -35 18 -38 25 -10 20 11 -2 22 0 25 6 4 5 -6 9 -20 9 -15 0 -24 4
-20 10 8 13 66 13 98 1z m221 -34 c20 -15 27 -67 10 -84 -19 -20 -62 -16 -74
6 -16 31 -12 59 12 75 27 19 30 19 52 3z m-1551 -27 c23 -18 25 -24 15 -50 -5
-17 -12 -30 -14 -30 -2 0 -31 18 -64 39 -53 35 -59 41 -43 50 29 17 78 13 106
-9z m1054 9 c27 -10 28 -11 8 -26 -11 -8 -32 -21 -47 -29 -28 -15 -28 -14 -28
20 0 24 5 36 18 39 9 3 18 5 19 6 1 0 14 -4 30 -10z m-1200 -89 c-43 -74 -51
-78 -130 -74 -40 2 -81 6 -92 8 -11 2 -22 5 -25 5 -3 1 27 16 65 34 39 17 97
46 130 64 53 27 61 29 66 15 4 -10 -2 -33 -14 -52z m1113 25 c0 -11 -10 -40
-21 -65 -16 -35 -22 -41 -29 -30 -7 11 -10 7 -10 -16 0 -17 -7 -37 -15 -44
-12 -10 -15 -8 -19 12 -12 63 3 108 52 161 27 29 42 23 42 -18z m251 -17 c60
-29 109 -56 109 -59 0 -8 -56 -19 -112 -24 -34 -3 -39 1 -77 51 -37 50 -51 84
-34 84 3 0 55 -24 114 -52z m-1262 -5 c39 -36 82 -113 62 -113 -5 0 -21 14
-35 31 -27 32 -33 31 -16 -2 8 -14 7 -19 -3 -19 -19 0 -56 37 -62 63 -23 88
-10 97 54 40z m1119 -20 c-11 -51 -32 -83 -56 -83 -14 0 -14 10 3 55 6 15 3
14 -11 -5 -45 -61 -64 -74 -64 -46 0 23 74 115 100 124 36 13 39 8 28 -45z
m-994 8 c13 -27 15 -99 2 -120 -12 -19 -26 -2 -26 30 0 17 -4 28 -9 25 -15
-10 -30 82 -15 97 11 11 35 -5 48 -32z m1692 4 c24 -24 25 -28 11 -48 -28 -43
-107 -25 -107 24 0 22 16 34 23 17 3 -7 6 -3 6 10 1 30 35 29 67 -3z m-1889
-53 l13 -32 -32 5 c-41 8 -41 7 -27 39 15 33 29 29 46 -12z m1242 20 c12 -22
3 -37 -26 -44 -21 -5 -22 -3 -17 20 12 48 26 56 43 24z m-999 -105 c0 -10 -4
-15 -10 -12 -5 3 -10 18 -10 33 0 21 2 24 10 12 5 -8 10 -23 10 -33z m1662
-14 c27 -29 56 -108 44 -120 -8 -9 -64 45 -82 79 -18 34 -18 68 -1 68 7 0 25
-12 39 -27z m-180 0 c21 -19 23 -36 6 -51 -10 -7 -23 -2 -48 19 -29 25 -32 31
-20 39 22 14 41 12 62 -7z m-95 -27 c53 -26 130 -92 120 -102 -29 -29 -194 23
-242 76 -28 31 -13 33 50 5 72 -32 84 -25 16 10 -52 26 -61 45 -18 41 12 -2
46 -15 74 -30z m144 -4 c0 -13 3 -12 11 6 13 26 18 27 43 8 15 -10 19 -27 20
-74 2 -55 0 -60 -15 -52 -10 5 -25 28 -34 50 -9 22 -18 40 -20 40 -8 0 13 -62
33 -96 l21 -35 -26 -9 c-14 -6 -28 -10 -32 -10 -4 0 -24 -16 -44 -35 -20 -19
-41 -35 -47 -35 -21 0 -169 166 -158 177 2 2 31 -10 63 -27 46 -25 69 -31 109
-29 80 4 92 14 58 51 -13 15 -14 23 -5 43 6 14 9 32 5 42 -4 11 -3 14 5 9 7
-4 12 -15 13 -24z m-407 -43 c14 -11 26 -29 26 -40 0 -26 -41 -45 -68 -30 -24
13 -37 58 -21 77 16 19 32 18 63 -7z m-49 -90 c8 -1 21 -2 28 -3 17 -3 50 14
60 31 7 11 23 -5 67 -64 32 -43 57 -79 55 -80 -1 -2 -30 9 -66 23 -35 14 -71
27 -79 29 -8 2 -33 11 -55 20 -22 10 -50 21 -62 26 -20 7 -22 11 -11 34 11 25
11 25 30 5 10 -11 25 -21 33 -21z m535 -53 c0 -24 -66 -69 -90 -61 -12 4 -27
1 -35 -5 -24 -20 -18 7 7 32 20 20 78 47 106 48 6 0 12 -7 12 -14z"/>
<path d="M3310 4024 c0 -10 5 -26 10 -34 8 -11 9 -8 6 14 -6 34 -16 47 -16 20z"/>
<path d="M2350 3786 c0 -2 7 -7 16 -10 8 -3 12 -2 9 4 -6 10 -25 14 -25 6z"/>
<path d="M3965 3649 c-4 -6 -5 -12 -2 -15 2 -3 7 2 10 11 7 17 1 20 -8 4z"/>
<path d="M4180 3101 c0 -6 4 -13 10 -16 6 -3 7 1 4 9 -7 18 -14 21 -14 7z"/>
<path d="M2806 3877 c3 -10 9 -15 12 -12 3 3 0 11 -7 18 -10 9 -11 8 -5 -6z"/>
<path d="M1941 3783 c0 -7 -18 -21 -39 -32 -35 -18 -41 -18 -54 -5 -8 9 -34
18 -57 21 -39 5 -41 4 -41 -20 0 -15 9 -51 21 -81 11 -31 18 -59 16 -63 -3 -5
36 -9 86 -10 96 -2 103 -4 280 -78 49 -20 90 -35 93 -33 2 3 -31 19 -74 38
-150 65 -204 125 -225 250 -2 14 -5 19 -6 13z m-109 -53 c30 -23 51 -69 46
-101 -3 -22 -3 -23 -22 -3 -17 17 -19 17 -13 2 3 -10 3 -18 -2 -18 -29 0 -71
72 -71 121 0 25 30 24 62 -1z m108 -11 c22 -40 22 -67 0 -79 -26 -14 -36 -7
-50 36 -9 27 -9 38 0 49 17 21 37 19 50 -6z m44 -104 c4 -12 -3 -15 -34 -15
-43 0 -55 16 -17 23 40 8 45 7 51 -8z"/>
<path d="M2865 3767 c-26 -40 -32 -128 -21 -297 3 -52 8 -140 12 -195 7 -122
12 -166 19 -173 3 -3 5 35 4 84 -1 137 -2 133 17 106 8 -12 12 -27 9 -32 -3
-6 -2 -10 4 -10 5 0 15 16 21 35 18 55 30 51 27 -10 -2 -30 0 -55 5 -55 4 0 8
17 9 38 0 20 2 57 5 82 11 103 10 361 -2 388 -26 63 -80 82 -109 39z m84 -39
c6 -17 11 -58 10 -92 l-1 -61 -17 55 -17 55 -32 -50 -32 -50 0 50 c0 67 16
123 38 127 28 7 40 -2 51 -34z m-9 -190 c7 -40 14 -82 16 -93 5 -25 -23 -125
-35 -125 -5 0 -9 41 -10 92 -2 124 -11 126 -12 2 l0 -99 -16 40 c-22 56 -21
159 2 222 24 67 38 57 55 -39z"/>
<path d="M2990 3751 c0 -6 4 -13 10 -16 6 -3 7 1 4 9 -7 18 -14 21 -14 7z"/>
<path d="M1727 3546 c-37 -30 -45 -61 -40 -152 5 -87 -7 -114 -47 -114 -21 0
-60 -45 -60 -70 0 -9 11 -27 25 -40 l24 -23 -25 -30 c-14 -16 -34 -47 -45 -69
-23 -45 -30 -112 -11 -113 6 0 12 -2 12 -5 -1 -14 35 -120 50 -151 l19 -36
-30 -25 c-37 -33 -37 -56 0 -69 22 -8 28 -15 24 -27 -4 -9 -10 -19 -14 -22
-14 -10 -16 -65 -4 -100 7 -19 9 -44 5 -55 -15 -41 14 -147 43 -158 8 -3 21 7
32 26 l19 31 13 -32 c12 -29 18 -33 46 -31 18 2 53 18 80 36 57 40 62 40 65 8
3 -34 38 -101 56 -108 11 -4 22 10 41 48 27 57 28 110 5 181 -14 42 0 72 71
148 56 61 74 70 59 30 -12 -31 -12 -34 -1 -34 5 0 12 15 15 34 4 19 14 40 23
47 15 13 16 11 9 -11 -4 -14 -10 -36 -12 -50 -4 -19 -1 -17 11 9 8 18 15 40
15 47 0 20 20 17 22 -3 4 -55 -8 -105 -34 -133 -16 -18 -22 -19 -29 -8 -5 7
-9 21 -9 31 0 9 -4 17 -9 17 -5 0 -4 -17 1 -40 6 -22 16 -40 23 -40 38 0 81
106 72 180 l-6 47 47 16 c92 30 204 4 269 -63 67 -69 77 -124 78 -425 0 -331
-9 -343 -342 -468 -67 -25 -161 -65 -208 -88 -72 -34 -92 -40 -123 -34 -55 10
-27 -14 35 -30 62 -16 94 -12 228 30 112 34 175 49 175 40 0 -2 -24 -16 -52
-30 -59 -29 -76 -41 -98 -69 -14 -18 -13 -19 5 -12 33 13 158 47 194 53 40 6
41 9 -36 -89 -44 -57 -126 -208 -117 -217 3 -3 15 8 27 24 32 45 149 158 209
203 53 40 138 85 145 78 6 -5 -31 -39 -97 -89 -30 -23 -66 -52 -80 -65 l-25
-24 35 15 c110 46 174 82 214 122 49 50 56 53 56 28 1 -23 59 -133 60 -113 3
50 15 103 37 158 21 52 29 62 50 62 20 0 29 -11 54 -65 18 -37 31 -83 32 -110
1 -25 5 -45 9 -45 13 0 49 70 60 118 l12 51 53 -59 c40 -44 74 -69 138 -101
47 -23 87 -40 89 -38 3 2 -33 36 -79 74 -47 39 -80 71 -75 73 5 2 46 -18 91
-45 76 -45 125 -90 227 -208 35 -40 42 -45 37 -25 -14 54 -87 188 -129 235
-24 27 -43 51 -42 53 9 8 139 -49 211 -93 129 -79 143 -72 46 24 -63 63 -87
92 -63 77 5 -3 19 -7 33 -10 13 -2 49 -11 80 -19 67 -18 179 -11 179 11 0 10
-252 130 -320 152 -249 83 -299 115 -331 220 l-7 25 -1 -28 c-2 -61 65 -154
130 -181 19 -7 93 -30 164 -51 72 -20 142 -45 155 -56 l25 -20 -40 15 c-22 8
-103 31 -180 51 -77 20 -148 39 -157 42 -10 2 -18 0 -18 -6 0 -6 8 -11 18 -12
65 -3 98 -23 44 -27 -20 -2 -46 -4 -57 -6 -11 -2 -24 -4 -29 -5 -9 -1 19 -48
43 -71 9 -8 23 -24 31 -34 15 -19 15 -20 -20 -1 -63 35 -154 135 -177 195 -37
97 -49 146 -49 198 1 27 -3 48 -8 45 -8 -5 -3 -102 8 -152 9 -42 39 -115 64
-158 13 -24 19 -43 14 -43 -6 0 -33 22 -61 50 -34 34 -55 65 -65 97 l-15 48 5
-60 c4 -33 8 -63 10 -66 10 -17 13 -158 4 -164 -5 -3 -10 1 -10 10 0 41 -79
165 -105 165 -28 0 -93 -97 -109 -163 -9 -39 -24 -25 -21 20 22 284 25 413 13
543 -18 195 -22 249 -22 307 -1 70 -15 87 -17 21 -3 -78 -2 -92 5 -168 8 -84
9 -92 21 -170 13 -85 12 -249 -1 -307 -15 -71 -54 -125 -108 -155 -23 -13 -22
-7 27 112 24 57 37 106 40 148 4 58 -3 78 -10 29 -14 -102 -21 -124 -61 -207
-45 -90 -111 -161 -202 -215 -18 -11 8 31 57 91 37 46 42 64 16 62 -10 -1 -38
0 -63 1 l-45 3 33 10 c17 6 32 15 32 19 0 5 -11 4 -24 -1 -13 -5 -42 -11 -64
-15 -36 -5 -80 -18 -286 -85 -144 -46 37 31 244 105 180 64 211 88 241 185 43
138 43 538 0 634 -40 91 -168 167 -281 168 -53 1 -137 -18 -160 -36 -8 -7 -28
-18 -44 -26 -16 -8 -45 -36 -65 -62 -35 -47 -61 -65 -42 -30 6 11 12 32 15 48
7 36 30 54 131 104 44 22 71 40 60 39 -23 0 -69 -23 -197 -99 -98 -59 -198
-104 -198 -91 0 5 26 25 58 45 31 20 71 47 87 62 29 25 29 25 -30 -5 -33 -16
-102 -43 -154 -60 -138 -45 -181 -81 -181 -155 0 -17 -2 -18 -10 -6 -16 25
-11 76 11 104 23 29 47 41 203 106 54 22 133 59 175 81 41 23 98 48 126 56 58
18 137 25 129 12 -3 -5 3 -9 13 -10 16 0 50 -6 78 -13 6 -1 28 -10 50 -20 68
-30 86 -36 81 -28 -6 9 -112 63 -158 81 -16 6 -28 18 -28 27 0 8 -18 46 -40
83 -22 37 -40 73 -40 80 0 8 -7 10 -22 5 -38 -12 -77 -46 -133 -114 -120 -148
-190 -207 -257 -216 -52 -7 -148 18 -184 49 -26 23 -43 77 -44 140 0 42 14 51
16 10 1 -16 4 -35 7 -43 3 -8 8 -24 12 -36 8 -25 82 -63 139 -70 62 -9 114 22
180 104 30 37 74 91 98 121 46 58 73 80 84 68 7 -7 -10 -27 -80 -98 -11 -10
-17 -19 -13 -19 9 0 137 130 129 131 -4 0 -16 2 -27 5 -11 2 -76 6 -145 10
-69 3 -138 7 -154 8 -16 1 -49 -1 -73 -4 -45 -7 -48 4 -3 13 14 3 6 5 -18 3
-37 -1 -41 0 -26 11 10 7 26 13 36 13 25 0 23 17 -3 25 -20 7 -21 32 -1 28 6
-2 0 14 -13 34 -29 42 -35 82 -7 46 22 -28 54 -40 135 -48 60 -6 72 -4 158 30
101 41 168 75 212 112 24 19 25 23 10 24 -58 2 -116 14 -225 44 -119 33 -162
40 -96 15 47 -17 112 -43 117 -47 2 -1 -8 -16 -23 -33 -33 -40 -33 -49 4 -63
17 -6 30 -15 30 -19 0 -9 -108 -43 -115 -36 -3 3 -1 17 4 32 20 51 -16 98 -75
100 -35 2 -51 17 -89 88 -15 26 -14 27 13 23 26 -4 26 -4 5 7 -30 15 -29 38 1
38 14 0 80 -16 147 -35 67 -19 124 -33 127 -31 2 3 -16 10 -39 16 -24 7 -70
20 -102 31 -31 11 -84 23 -116 27 -51 7 -61 6 -84 -12z m28 -88 c30 -29 64
-97 60 -121 -2 -9 0 -15 6 -12 5 4 9 13 9 20 0 8 10 19 21 26 33 17 75 -18 72
-60 -2 -52 -49 -76 -88 -47 -11 8 -25 12 -31 9 -7 -2 -17 11 -24 31 -6 20 -16
36 -21 36 -6 0 -6 -8 1 -19 13 -25 13 -41 0 -41 -6 0 -15 12 -21 28 -7 15 -16
36 -20 47 -11 24 -20 105 -13 117 9 14 24 9 49 -14z m380 -84 c-29 -10 -33
-13 -15 -13 51 2 54 -3 15 -22 -46 -21 -63 -23 -99 -9 -56 21 1 59 89 58 l50
0 -40 -14z m-444 -114 c16 0 27 -44 16 -67 -20 -44 -97 -33 -97 14 0 43 26 68
58 57 8 -2 18 -4 23 -4z m-59 -172 c-7 -7 -12 -16 -12 -22 0 -5 9 1 20 14 24
28 25 22 5 -28 -16 -38 -72 -95 -85 -87 -20 12 19 101 58 132 19 16 30 7 14
-9z m216 -1 c13 -15 5 -30 -26 -46 -18 -10 -23 -9 -28 4 -4 9 2 25 11 35 21
23 29 25 43 7z m141 -20 c-13 -6 -26 -11 -29 -12 -3 -2 -15 -6 -27 -10 -13 -4
-23 -11 -23 -15 0 -5 27 2 59 15 67 26 73 13 13 -29 -67 -46 -171 -71 -187
-46 -21 34 135 123 194 112 l25 -5 -25 -10z m-214 -27 c5 -30 3 -44 -10 -56
-25 -25 -4 -37 67 -37 47 0 78 6 121 26 l58 26 -22 -32 c-13 -18 -39 -50 -58
-72 -31 -35 -41 -40 -81 -40 -32 -1 -57 7 -88 26 -24 15 -50 25 -57 23 -23 -9
-45 37 -40 81 7 56 15 76 26 70 5 -4 9 0 9 7 0 9 3 9 10 -2 11 -17 4 -62 -17
-103 -8 -16 -12 -31 -10 -34 11 -10 52 98 56 150 1 4 7 7 15 7 9 0 17 -15 21
-40z m455 -65 c-5 -14 -21 -30 -35 -35 -28 -11 -33 -19 -9 -16 9 1 28 13 41
26 l25 24 19 -25 c10 -13 19 -27 19 -30 0 -3 -36 -16 -81 -28 -45 -12 -112
-37 -150 -56 -71 -34 -78 -36 -56 -13 7 7 34 41 60 76 27 34 51 62 54 62 4 0
16 -8 27 -17 21 -18 21 -18 4 3 -10 11 -18 27 -18 36 0 18 27 44 60 56 21 8
27 6 37 -14 9 -16 10 -30 3 -49z m-564 -128 l6 -22 -19 20 c-26 28 -43 94 -30
126 8 21 11 17 23 -39 7 -35 16 -73 20 -85z m118 -4 c34 -30 33 -38 -9 -40
-28 -2 -41 4 -71 33 -26 26 -32 39 -24 44 17 11 72 -10 104 -37z m70 -18 c-4
-8 -10 -12 -15 -9 -14 8 -10 24 6 24 9 0 12 -6 9 -15z m-144 -107 c0 -5 -4 -7
-8 -4 -4 2 -14 1 -22 -5 -12 -7 -10 -9 8 -9 31 0 28 -16 -5 -27 -39 -13 -94 2
-86 23 12 33 113 52 113 22z m280 -86 c0 -4 -5 -13 -12 -20 -7 -7 -8 -12 -4
-12 5 0 15 8 22 18 12 16 13 16 14 0 0 -17 -64 -68 -87 -68 -18 0 4 57 30 75
24 17 37 19 37 7z m-164 -24 c37 -39 3 -132 -44 -123 -9 2 -23 4 -29 4 -7 1
-20 12 -28 25 -14 21 -14 28 -1 59 22 53 69 69 102 35z m75 -47 c-16 -30 -14
-34 19 -28 72 15 22 -45 -62 -73 -64 -21 -87 -10 -46 23 15 13 35 43 44 69 9
27 23 48 32 50 21 4 27 -14 13 -41z m-216 -71 c-2 -22 1 -38 6 -34 5 3 9 14 9
25 0 24 20 26 21 2 3 -36 -3 -59 -27 -112 l-25 -55 -20 21 c-14 13 -21 33 -21
58 0 48 37 133 59 135 1 0 0 -18 -2 -40z m95 -54 c0 -6 -12 -24 -26 -41 l-25
-30 6 44 c3 24 8 48 11 53 7 11 34 -10 34 -26z m118 -6 c-17 -50 -109 -129
-152 -130 -38 0 5 84 62 122 42 28 56 21 22 -12 -16 -16 -30 -32 -30 -36 0 -8
22 9 70 53 19 18 36 33 37 33 1 0 -3 -14 -9 -30z m102 -20 c13 -49 6 -114 -15
-147 l-16 -24 -20 25 c-23 29 -35 106 -21 132 10 18 11 17 21 -8 15 -39 22
-35 17 9 -8 65 17 75 34 13z"/>
<path d="M1815 3300 c3 -5 8 -10 11 -10 2 0 4 5 4 10 0 6 -5 10 -11 10 -5 0
-7 -4 -4 -10z"/>
<path d="M1685 3029 c-4 -6 -5 -12 -2 -15 2 -3 7 2 10 11 7 17 1 20 -8 4z"/>
<path d="M3745 3480 c-16 -7 -17 -9 -3 -9 9 -1 20 4 23 9 7 11 7 11 -20 0z"/>
<path d="M3021 3423 c-1 -26 0 -45 2 -43 9 10 17 90 9 90 -5 0 -9 -21 -11 -47z"/>
<path d="M3013 3355 c0 -8 4 -12 9 -9 4 3 8 9 8 15 0 5 -4 9 -8 9 -5 0 -9 -7
-9 -15z"/>
<path d="M3010 3310 c0 -11 2 -20 4 -20 2 0 6 9 9 20 3 11 1 20 -4 20 -5 0 -9
-9 -9 -20z"/>
<path d="M2950 3175 c0 -8 2 -15 4 -15 2 0 6 7 10 15 3 8 1 15 -4 15 -6 0 -10
-7 -10 -15z"/>
<path d="M2244 3068 c-4 -7 -2 -8 4 -4 7 4 32 -24 65 -76 30 -46 60 -88 68
-94 8 -6 59 -35 114 -63 121 -63 165 -108 181 -186 13 -64 23 -226 29 -466 5
-167 3 -191 -15 -244 -11 -32 -27 -69 -35 -82 -9 -13 -11 -23 -6 -23 13 0 52
86 66 145 20 83 3 606 -20 645 -2 3 -6 25 -10 49 -13 90 -92 257 -147 313 -37
37 -102 76 -142 84 -54 11 -146 12 -152 2z m146 -25 c19 -4 38 -6 43 -5 16 4
5 -12 -28 -44 -18 -19 -38 -34 -43 -34 -12 0 -62 82 -56 92 2 4 14 5 27 2 12
-2 38 -7 57 -11z m110 -58 c13 -16 5 -22 -37 -30 -29 -6 -29 -6 -8 -14 11 -5
32 -5 47 0 28 8 48 -4 28 -16 -19 -12 -84 -12 -118 -1 -31 11 -32 12 -16 34
27 39 82 53 104 27z m104 -142 c15 -30 23 -53 19 -51 -75 34 -193 94 -193 98
0 3 33 6 73 7 l74 1 27 -55z"/>
<path d="M3411 3054 c-34 -12 -72 -30 -83 -40 -24 -22 -118 -162 -118 -176 0
-6 -6 -24 -14 -41 -13 -31 -36 -117 -36 -134 1 -4 9 8 19 27 31 57 71 91 159
132 95 45 169 112 208 189 13 27 24 53 24 58 0 17 -97 8 -159 -15z m106 -50
l-31 -53 -38 30 c-55 44 -51 54 24 68 77 14 78 13 45 -45z m-103 -21 c49 -23
53 -41 11 -59 -36 -15 -75 -18 -113 -8 -18 5 -20 9 -11 20 6 8 23 14 38 15
l26 0 -25 10 c-24 10 -24 11 -6 25 25 18 38 18 80 -3z m-35 -94 c54 2 53 0
-29 -34 -36 -15 -80 -34 -98 -42 l-32 -13 27 50 c26 48 29 50 58 44 16 -4 50
-6 74 -5z"/>
<path d="M2125 2810 c-3 -6 1 -7 9 -4 18 7 21 14 7 14 -6 0 -13 -4 -16 -10z"/>
<path d="M3620 2804 c0 -2 17 -11 37 -19 44 -19 123 -82 123 -98 0 -7 11 -29
25 -50 14 -20 22 -37 18 -37 -4 0 -37 29 -73 64 -79 78 -130 102 -227 105 -78
3 -136 -11 -174 -40 l-24 -19 38 15 c27 11 65 15 130 13 l92 -3 1 -70 c1 -78
18 -121 60 -154 15 -12 29 -20 31 -17 12 12 17 94 10 148 -4 25 -3 26 17 13
23 -15 88 -89 122 -139 19 -28 20 -33 7 -75 -7 -24 -13 -54 -12 -65 0 -12 7 1
15 27 19 63 40 57 37 -9 -2 -35 0 -45 7 -34 5 8 10 23 10 34 0 15 3 16 15 6
25 -21 12 -124 -20 -150 -11 -9 -18 -4 -35 30 -11 22 -18 45 -15 50 3 5 1 11
-5 15 -5 3 -10 -2 -10 -12 1 -25 35 -99 51 -108 16 -10 58 39 66 78 6 31 19
34 50 12 12 -9 40 -22 61 -29 47 -17 62 -7 62 39 l0 30 21 -35 c12 -19 23 -36
24 -38 2 -2 14 7 27 20 20 20 23 34 25 100 1 43 7 87 14 99 6 13 7 19 1 15 -6
-3 -13 7 -17 24 -13 59 -107 108 -180 94 -59 -11 -131 20 -297 127 -43 27
-108 54 -108 43z m6 -154 c9 -22 20 -40 25 -40 5 0 2 17 -6 38 l-16 37 21 -21
c32 -31 34 -144 2 -144 -17 0 -43 64 -47 115 -2 30 -2 55 1 55 2 0 11 -18 20
-40z m264 -40 c23 -23 26 -50 6 -50 -17 0 -31 18 -39 48 -6 27 7 28 33 2z
m193 3 c14 -17 21 -42 18 -70 -2 -22 -32 -43 -61 -43 -32 0 -37 6 -50 51 -8
26 -5 35 15 55 28 28 56 31 78 7z m-127 -11 c6 -4 14 -25 17 -47 6 -37 29 -67
59 -77 6 -2 9 -11 5 -20 -5 -15 -11 -15 -53 -2 -26 7 -53 22 -61 31 -21 27
-36 56 -26 50 5 -3 15 -2 23 3 12 7 13 15 3 40 -10 26 -9 30 5 30 10 0 22 -4
28 -8z m230 -157 c7 -40 -2 -101 -17 -111 -28 -17 -89 124 -68 157 7 11 10 9
15 -8 4 -13 10 -23 14 -23 5 0 5 13 0 29 -4 16 -5 32 -2 36 12 11 51 -44 58
-80z m-106 18 c1 -5 5 -27 9 -50 5 -24 5 -43 2 -43 -9 0 -51 56 -51 68 0 19
39 43 40 25z m-91 -57 l24 -21 -19 29 -18 29 30 -16 c42 -22 73 -58 80 -95 6
-31 5 -33 -20 -28 -36 7 -81 40 -105 80 -37 59 -25 68 28 22z"/>
<path d="M3102 2658 c-1 -50 0 -89 3 -87 7 8 11 179 4 179 -3 0 -7 -41 -7 -92z"/>
<path d="M2730 2670 c0 -40 3 -70 7 -67 7 7 5 128 -2 136 -3 2 -5 -29 -5 -69z"/>
<path d="M3272 2671 c-62 -63 -85 -158 -83 -336 2 -123 16 -293 24 -301 1 -1
2 106 3 239 1 200 4 251 18 291 18 51 48 102 74 123 9 7 13 15 10 19 -3 3 -24
-13 -46 -35z"/>
<path d="M2990 2611 c0 -25 6 -27 13 -6 4 8 2 17 -3 20 -6 4 -10 -3 -10 -14z"/>
<path d="M3072 2537 c-2 -73 -7 -151 -17 -267 -20 -219 -24 -326 -13 -343 4
-6 8 31 9 83 1 52 3 104 4 115 2 11 6 47 10 80 4 33 9 68 11 78 1 10 6 73 10
140 3 67 8 125 11 130 2 4 0 7 -5 7 -6 0 -8 8 -5 19 3 10 1 21 -4 24 -4 3 -9
-27 -11 -66z"/>
<path d="M2733 2570 c1 -21 10 -18 13 5 1 8 -2 15 -6 15 -5 0 -8 -9 -7 -20z"/>
<path d="M2841 2585 c1 -19 18 -51 18 -35 0 8 -4 22 -9 30 -5 8 -9 11 -9 5z"/>
<path d="M3149 2578 c-9 -30 -17 -143 -25 -328 -3 -74 -6 -139 -6 -145 -3 -55
31 -202 58 -245 19 -31 14 -6 -13 60 -16 40 -18 76 -17 315 0 149 3 287 6 308
3 20 4 37 2 37 -2 0 -4 -1 -5 -2z"/>
<path d="M2540 1780 c0 -5 7 -7 15 -4 8 4 15 8 15 10 0 2 -7 4 -15 4 -8 0 -15
-4 -15 -10z"/>
<path d="M4970 3642 c0 -4 9 -13 20 -20 11 -7 20 -9 20 -4 0 4 -9 13 -20 20
-11 7 -20 9 -20 4z"/>
<path d="M5096 3578 c16 -18 30 -35 32 -37 1 -2 2 0 2 5 0 12 -45 64 -56 64
-4 0 5 -15 22 -32z"/>
<path d="M789 3563 c-13 -16 -12 -17 4 -4 9 7 17 15 17 17 0 8 -8 3 -21 -13z"/>
<path d="M1167 2147 c3 -21 12 -57 19 -80 l14 -42 -5 47 c-2 26 -11 62 -19 80
l-15 33 6 -38z"/>
<path d="M1205 2139 c4 -17 9 -49 11 -72 4 -48 11 -91 19 -127 3 -14 8 -47 11
-75 4 -27 10 -59 15 -70 9 -22 5 30 -12 155 -6 41 -13 91 -15 110 -6 47 -23
110 -30 110 -3 0 -3 -14 1 -31z"/>
<path d="M1660 1110 c-34 -7 -34 -7 -5 -8 17 0 39 3 50 8 24 10 4 10 -45 0z"/>
<path d="M1685 1080 c-11 -4 -28 -6 -37 -4 -10 1 -18 -2 -18 -8 0 -9 69 -3 79
8 9 9 -5 11 -24 4z"/>
<path d="M1723 1060 c-30 -12 -29 -18 2 -12 14 2 25 8 25 13 0 5 -1 9 -2 8 -2
0 -13 -4 -25 -9z"/>
<path d="M4737 2155 c-9 -19 -15 -35 -12 -35 7 0 37 61 33 66 -3 2 -12 -12
-21 -31z"/>
<path d="M4696 2162 c-2 -4 -8 -35 -11 -67 -4 -33 -9 -63 -12 -67 -2 -5 1 -8
6 -8 6 0 11 8 12 18 0 9 2 24 4 32 15 73 16 116 1 92z"/>
<path d="M4743 2025 c-3 -9 -3 -18 -1 -21 3 -3 8 4 11 16 6 23 -1 27 -10 5z"/>
<path d="M4635 2009 c-4 -6 -5 -12 -2 -15 2 -3 7 2 10 11 7 17 1 20 -8 4z"/>
<path d="M4670 1990 c0 -11 -1 -23 -2 -27 -11 -45 -14 -83 -7 -83 5 0 10 12
11 28 2 29 5 54 8 62 7 20 7 40 -1 40 -5 0 -9 -9 -9 -20z"/>
<path d="M4627 1961 c-4 -17 -3 -21 5 -13 5 5 8 16 6 23 -3 8 -7 3 -11 -10z"/>
<path d="M4619 1913 c0 -10 -2 -25 -3 -33 -2 -8 -6 -42 -9 -75 -7 -71 7 -21
16 58 3 26 9 52 12 57 3 6 1 10 -4 10 -6 0 -11 -8 -12 -17z"/>
<path d="M4650 1859 c0 -5 5 -7 10 -4 6 3 10 8 10 11 0 2 -4 4 -10 4 -5 0 -10
-5 -10 -11z"/>
<path d="M4188 1078 c5 -5 16 -8 23 -6 8 3 3 7 -10 11 -17 4 -21 3 -13 -5z"/>
<path d="M4230 1070 c0 -4 23 -7 50 -7 28 0 48 2 45 5 -8 8 -95 9 -95 2z"/>
<path d="M1710 965 c0 -5 5 -17 10 -25 5 -8 10 -10 10 -5 0 6 -5 17 -10 25 -5
8 -10 11 -10 5z"/>
<path d="M1667 912 c3 -12 9 -25 14 -28 14 -8 11 10 -6 32 -13 18 -14 18 -8
-4z"/>
<path d="M2186 791 c-4 -5 1 -8 9 -7 21 3 31 16 12 16 -9 0 -18 -4 -21 -9z"/>
<path d="M2155 780 c-3 -5 -1 -10 4 -10 6 0 11 5 11 10 0 6 -2 10 -4 10 -3 0
-8 -4 -11 -10z"/>
<path d="M3262 454 c8 -50 43 -124 60 -124 4 0 -6 27 -23 59 -16 33 -29 71
-29 85 0 14 -4 27 -8 30 -5 3 -5 -20 0 -50z"/>
</g>
</svg>
