<svg viewBox="0 0 296 284" xmlns="http://www.w3.org/2000/svg"><style>.st0{fill-rule:evenodd;clip-rule:evenodd}</style><path class="st0" d="M292 55l-1.3 2.8-1.5 2.5-2 2.3-2.2 2-1.3.8-1.5.8-1.3.5-1.2.3-3 .3-2.7-.3-2.3-.3-2 .5-2.5.5-2.5.3H263l-1.2.5-1 1-1 1-1.5 2.2-1 2.3-1 2.5-.8 2.5-.3 2-.2 2v4.3l1.8-.3h1.7l1.5.5 1 .5.8.5 1.7-2 1.8-1.8 1.8-1.5 1.2-.5 1.5-.3h1l.8.3.5.8.2 1 .3 3.5-.3 3.2-.2 1.5-.5 1.7-.8 1.5-1 1.5-1.8 1.7-1.7 1.5 2.5 2.7 2.5 3 2.5 3.5 2.5 3.7 1.8 4 1.8 3.8.8 2 .5 2 .5 4.2v6.2l.5 3.5.5 5.3v2.7l-.3 3-.5 2.7-.8 3-1 2.7-1.5 2.5 1.3.3h1.5l1.5.5 1.5.8 1.5.8.5.3.3.5-.3.5-.3.5-5 7.5.5.8.5.7.3 1v1.8l-.4.9-.5.8-.8 1-.7.5-.8.3-.8.3h-.8l-1.7-.5-1.8-.8-1.5 3.5-1.2 2-1.3 1.8-1.8 1.5-1.7 1.3-.8.8-.5 1-.5 2-.8 2-1 1.8-1.2 1.7-1.8 1.8-2 1.5-2.5 1-2.5.5-10.5 1.3-1 .5-.3.3v.5l-1 5.7-.5 2.8-.8 2.7-1 2.5-1 2.8-.9 2.1-1.2 2.3-1.5 2.5-1.8 2.3-2.2 2.7-1.3 1.2-1.5 1-1.5 1-1.5.8-1.7.8-1.8.4-1.3.3-1 .8-.7.8-.5 1.2-.8 2.3-1.3 2.2-1.5 2-1.5 1.7-1 1-1 .8-2 1-2.3.8-2.2.5-3 .2h-2.7l-5.5-.8-5.3-.5h-2.7l-2.7.3-1.8.5-1.8.7-1.5 1-1.3 1-1.3 1-1 1.5-.7 1.5-.8 1.8-.3 1.2v1.3l.3 1 .5.8.8.8.7.5 1 .2h1.3l-.8-1.5-.5-1.5-.3-1.5.3-1.5.5-1.3 1.3-1.3 1.7-1 1.5-.3h2l1.7.7 1.5 1 1.5 1.5 1 1.5.5 1.7.5 1.8v2l-.5 1.8-.8 1.8-.7 1.5-1 1.3-1.3 1-1 1-1.5.5-1.3.8-3.2.8-2.8.3-2.4-.5-2.5-.8-2.5-1.5-1.5-1.3-1.5-1.4-1.3-1.5-.7-1.5-.8-2-.5-1.7-.3-2-.3-2 .3-1.3-.3-.3-1.5.8-8 4.8-1 .5-1 .2-1-.2-1-.3-6.6-3.5-2.5-1.2-.5 4-.5 1.7-.8 1.8-1 1.8-1.3 2-1.5 1.5-1.8 1.5-2 1.2-2.3.5-1.8.3-1.7.3h-2l-1.5-.5-1.8-.5-1.8-.5-1.5-1-1.5-1-1.3-1.5-1.2-1.5-.8-2-.3-2-.3-2 .5-2 .8-2.2 1.5-1.8 1.8-1.3 1-.5 1-.5 1-.3h1.3l1 .3 1.2.3.8.2.8.5.8 1 .8 1.5.3 1.5v1.2l-.3 1.3-.8 1.3-1 .8-.3.2-.3.5 1 .3.8-.3 1-.3.7-.5.8-.8.5-.8.3-.8.3-1-.3-1-.3-1-1-2-1-1.7-1.3-1.5-1.3-1.5-1.5-1.3-1.8-.7-2-.5H112l-3.5.3-3.5.2-3.7.5-4.8.2-2.5-.2-2.3-.2-2.2-.5-2-1-1.7-1-1.8-1.5-2-2.2-1.5-2.5-1.3-2.5-1-3-.5-.5-1-.5-2-.5-1.7-.8-1.8-.8-1.8-.7L68 237l-1.5-1.3-1.3-1.3-1.5-1.7-1.8-2.5-1.8-2.7-1.2-3-1.3-2.8-1-3-.8-3-1.2-6.3-.5-3.5-.3-.5-.3-.3-.5-.3h-6.7l-3-.5-3-.5-2-.8-2-1-1.3-1-1.5-1.3-1.2-1.5-1-1.7-.8-2-.5-2.2-.3-.8-.5-.5-2.5-2-2.3-2.3-1-1.5-.8-1.2-.8-1.5-.5-1.5v-.3l-2 .5-2 .5-1.3-.3-1-.3-.7-.8-.8-.7-.5-1v-2l.5-1.3.5-1v-1l-.5-1-.8-.8-2-2.7-1.7-2.7v-1l.5-.5 1.5-.6 1.3-.8 1.5-.3 1.5-.3h1.5l-1.8-4-1.2-4.3-.8-4-.3-2.2V146l.5-3.5.5-3.2.3-1 .3-1-.3-2.5v-2.3l.3-2.2.5-2 1-4.5 1.8-4 1.5-3 1.5-2.8 2-2.7 2-2.5 2.8-3.2 2.5-3.5-1.3-.8-1-1-1-1-1-1-.8-1-.6-1.3-.7-2.7-.5-2.6v-2.2l.3-2.5.5-2.5 3 .5 1.5.5 1.2.8 2.3 2 2 2.3.8-.5.8-.5L37 88h1.7l2 .3-.2-3.3-.3-3.3-.5-3.2-1-2.7-1.3-3-1.7-2.5-.7-.8-.8-.8-.8-.3-1-.3H30l-2.2-.1-2.5-.5-2.3-.7-.8-.3-.8.3H20l-2 .2h-1.8l-1.7-.5-1.7-.5-1.5-.8L9.8 64l-1.3-1L7 61.5l-1.5-2.3L4.3 57l-.5-2-.3-2 .5-2.3L5 49l1-1.5 1.3-1.3 1.3-1 1.5-.7 1.5-.8 1.8-.3 1.7-.3 1.8.3h.8l.8-.3.8-.5.5-.8 2-2 1.8-2.3 2.2-1.8 2.3-1.5L30 33l2.5-1 2.7-1 3-.5 1-.3.8-.5 1.3-1.3 1-1.5.8-1.7.5-3.5.5-2.5.8-2.2.3-.5.5-.3h.8l2.5 1.3 2.2 1.2 1.8 2 1.5 2.2.3.5.3.3h1.3l1.8-.3.8.3.8.3.7.5.5.5 1 1.8 2.3-1 5-1.5 5-1.5 1.8-.3h1.8l1.7.3 1.8.5h1.3l.2-.5 2-2 2.3-1.5L89 18l2.3-.7 2.5-.8 2.5-.3h7.2l2-.5 9.3-2.3 1-.2 4.2-3.5-3-2 5.5-1 1.7-.2 1.3-.8 1.5-.5 1.2-1 1.3-.8 1.3-.8 1-.3L133 2l1.5-.2 1.3.2 1.2.3 1.3.3 1.5 1 1.2 1 1.5 1.3.8-3 .5.5.2.6.3 3.2 3.2-4 2.7 4 .3-2.5.5-1.2.5-1L152 5l.3.5.3.3h.5l.3-.5 1-1 1-1 1.3-.5 1.3-.3 1.2-.3 1.3-.2 2.8.2 1 .3 1 .5 2 1.3 1.2 1 1.5.5 6.3 1.5 1 .5 1 .5-2.5 1.2 2.2 1.8 2 1.3 2.2 1.2 2.5.8 2.5.8 2.3.3 5.3.5h4l2 .3 2.3.5 2.7.8 2.8 1.2 2.2 1.8 2.3 2 .5.5.5.2.9-.5 3-.3h4.5l1.8.5 3.2 1 3.3 1.3 3 1.5.3-.2.8-1.5 1.2-1 .8-.3.8-.3h3.1l.5-.5.3-.5 1.5-2 1.8-1.8 2-1.2 2.3-1 .7-.5h.8l.3.5.5 1 .8 1.7.3 2 .3 2v3l.8 1 1 1 1 1.3.8.5 1 .3 2.7.3 2.3.7 2.5 1 2.3 1.3 3 2 2.5 2 2.5 2.5 2.2 2.7.8.5h.8l1.8-.3 2 .3 1.5.3 1.7.5 1.3.7 1.5 1 1.3 1.3 1.2 1.5.5.7.3 1 .5 2.3.3.8V55h-1zM34.5 55l-1.3 2.5.5.3 1.8-3-.3-.2-.7.4.2-.8-1.5 1-1 .8-.2.8v.8l2.5-2.6zm213.3 33.3l-1.5-3.2-1.3-3-.7-2-.3-1.8v-3.8l.5-3.7.7-3.5.8-2.3 1-2.2 1.5-2 1.7-1.8-.8-.7-.4-.3h-.5l-.8.7L246 61l-1.3 2.5-1 2.5-.8 3-.3 1.5v10.3h.3l4 6.7.3.5.6.3.2.5 3.7 4.5 12 12.7 2.3 2.7 2.5 3 2 3 2 3 2.3 4.5.8 2.3.7 2.5.5 2.3.5 2.5v2.5l-.3 2.5-.5 2.7-.7 2.3-1.3 2.5-1.8 2-1.7 1.7-2.3 1.7-2.2 1.3-2.5 1-2.5.5-2.5.3h-2.5l-2.5-.5-2.2-.8-2.3-.8-2.2-1-2-1.5-1.7-1.5-1.5-2-1-1.7-1-2-.5-3-.3-1.5.3-1.5.3-1.5.5-1.5.8-1.3 1-1.2 3.2-3.7-.4-.8-.5-.3h-.5l-.8.5-3.7 3.8-1 1-.3 1-.3 1.3.3 1.3-.3 4.8.3 2v2l.5 2 1 1.8 2 2.5 2.3 2.3 2.5 1.5 2.5 1.2 2.7 1 3 .5 3 .2h3l2.2-.2 1.8-.8 3.7-2 1.5-.8 1.3-1 1.2-1 1-1 2-2.7 1.5-2.7.5-2 .8-2 .3-1.8.3-2v-2l-.3-2-.5-2-.5-2-2-5.5-1-2.5-1.5-2.5-5.5-7-2.5-3.2-2.5-3-12-12.8-1.5-1.2-1.2-1.4zM42.5 109.2l5-5-3 2.3-3 2.5-6.3 5.5-3 2.7-2.8 3.3-1.7 2-1.5 2.5-1.5 2.5-1 2.5-.8 3-.3 3 .3 3 .8 3 .5 1.8.8 1.2.8 1.3 1 1.3 1 1 1.2.8 1.3.8 1.5.5 1.7.5 1.8.3h1.5l1.7-.3 3.3-.8 3.5-1 2.5-1 2.3-1.8 1.7-1.8 1.8-2.5.8-1.3.5-1.3.3-1.5v-2.5l-.3-1.5-.5-1.3-.8-1v1.5H53l-.3 1-2.2-4.3-.5.2.3 1.3.7 1.4.5 1 .3.8v.5l-1.5-2.7-1-1.3-1.5-1.2 1 1.7.8 1.3.3 1 .3 1.2v1l-.3 1.3-.5 2-1.3 2-.5.8-.8.8-1.5 1-1.8.8-1.7.5-1.5.3h-4l-2.8-.8-2.5-1.2-1.5-1-1-1-.7-1.3-.5-1.5-.5-1.8v-4.7l.5-1.5.5-1.5.7-1.5.8-1.5 2.3-3 2.7-2.7L37 118l3.2-2.2 5-3.3 2.5-1.7 2.3-2.3.3-.5-1.3.3-1 .5-2 1.8-.8.5 3.5-3.5 1.8-1.8 1.7-2H52l-7.2 6-.3-.3 3.5-3h-1l-.7.3-3.8 2.4zM143.8 64h-.5l-.3-1.5-.8-1.3-1 .8-1.5 1.2-1.5.8-1.8.5-1.7.3H133l-1.7-.5-1.5-.5-1.5-1.2-1-.5-1-.8-2-.8-2.2-.3-2.3.3-3 .8-3 1-3 1.2-2.7 1.3-5.3 2.7-4.8 3.3-4.5 3.7-4.2 3.7-3.8 3.8-3.2 3.7L80 89l-2 3.2-1.7 3-1.5 3-1.5 3-1 3.3-.8 3-.5 2.7-.3 3v3l.5 27v3.5l.3 3.5 1.8 13.8 1 5.3 1.3 5 1.5 5 2 4.8 2.3 5.2 2.7 5 2.8 5 3 4.8 5 7 2.5 3.5 2.8 3.5 3.7 4.2 4 4 4.2 4 4.2 3.8 8.2 6.2 8.2 6 3 1.7 3.2 2 6.3 3.5 1.2.8 1.3.3 1.3-.3 1.2-.8 12-7.5 5-3.2 5-3.5 7.7-6.2 7.5-6.5 3.2-3 3-3.2 2-2.8 2.3-2.7 1-1.5 2.7-3.5 2.5-3.5 2-3 1.8-3 3.2-5.8 3-5.7 1-2 .8-2.3 1.7-4.7 1.3-4 1.5-4 1-4.2.7-4 .8-4.3.3-4.2 1-14.8-.3-4v-3.7l.5-5v-17l-.5-1.8-1.5-4.5-1.5-4.5-1.5-3.2-1.5-3-1.7-3-1.8-3-4.3-5.3-4.5-4.8L201 73l-5.3-4.3-3.2-2-3.2-1.5L186 64l-3.5-1.2-3-1.3-3-1.3-1-.3h-1.3l-2.7.5-2.5.8-1 .3-.7.5-1.5 1.2-1.8 1-2 .3-2 .3-1.7-.3-1.5-.3-1.5-.8-1.2-1.2-1.5-1.3-.8 3-.8-.8-.5-1.2v-1l-.3-1.3-2.7 4-3-3.5-.7 3.9zm-83.6-8.3V57L60 78.7l-.2 5.5V96l-.3 6.5-.3 12.7V134l.3 4.3 1 10 .3 6.2v3l.3 3 1.3 6.5 1.5 6.3 1.7 5.8 2 5.7 2 5.8 2.5 5.3 2.7 5.5 3.2 5 3.3 4.8L85 216l4.2 5.2 4 5.3 5 5.3 4.8 5.3 3.2 3.2 3.5 2.8 7.3 5.5 4.2 3 4.5 3 8.7 5.8 3 1.7 3.3 1.8 3 1.5 3.2 1.2h2l4.5-2.5 4.5-2.7 9-5.3 8.5-5.5 4.2-2.7 4-3 4-3.2 3.7-3.5 7.8-8.5 3.7-4.3 3.5-4.5 6.7-8.5 3.3-4.5 3-4.5 3.2-6 2.8-6 2.5-6.3 2.3-6.5 1.2-4.2 1.3-4.3 1-4.3.5-4.5 1-11.8.7-11.5.3-5.8V112l-.3-4.5-.3-4.5-.2-4.5.2-4.5-.2-1-.3-6.3V56l-2.5 2-2.5 1.7-.3.5-.3.5-.2 3.5h-.3l.1-3.2-1.5.8-1 1.2-.5 1.5-.3 1.5.5 19.7.5 20v10l-.2 10-.3 14.2-.3 7-.3 7-.5 4.5-.5 4.5-.8 4.5-1 4.2-1.2 4-1.3 3.8-3 7.5-1.3 3-1.3 2.8-3.2 5.5-2.5 4.5-2.7 4.3-3 4.3-3 4-2 2.7-.8 1.3-1 1-4.8 4.5-4.8 4.5-7.7 7-3.5 3.2-1.8 1.5-2 1.3-4 2.5-3.7 2.8-3.7 2.5-4.2 2.2-3.5 2-3.7 2-.8.5-.8.2h-.5l-.8-.2-7.7-4.5-3.7-2.2-3.7-2.3-3.7-2.5-3.3-2.7-7-5.5-5.3-4-5-4.5-4.5-4.8-4.5-5-5.3-6.5-4.5-6.7-4.5-7.3-3.7-7.2-2.2-4.8-2-5-1.5-5-1.5-5-1.3-6-1-6.3-.3-3.8-.3-4-.5-6.5-.3-6.5-.2-12.5-.3-12.3.3-12.5.5-16.7.5-17.8V64l-.5-1-.5-.5-.7-.2-.8-.5-.8-1-.2 4.2v25l-.5 6-.3 3v12.8l-.3 10-.3 9.8.3 5 .3 4.8v3.5l.3 3.5 2 16.7 1 5.8 1.5 5.5 1.8 5.5 2 5.3 2 4.2 2 4.3 2.3 4 2.5 4 6.5 9.5 3.5 4.5 1.8 2.3 2 2.2 3.8 4 3.5 4 3.7 3.8 4 3.2 4.5 4.2 4.8 4 5 3.7 2.5 1.8 2.8 1.7 15 8.3.8.2 1 .2 1-.2.8-.2 10.7-5.8 3.7-2 3.5-2.2 5-3.7 4.8-4 7-6.3 7-6.3 4-4.3 3.8-4.5 3.7-4.3 3.5-4.5 3-4 2.5-4.3 2.5-3.7 2.5-4 2-4 1.8-4 1.7-4.3 1.5-4.3 1.5-4.3 1.3-4.5.7-4.8.8-5 .8-4.5.5-4.7 1-14.5.3-2.3v-2.5l-.3-13.5-.3-18.5-.8-14.3V65.2h.3l.2 1v24.5l.8 14.3v8.5l.2 12.5v6.3l-.3 6.3-.3 5.5-.5 5.5-1 11.3-.5 3.5-.5 3.5-1.5 6.8-1.8 5.5-2 5.5-2.2 5.5-2.8 5.3-2 3.8-2.3 3.7-4.8 7.3-2 2.7-2 2.7-4.2 5-9.3 9.8-4 4-4 3.5-7 6-3.5 2.7-3.7 3-4.8 3.3-5 2.7-5 2.8-5 2.5-.8.3-.5-.3-4.8-1.7-3.7-2-3.7-2-3.5-2-3.5-2.2-6.7-5-6.3-5.5-5-4.3-4.8-4.3-3.7-4-3.7-4.3-3.7-4-3.5-4-3.3-4.2-3-4.5-4.5-7-2-3.5-2-3.8-2-4.7-2-4.5-1.5-4.5-1.5-4.7-1.2-4.8-1-5.8-.8-6-.8-9.3-.8-9.3-.3-2.7-.2-2.5.5-29.2v-5.3l.8-9.5v-4.8l-.3-5v-3.5l.5-16.6v-.5l-.2-.5-3.5-2.7-1.8-1.6zm86.5-7.2l3.2-.3 3-.8 1.5-.5 1.5-.8 1.3-.8 1.3-1 2-2 1.5-2.2 1.3-2 .7-2 .5-2.2v-1.3l-.3-1.3-.5-1.5-.7-1.8-.8-1.5-1.3-1.5-1.5-1.8-1.7-1.5-2-1.3-2-1.3-1.8-.8-2-.5-1.7-.3h-2l-2 .3-1.8.8-1.7.8-1.8.8-1.5 1-1.5 1.2-1.3 1.3-1.5 1.5-.8 1.3-.7 1.2-.5 1.3-.5 1.3-.3 1.5v2.8l.5 1.5.5 2 1.2 2.2 1.8 2 2 2 2.3 1.7 2.5 1.3 2.8.8 1.3.3h1.5v.1zM78.5 236.3h3.3l3-.3 1.5-.5 1.5-.5 1.3-.8 1.3-1.2-2.3.8-2.5.7-2.8.5h-1.2l-1.3-.3 3-.3 2.7-.4 2.5-1.3 2.5-1.5-3 1.3-3 .8-3.2.3h-3.3l3.3-.3 3-.5 1.5-.5 1.5-.5 1.2-.8 1.3-1-2.8 1-2.7.8-3-.3-2.8-.5 2.5.5 2.7-.3 1.3-.3 1.3-.3 1.2-.6 1-.7-2.5.5 3.7-2-.3-.5-.3-.3-.5-.3-.5.3-1.8.8-2 .5-1.8.3-1.5.3-1.8-.3-1.5-.3-1.5-.8-1.3-.8-1.5-.8-1.2-1.2-1.3-1.3-1-1.3-.8-1.5-.8-1.5-1-3.3-.5-3.3-2.3-21.2-.5-3-.5-3-.7-3-1-2.7-1.3-2.8-1.3-2.7-3-5.3-1.5-2.3-1.7-2-2-1.8-2.5-1.2-2.5-1.3-2.5-.5-2.7-.3h-2.5l-1.5.3-2.5.8-2.3.8-2 1.2-2 1.5.3.3 1-.3 2-1 2.2-.5h2.3l2.7.5 2.8.8 2.7 1.5L47 167l2.3 2 1.5 1.8 1.5 2 1 1.8 1.3 2 1.7 4.2 1.5 4.3 1 4 .8 4.3 1.2 8 1.3 11.2 1.3 11 .5 2.2.7 2.3 1 2 1.3 2 1.5 1.8 1.7 1.5 2 1.3 2 1 3 1 2.7.5h3l3-.2 2.7-.5 2.3-1.3 2.2-1.5 2-1.7.3-.5v-.5l-.5.3h-.5L92 235l-2.2 1.5-1.8.5-1.7.5-2 .3h-2l2.7-.5 2.5-.5 1.3-.5 1-.8 1-1 1-1-1.5 1-1.5.8-1.8.7-1.5.3-1.8.3-1.7.3-1.8-.3-1.7-.3zm135 1.5H211l-1.5-.3-1.5-.3-1.5-.5-2.7-1.5-2.3-2-.8-.3-.5-.3v.8l.5.5 1.5 1.5 1.8 1.5 2 1 2.3.5 2.2.2 1.5.2 1.2.3 1.3-.3 1.3-.5h.5l2-.2 2-.3 2-1 1.5-1 1.8-1.3 1.5-1.7 2.8-3.5 1.3-1.8.7-2 .3-2.2.5-2.3 2-18 .8-6 .3-3 .7-2.7 1.5-6.3 1-3.2 1.3-3 2.5-4.8 1.3-2.3 1.7-2 1.8-1.8 1.8-1.5 2-1.5 2.3-1.3 2.5-1 2.5-.3h2.8l2.7.8 2.5 1-.7-.1-.5-.3-2-1.5-2-1-1.8-.8-1.7-.4-1.8-.5-1.8.2-3 .3-3 .5-1.8.8-1.3.5-2.7 1.7-2.3 2.3-2 2.5-1.5 2.3-1.5 2.5-1.3 2.7-1 2.5-1 3.5-1.2 3.5-.8 3.5-.5 3.5-1 10.5-1 10.3-.5 3-1 2.7-1.3 2.7-1.5 2.5-1.3 1.2-1.2 1-1.3.8-1.5.5-1.5.5-1.5.5h-4.2l-1.5-.3-1.5-.5-1.3-.8h-.9l.3.5.3.5.5.5.5.3 1.7.8-.2.2-2-.2 1 .7 1.2.5 1.3.3 1.3.3 2.5.3 2.8-.5-1.5.5-1.3.3H211l-2.7-.5-2.8-1 1.3 1 1.5.5 1.2.8 1.5.3 3 .5 3 .3h-3.5l-3.2-.3-3-1-3.3-1.5 2.7 1.8 2.5 1.3 3 .5 3 .3-1.2.1h-1.2l-6-1.7h-1.3v.5l1.3.7 1.5.8 1.2.5 1.5.3 3 .3h3l-1.8.5h-1.8l-1.7-.3-1.8-.3-1.5-.5-1.8-.8-3.2-1.5 1 1.2 1.3.8 1 .8 1.3.5 2.7.8 2.8.2zM24.7 147l-.3-.5-1-1.3-.4-1.2-1-2.5-.5-2.5v-4.5l.3-1.5.3-1.8.5-1.5 1.3-3 1.7-2.7 3-4.5 3.5-4 3.7-3.8 3.5-3.8 4-3.5 3.7-3.8 2.5-2.7 2.2-3 1.8-3.3 1.8-3.2.7-1.3.5-1.3.3-1.5.2-1.3.5-3.5v-7.3l-.3-3.7-.8-2.7-.7-2.8-1.2-2.5-1.2-2.5-.8-.8h-.3l3.7 8.5-.2.3-.7-1.3-.8-1-1-1L52 62l1 3.5.5 4 .3 3.5v7l-.5 1.5-.5 1.8-1.8 2.4-1.7 2.5L45 93l-4 4.5-4.2 4.5-3.3 3.2-3.2 3.8-3.2 4.5-3.2 4.8-2.3 4.5-.8 2.3-.8 2.2-.5 2.3-.2 2.5v2.3l.2 2.5.5 3 1 2.8.8 1.3.8 1.2 1 1 1.1.8zm218.6-85.5l-1.3 2h-.8l-.5.8-.5.8-.2.5-.5.3.7-1.8.8-1.5.8-1.5v-.8l.3-1-.5.3-1.5 2.8-1 2.7-.8 3-.3 3v7.2l.5 3 .5 3.3.8 3 1.5 2.7 2 3.8 2.5 3.5 2.8 3.5 3 3 7 6.8 6.8 6.7 3 3.3 1.3 1.7 1 1.8 1.2 2 .8 2 .8 2 .5 2.2.3 3.2v3.3l-.3 1.7-.5 1.5-.8 1.5-.8 1.5-1.2 2.5 1.2-1.3 1.3-1.5 1-1.5.8-1.5.5-1.5.5-1.7.5-3.5v-2.7l-.5-2.6-.5-2.8-.8-2.5-1-2.3-1-2.5-2.7-4.5-1.8-2.8-2.2-2.6-4.5-5.3-5.3-5.3-5-5.5-3.7-4.5-3.7-4.8-1.3-2-.5-1.3-.3-1V71l.8-4.8.8-4.7zm13.5 51l-.3.3-2-2-2-1.8-2.5-1.5-2.5-1 3.5 3-.3.3-7-6-.3.3 6.2 6.3-.2.3-1-.8-1-1-.3-.5h-.5l-.5.3-.5.2.5.5 3.2 2.5 3.3 2.2 3.7 2.5 3.5 2.7 3.2 3 1.5 1.8 1.3 1.8 1.7 2.5 1 2.5.3 1.5.2 1.3v1.5l-.2 1.5-.5 2.5-.5 1-.8 1-.7 1-.8.8-1 .8-1.3.5-2.5 1-2.8.5h-2.7l-1.3-.3-.9-.5-1.5-.5-1.5-.5-1.2-1-1-1-1.3-2.3-.8-2.2-.3-1v-2.2l.5-1 .5-1 .5-1 .3-.5.3-.5-.5-.3-3.2 5.2.5-1.7.7-1.5v-1.3h-.3l-2 4-1-2.8-.5 1-.5 1.3-.2 1.2v2.6l.2 1.3.3 1 .5 1.3 1.3 1.8 1 1.5 1.5 1.5 1.5 1.3 1.8 1 1.7.8 1.8.5 2 .5 3.5.8 1.7.3h1.8l1.7-.5 1.8-.5 2-1 1.5-1 1.3-1.3 1-1.5 1-1.5.5-1.7.5-1.8.5-1.7v-2l-.3-2-.5-4-.5-1.2-.6-1.9-2.5-3.8-2.5-3.7-3-3.3-3.2-3.2-6.2-5.5-.5.2 3.7 3.8zM24.7 177l1-1 1-1.2 1.5-1.3 1.5-1 1.5-.8 1.7-.5 2-.3h1.8l2 .5 2.8 1L44 174l2.3 1.7 2.2 2 1 1.8 1.3 1.5.7 1.8.8 2 1 3.8 1 3.7 1.5 6.5 1 6.5 1 4.5h.5l-1.3-10 .5-.3 2.7 17.5.3-.3-.3-1.5v-1.5l.3-1.3.3-1.5v-.8l-.3-1-.5-5.1-.5-5.3-.8-4-.8-4.3-.8-3.5-.3-1.8-.8-1.7-2-5-2.5-4.8-1-1.8-1.3-1.7-1.5-1.5-1.5-1.3-1.7-1.2-1.8-1-2-1-2.3-.5h-5.5l-.7.3-1.5.8-1.5 1.3-1.2 1 .2.5 3.5-.8-.3.8 3.7-1-2.3.8-2 1-1.8 1.3-2 1.5 1.7-1 1.5-.8 1.8-.8 1.7-.3 2.3-.2 1.7.3 1.8.3 1.8.8h-1l-1.8-.5H35l-1.8.3-1.5.5-1.8.8-1.5 1-1.5 1.3-1 .8-.5 1.3-.5 1.2-.2.9zM237 211h.5l.2-1 1.3-6.8.3-1.2v-1.3l.3-2.5.5-2.2 1.2-5 1.5-4.8 1.3-3.2.7-1.8 1-1.5 1.8-2.5 2.2-2 2.5-1.8 2.7-1.5 2-.8 2.2-.3h2.3l2.2.5 2 .8 2 1.3 1.5 1.8 1.3 2 .5.5h.3v-2L270 174l-1.5-1.5-1.3-1-1.5-1-1.5-.8-1.5-.5-1.5-.3-1.5-.3h-3.5l-1 .3-1 .5-.2-.4 1.8-.5 1.8-.3 1.7-.3 1.8.3 3.2 1 3.7 1.3-2-1.3-2-1-3.7-1.8 4 1.3-.8-1v-.3l4.8 2-1.7-2.2-1-.8-1-.8-1.6-.6-1.7-.5h-3.5l-1.5.3-1.5.5-2.5 1-2.5 1.5-2 2-1.8 1.8-1.5 2-1.3 2-1.3 2.2-1.8 3.7-1.2 3.8-1.3 4-.8 4-.8 5.3-.7 5.2-.5 6.5-.3 2.7.3-.3.5 2.5h.2l2.3-14.8h.5L237 211zM215 47.5l.3.3.8.8 2.2 1.5 2.3 1.3 2.2.8 2.8.5h3.2l3.2-.3 3-.5 3.2-1 8.2-3.2 8-3.2 2.3-.8 2.5-.5 2.3-.5h2.2l1.5-.3 1.5.3 2.2.8 2.3.8 2.2 1.2 1.8 1.3.8.2.2-.3-7-7.5-1.5-1.3-1.2-.8-1.5-.8-1.3-.3h-3.3l-3 .5-2 .5-1.8.8-1.7.8-1.5.8-5.5 3.7-2.7 1.5-1.5.5-1.7.5-3.5 1-4 .8-3.5.6h-3.5l2.2 1-5.5-.5-.2.5h-1l-.3.3 3.5 1.5-2-.5-2.3-1-3.9-1.8zM71.3 48l-.8-.3-2.7.3-2.5-.3-2.7-.3-2.8-.4-2.5-.8-2.5-1-2.5-1-2.3-1.5-5.3-3-5.3-2.5-1.8-.8-2-.3h-2l-1.6.4-1.5.5-1.5.7-1.5.8-1.3 1-1.7 1.5-1.5 1.5-2.8 3.2-1.2 1.5.5-.2 1.5-1 2.5-1.5 2.5-1.3 2.5-.8 2.8-.3 2 .3h2l3.7 1 3.7 1.3 3.7 1.5 7.5 3.2 4 1.5 2 .5 2 .5 3.5.5h5.1l1.8-.5 1.7-.3 1.5-.8L77 50l1.2-.8 2.5-1.7-.3-.5-4 2-4 1.7-.3-.3 3.2-1.5v-.5H69v.6l2.3-1zM47.5 89l-.3-.5-.8.8-10 10.7-6 6.8-5.8 6.7-1.7 2.3-1.5 2.2-1.3 2.3-1 2.2-1 2.5-.8 2.5-.5 2.8-.3 2.5.5 4.2.3 2 .3 1.7.5 1.8.8 1.5.7 1.5 1 1.5 1 1.3 1.3 1.2 1.2 1.3 1.5 1 3.2 1.7 3.8 1.3 2.5.5 2.7.3h2.8l2.4-.6 2.5-1 2.2-1 2.5-1.5 2.2-1.5 1.3-1.3 1.3-1.5.7-1.3.8-1.5.5-1.4.3-1.8.3-1.8v-1.7l-.3-4.8v-.9l-1.3-2-1.2-1.5-1.5-1.5-2-1.2-1-.5-.3.3.5.7 2 2 1 1.3.8 1 1.2 2.5.5 1.3.3 1.2v2.8l-.3 1.2-.5 1.5-1 1.8-1 1.7-1 1.8-1.3 1.3-1.5 1.2L48 150l-1.7.8-2 .8-3.5.8-2 .3-1.7.3h-2l-1.8-.3-2-.8-1.8-.5-2-1-2-1.3-1.5-1.2-1.2-1.3-1-1.5-1-1.5-1-1.5-.5-1.8-.5-1.7-.3-2v-4.3l.3-2 .2-2.3.7-2.5.8-2.8 1.3-2.5L23 118l1.5-2.2 1.5-2.3 3.5-4.5 8-9 8.5-9 1.5-2zm171.2-44.7v.3l3 1.2 1.7.3 1.5.5 2.7.3 2.8-.3 2.5-.3 2.7-.5 2.3-.5 2.2-.7 4-2.3 8-4.5.2-.5.3-.5-.3-.2 2-1h-2v-.3l2.7-1h-2.7V34l2.7-.5-.5-.3h-.5l-1.5.3-.8-.3-.8-.5h-.8l-2.7.8-2.8 1-3.7 1.7-3.5 2-3.7 2-3.7 1.2-3.7.8-4 .5H219l-1.7-.2-1.5-.8h-.8v.3l2.5 1.3 2.7.5 2.7.5 2.8.3v.4l-7-.7zM80.3 41.7H80l-2.2.8-2 .2h-2.3l-2.2-.2-3.8-.5-1.8-.3-1.7-.5-4.7-2.2-4.5-2.5-1.8-1-1.8-.8-1.5-.5-1.7-.5-3.7-.5h-3.7l-.6.3 3 .5-.5.3h-1.7v.3l2.2.8v.3l-1.2.3 1.2 1v.5l.3.5 5.8 3.5 3.2 1.8 3.5 1.5 3.8 1.2 3.7.8 2.7.3h2.8l3-.5 2.7-.8 2.3-1H75l-1.7.3-1.8-.1h-1l-.8-.2 5.5-1 2.7-.5 1.3-.5 1.1-1.1zM9.5 60l-.3.5 1 .5 1 .3 2.5-.5 2.7-.2 1.3-.3v.3l-6 1.8H13l1 .3 2.2-.3 2.3-.5 2.2-.8-1.5.8-1.8.8-3.4.5.8.5.5.3h.7l.8-.3.8-.2.3.2.3.8 2.2-.8 2.5-1 2-1.3 1.8-1.5 4.8-5.5L36 49l1-1.5-1 .5-1 .8-1.8 1.5-1.4 1.7-1.5 1.5-.8-1.3-1.5 1.3h-.2L29 52l-1 .3-1 .3-1.3 1.3-1.2 1.1-1.2 1.3-.3-.3 5-5.3-1.2.3-1.3.5-1 .5-.7.8-1.8 1.4-1 .8-1 .5 1.8-2 1.8-1.8-.2-.2-1.5 1.3L20 54l-3.7 2-2 .8-2 .5H10L8 57l1.3.8 1.2.5 2.8.2v.5l-5-.5 1 .5 1.2.5 2.3.3 2-.3L17 59l-1.8.8-1.7.5h-2l-2-.3zM258 46.7l.2.8 6 7.2 2.3 2.8L269 60l1.3 1 1.3 1 1.7 1 1.5.8 1.5.5h1l.5-.5h.8l1 .3 2-.3v-.5l-1.7-.3-1.8-.5-1.8-.8-1.5-.8 2.2.8 2.3.5 2 .3 2.5-.3-6.5-2 .3-.3h.8l6.3 1h.7l1-.5-.3-.3h-3.8l-2-.3-1-.5-1-.5 3.7.5 2.5.3 1-.3.5-.3.8-.2.3-.5-2.5.5h-2.3v-.5l2.8-.2 1.5-.5.8-.3.8-.8-2.3.5h-2.2l-2-.3-1-.5-1-.5-2-1-2-.8-1-.3.8 1.3-.3.3-2-1.7-2-1.8-.8-.5-1-.5-2-.3 5.3 5.3-.3.2-1.4-.9-1.3-1.2-1.5-1.3-1.7-.8v.3l1.2 1.5h-.2l-2.2-2-.5.2.8 2L262 50l-2-1.7-2-1.6zM88.5 37.5l-.5-2.7-.3-2.8.3-2.2 1-2 .5-.8.8-1 .8-.8 1-.5 2.3-1.3 2.5-.8 2.5-.5h3.2l.4-.1.3-.5V21l-2.5-.3 3.2-.7v-.3l-2.8-.3v-.3l3.3-.3v-.3l-1.5-.2-2.5-.3h-2.7l-3 .3-3 .8-3 1.3-2.5 1.6-1.5 1.2-1 1.3-1 1.3-.8 1.4-.8 1.5-.2 1.8-.3 1.7v2.3l.3.8.5.5.8.2-.5-2v-2l.3-1.7.5-2V34l.8 1.8V31l.3-1.5.3-1.5.5-1.2-.5 2.5v5.2l.5.8.5.7-.5-3 .3-2.5.5-2.8 1.3-2.2-.8 2.7-.5 3-.3 1.5.3 1.5.5 1.5.5 1.5-.3-5.8.5 2.3.5 2.5.2.5.5.5.3.3h.5zm124.7-1.7l.5.2.5-.7.3-.8.3-2-.3-2-.5-1.8-.8-1.5-.7-1.5-1-1.3-1-1.3-1.3-1-1.2-1-1.5-.8-2-1-2-.5-2-.5-2-.3h-3.3l-3.5.5v.5l2 .5-2 .3.5.3.3.2 2.7.5-3.2.2-.3.5v.5l4.8.3 2.3.2 2 .8 2 .8 1.7 1.3 1 1 1 1.2.5 1.3.5 1.3.3 1.3V33l-.3 1.3-.3 1.5-.5 1.7h1.3l.5-.5.2-.8 1-5.5h.3l-.8 6 1-2 .3-2v-4l.5 2v4.2l-.5 2 .8-1 .3-1 .3-2v-4.3l.5 1.8.3 2-.3 2-.5 2 .8-1 .5-.8.2-1v-1l-.2-2-.3-2 .7 1.8.3 1.7v2l-.7 1.7zM31.8 185.5l-1-1.2-.5-1.3-.5-3-.5.8v2.1l1 2.5-1.5-2.2-.3.3.5 1.5-.5.3-1.2-3.7H27l.3 2.3-.8-2-.3-2v-1l.3-1 .5-1 .5-1-1 1.3-.8 1.3-.5 1.5v1.5l.5 1.3.3 1.3.8 1.2.8 1 1.7 1.8 2 1.3 2.5 1.2 2.3.8 2.2.8 2.5.3h2.5l2.3-.3L48 191l2.5-.5.5-.3.5-.5-.3-.3-1.7.3-1.5.5h-3.5l-3.2-.5-3.3-1 2.5.2 2.5.2 2.8-.2 2.5-.8h-4.5l-.8-.1-.5-.3-.3-.5 4.8-.2v-.5l-6.5-.5v-.5h3.2l.3-.3-.8-.5-3.7-1.5-1.3-1-1-1.3-.5-1.5V178l.3-.8.5-.8 1-1.5-.8.3-.5.5-.5.5-.5.8-.5 1.3-.3.8-.3.8.3.7.3.8.8 1.3-.3.3-1-1.3H35l.3 3.7-2-4.8H33v3.8l-2.2-3.5-.3.3 1.3 4.3zm144.5-134v.2l1.2.5 8.7 3.8 5 2 1.5.5 1.8.3 3.5.5h3.5l3.2-.2 2.3-.3 2-.7 2.3-1 1.8-1.3 1.7-1.3 1.8-1.7.5-1-.8-.5-.5-.3-.8.3-.5.5-1.7 1.3-2 1.2-2.2 1-2.3.5-2.3.2h-2.3l-2.2-.3-4.5-1-3-.8-2.7-1-5.8-2.3-1-.3-.8-.3-2 .3-1.8.3-1.6.9zm-98.1.5l1.5 1.5 1.5 1.5 1.7 1.3 1.8 1 1.5.8 1.5.5 4 .5 4 .2 3-.2 2.7-.3 3-.7 2.7-1.3 10-4.2-1.5-1.3-1.5-.5-2-.3-1.8.5-6.7 2.5-3.5 1.2-3.8.8-2.2.3h-4l-2-.5-2-.5-1.6-.8-1.8-1.2-1.7-1.3-.7-.5h-.5l-.8.2-.8.8zm146.6 42l-.3-1v-3l-.3-1.7-.8-1.8-.8-1.7-1.5-3-2-2.7-2.2-2.5-2.3-2.5-2.2-2.5-2.5-2.3-2.7-2.2-2.8-2-1.5-.8-1.5-.3h-1.8l-1.7.3 4 3 3.7 3.5 3.7 3.2 3.5 3.7 3.2 3.8 3 4 2.8 4 3 4.5zM106 250l5.5-1.5v-.5l-6.5 1.3-2.7.5h-2.7l-2.8-.5-2.7-1-2.3-1.2-2-1.5-1.5-2-1.5-2.2-.3-.3-.5-.5-.5.5 1.7 3.7-.2.2-2.2-4.3-.3.3 1.5 4.8-.3.3-2.3-5h-.3v1.5l.3 1 1.3 2.5-.5.3-2.2-5.5-.3.8.7 2.5 1 2.3 1.3 2 1.8 1.8 1.2 1 1.5.8 3.2 1 2.8.8 3 .3 2.7-.3 3-.5 5.7-1.5 5.3-1v-.9l-2.2.3-2.3.3-2.2.5-2.3.3 6.3-1.8v-.6l-6.2 1zm159.3-64.8l.8-2.5.3-1.3v-.4l-.5-.8-.3 1.5-.3 1.5-.8 1.2-1 1.3 1-2.5.2-1.3v-1.3l-2.2 3.8-.3-.2.5-1v-1.8l-.5-1-2 4.8.3-3.5h-.3l-1 1 .5-1.8.3-.8.2-.7-.2-.8-.3-.8-.8-1.5h-.3v1.3l.3 1v.8l-.3 1-.5.8-.7 1-1 .8-2.3 1-2.7 1.2v.3h3.5v.5l-6.2.5v.5h4v.5l-.5.5-.5.3h-4.2l-.3.5 7.7.5-1.5.8-1.3.3h-2.8l-2.7-.3-3-.5.5.5.5.3 5 1 3 .3h3l3-.5 3-1 2.7-1.5 1.5-1 1.2-1 1-1 1-1.2.5-1.5.8-1.8V179l-.5-.8-1.5 6.2h-.3l.5-1.7v-1.5h-.3l-1.2 3.5h-.3V183l-1.4 2.2zM87.2 65v-.3H71.8v17.5l3.5-4.8L79 73l4-4 4.2-4zm122.5 176l-.5-.5-.5.8-.5 1-.5 1-1.3 1.5-1.3 1.3-1.5 1-1.5 1-1.5.8-1.7.5-1.8.5h-1.8l-3.7-.3-2-.3-1.8-.5h-1.3v.3l2.5 1-6-.8v.3l4.8 1.3-.3.3-7-1-.3.3.8.3 5 1 2.5.7 2.5.5 1.8.5 1.8.5h3.8l1.7-.3 1.8-.3 3.5-1 1.8-1 1.3-.8 1.2-1.3 1-1.3 1-1.2.8-1.5.7-1.8.5-1.7v-.8h-.3l-2.2 5.3-.5-.3 1-2.3.5-1.5-.2-1.2-.5.8-.3 1-.8 1.5-.8 1.8.3-1.5.3-1 .3-1.2.3-1.5-2.2 4.3-.3-.3 1.4-3.9zM98 64l-1.8-.3h-1.7L93 64l-1.7.8-3.5 2.7-3.2 3-3.2 3.2-3 3.3-2 2.3-1.8 2.2L73 84l-.5 1.5L72 87l-.5 2.8V93l2.7-4.3 2.8-4 3-4 3.2-3.5 3.3-3.5 3.7-3.5L94 67l4-3zm125.5 17.5V78l-.3-10.5V66l-.5-.8-.7-.2h-1.5l-8-.3h-4l-.3.3 4 3.7 4 4L220 77l3.5 4.5zM45.8 48l-.8-.2-.7.2-.8.3-.5.2-2.2 2.2-1.3 1.3-1 1.5-2.2 3-2.5 3-1.5 1.8-2 1.5-1.3 1-1.5.8v.4h4.2l1.2-.3 1.5-.5 2.3-1.3 2.2-1.5 2.3-2 7.5-6.7 1.5-.8 1.5-1-.7-.2-.5.3-4.8 2.5-3 1.7-.2-.2 7.5-5.3-2.3.8-2 1L42 54v-.2l3.5-3-.3-.3-5 3.3.8-.8.3-.5-.3-.5v-.5l.8-.5 4-3zm-9.3 95.3h.5l-1-3.8h.3l.8 2.3.5-.2-.5-2.2h.3l.7 1.5.5-1.5 1.8 3.5.3.5.3.3h.5l.5-.3-.3-.8-.5-1-.5-1-.3-1.2-.3-1v-1l.5-2.3 1-2 2.7-4 3-3.5 3.5-3.8 3.7-3.5 1-1.3-.2-.2-2.8 2.5-.3-.2 1-1.3h-.8l-.8.5-.8.5-.7.5 1.2-1.5 1.3-1.2 1-1.3.5-.8.3-.8-.4.3-.3.3-2.3 2.7-6 5.8-3 3-2.7 3.2-1.8 2.2-1.2 2.5-1 2.5-.5 2.8v1.2l.3 1 .5 1.3.5.8zM244 50.7v.3l.3.3 1.2.8 1.3.8 2.5 2 4.5 4.3 2 1.8 2 1.8L260 64l2.7 1h1.3l1.3.2 1.5-.2 1.5-.3-.8-.5-2.5-1.5-2-1.8-2-2-1.5-2-3.2-4.5-1.8-2.3-2-1.7-1.3-.5-.8-.3-.8.3 1.3 1 3 2.2.2.5.3.5-.3.3.8 1-3.2-2-.3.2 2 2-3.8-2.3-1.7-1-2.3-.5 7.3 4.7-.3.5-2.3-1.3-4.8-3-.8-.3h-.7v.3zm-60 215.5v1.8l-.3 1.5-.5 1.5-1 1-2.2 1.8-1.3.5-1 .5-1.2.2h-2.8l-1.5-.2-1.3-.2-1.3-.8-1.3-.8-1-1-.8-1-.8-1.2-1-2.8-.5-2.7-.3-2.5-.5.8-.3 1v1.3l.3 1.5.5 1.8.8 2 2.3 4.5-1.3-1.3-1-1.5-.8-1.3-.5-1.5-.5-3-.5-3.2-.5 2v2l.5 2.8.3 1.5.5 1.3.8 1.3.8 1.2 1.3 1 1.3 1 1.7 1 1.8.8 2 .3 2 .3 2-.3 2-.5 1.8-1 2-1 .8-1 .8-1 .5-1.3.5-1.5v-1.3l-.3-1.5-.3-1.3-.7-1.5zm-55.3 8.1l1.3-2.8 1-3 .5-3 .3-3-.3.3v.3l-.8 2.7-.8 2.8-.8 1.7-1 1.3-1 1.3-1 1-1.5.5-1.5.5-1.5.2h-2l-1.3-.2-1.2-.2-1.3-.8-1.3-.8-1-1-1-1-.8-1-.3-1.3-.5-1.8-.5 1.3-.5 1.3v1.5l.3 1.3.5 1.3.5 1 .8 1 .8.8 1.7 1.3 2.3.8 2.5.5h2.5l2.2-.5 2.5-.5 1.2-.8 1.3-1 1-1 .8-1.5 1-2 .8-2.2.3-2.3v-2.2l-.3-1.5-.5 3.2-.7 2.8-.5 1.5-.5 1.3-1 1.3-.7.6zM241 117.7l-.3.3 3.3 2.8 2.7 2.7 2.7 3 2.5 3.3 2 3.2 1 2.2.3 1.3.3 1v1.3l-.3 1.2-.5 1-.5 1.3-.5 1 .5.3.5-.3.3-.3.3-.3 1.8-3.7.8 1.7.3-1.7.5.3-.5 2.2.7-.8.3-.8.3-1.7h.5l-1.3 5.7 1-1.5.3-1 .3-1v-2l-.3-2-.5-2-1-1.8-1-1.8-1.3-1.7-1.5-1.5-8-8.5-4.8-4.7-.5-.5-.5.3 4.8 5.3h-.3l-2.5-2-.5.2 1 1.5-2.4-1.5zM49.3 25l.3-.3 5.3 9.3.5-.8.5-.8v-.8l-.3-1-.2-2-.9-1.6-.8-1.5-1-1.8-1-1.3-1.4-1.4-1.3-1.3-1.8-1-.5-.2h-.3l-.2.2-.2.5-.8 3.2v3.1l.3 1.5.5 1.5.5 1.5.8 1.5.3.5.5.5 4.5 1.5-3.3-9zM249 18.5l-1.5.8-1.5 1-1 1.3-1.2 1.2-1.5 2-1 2-1 2.5-.2 2.5V33l.2.5.5.5 5.3-9 .3.3L243 34l.5.3 1.5-.8 1.3-.5.8-.3.5-.3 1-1.2.5-1.8.5-1.8.4-1.6v-4.8l-.5-1.5-.5-1.2zm-167.2 20l1 1.5 1.3 1.2 1.5.8 1.7.5 2.8-.3 2.7-.3 5.3-1 5.5-1 1-.3 1-.5 1-.5.8-.8 1.3-.8 1.2-.8 1-.7-2-.5h-3.7l-1.7.3-5.2 1.7-5 2-2 .5-1.8.5h-2l-1.7-.3-2-.8-2-.4zM184 36.2l4 3 .8.3.8.3h2l1.8.3 10.3 2.2 2.5.3h2.3l1.2-.3.8-.5 1-.8.8-1h-2.5l-2 .3-2-.3-2-.5-1.8-.8-4.5-1.8-4.5-1.5-2.2-.5h-2.3l-2 .5-2.5.8zm-81.2 27.5l-2.3.3-1.2.3-1 .5-2.5 2-2.8 2-2.2 2-2.3 2-3 3-2.8 3.2-3.7 4.2-3.5 4.5-1.8 3-1.7 2.8-.5 1-.3.8-.3 2-.3 4 2.7-6 3-5.3 3.5-5.2 4-4.8 4-4.5 4.8-4.3 4.8-4 5.4-3.5zm122 37.5v-4l-.3-1.3-1.8-3.8-2.2-3.5-4.8-6.5L213 79l-2.8-3-4.5-4.3-2.2-2.3-2.5-1.8-2.5-2.2-1.3-.8-1.3-.5-1.2-.3-1.5.3 5 3.5 5 3.8 4.5 4.2 4 4.5 3.7 4.8 3.5 5 3 5.5 2.9 5.8zM179 53.8l-.3.5 5.5 3.5v.2l-6.5-4-.3.5 4.8 3.5-.3.3-4.8-3.3-.3.3 1 1.3 1.3 1.3 1.3 1 1.5.8 5 1.5 2.5.5 2.5.3 2.5.3h2.7l2.5-.3 2.5-.5 2.5-.5 2.3-1v-.3l-3.7.5h-7l-3.5-.5-1.7-.7-1.7-.7-9-4-1.3-.5zm56.3.9l-.3-.5-1.3.3h-1.3l-6.2.2-2-.2-2-.3h-1.5l-.5.5L218 57l-1.2 1-1.3.7-.5.5h1.3l5.3.3h2.5l2.7-.5h3.4l.5-.3 2.5-2 2.1-2zm-174.8-.5l-.3.3L62 56l1.5 1.5 1 .8.8.5 1.3.3h7l6 .2h.4l-5.3-5h-1.3l-9 .5-2-.2-1.9-.4zm28 5.3v.3l3.2 1.3 1.8.5 1.5.3 4.5.3 4.3-.3 4-.5L112 60l1.3-.5 1.2-1 1-1.2.5-1.3-6 3.5v-.3l7.3-4.5-.3-.2-5.8 2.8V57l3.5-1.8-.3-.5-3 1.3-3 1.3-2.8 1.2-3.7 1-3.4.5h-3.7l-3.8-.3-2.5-.2zM122.3 8h5.4l1.5.8 1.3 1.2 1 1.5.7 2 1 2.3 1 2.2 1 1.3.5.5h1.5l1.5-1 .5-.5-.3-.7-1.8-3.8-1.5-3.2-.6-1.4-1.3-1.2-1.5-.8-1.7-.5h-4.2l-2 .5-2 .8zm33.2 10.2l1.3.5 1.3.8.5.3.5-.3h.5l.3-.5 1-1.2 1-2.3 1.5-4 1-1.5 1-1.2 1.5-.5 2-.3h3.7l1-.3-2-.5-1.9-.2-2.5-.3H165l-1.7.3-1.5.5-1.3 1-1 1.2-1 1.8-.8 2-.3.3-1.9 4.4zm-16.2 30.3l-2.3-1.3-.5-.2h-.8l-.5.5-2 3.5-1 2.5L131 56l-.5 1-1 1-1 .5-1.2.3-4.5.3 2.5.8 2 .5h1.7l1.8-.3 1.5-.5 1.3-.8 1.3-1.2 1-1.3 1-1.8 2.4-6zM33 99v-3.2l-.2-1.3-.3-1.5-.5-1.3-.8-1.3-1-1.2-1-1.3-1.5-1-1.5-1h-1l-.2.6v3.7l.3 1.5.5 1.8.8 1.2.8 1.5 1 1.3 1.2 1.3.8.5 1 .5.3-.2-3.4-7.6 1.2 1.8 1 1.7 1 1.8L33 99zm139-39.5V59h-2.5l-1.3-.3h-1l-1-.5-1-.5-.8-.8-.8-.8-.5-1-.5-1-.5-1.7-.8-1.5-1-2-1.3-1.8-.5-.2h-.5l-2.8 1.5 3 6.7.5 1 .8 1 1 .8 1 .7 1.3.5 1.2.5 2.5.3 2.7-.3 2.8-.1zM147 12h.8l.5 1.5v1.8l.3.5v.5l.5.3.8.3h1.8l.3-.5v-2.7l-.3-1-.3-1-1.7-3.2-2.5-3.5-1.8 3-1.7 2.5-.5 1.8-.5 2v1.3l.3.4.3.5.3.3h2l.8-.3.6-4.5zM35.5 196.3l-.3.3-1.5-4-.8-1.3-.2.3.2 1.8.8 2.2 1.3 1.8 1.8 1.7 2 1.3 1.5.8 1.7.5 1.8.3h1.8l1.2.3.8-.3.5-.5h.5l.8-.3H51l-.7-.3.3-.3 1.7-.3-1-.5-.7-.3-3.5-.3-2.7-.8-1.3-.3-1-.7-1-.5-1-1-.8-1.3-.5-1.2-.5-.5-.8-.5-.2.5 1.2 4h-.3l-2-4.5H36l.8 4.3-1.8-3.5h-.3l.8 3.1zM66.8 35.5l-4 3.7.3.5.5-.3.5-.3 1.7-1.8 2-1 2.2-.7 2.5-.3h1l.8-.3.3-.5.3-1.3h-2.2l-2 .2-.8-.2-1-.5 1.2-.5 1-.3 4.5-.8h.8l-.4.2-.5-.3h-2l-3.7.7 1-.5.8-.5 2-.3 4-.3-1.3-.5-1.3-.1h-2.3l-2.5.8-2.2.7 1.2-.8 1.3-.8 1.3-.3h1.5L76 29h3l-2.7-.5-.8-.3h-1.3l-.8-.5-1.2.5H71l-1.8.3-1.5.8-1.5.7-1.2.8-1 1-.8 1-.5 1 2.2-1.3.5 1-.8 1 .3.3 1.5-.8.4 1.5zm165.4-2.3h.2l-.2-.5-.3-.5-1.7-1.5-.8-.5-.8-.5-2.5-.8-2.5-.5h-.6l-.3-.3-.3-.5h-.4l-.5.5h-1.3l-3.5.8v.5l2.7-.5h2.7l2.8.8 1.3.5 1.2.8-4.8-1.3-1.2-.3h-1.3l-1 .3-1.3.5h4l1.7.5 1.8 1-1.5-.5-1.5-.3h-1.7l-1.5.5h1.8l2 .3 1.8.5 1.8.8-.5.5-.8.2H224l-3.5-.2 1 2.3 1.5-.3 1.3.3 1.5.2 1.5.3 1.3.5 1 .8 1 .8.7.8.8.5.8.3-.3-.8-.5-.5-3.2-3 .1-1.7 1 .5 1 .5.2-.3-1.7-1.5.8.3.5-.3v-1l1.4 1zM17 149.2l-.5-.2.3-.7v-1l-.3-1-.3-.8-.5.3v3l.3 3 .8 2.7 1 2.5 1.3 2.5 1.7 2.5 2 2.3 2.2 2 2-3.8-1.3-.7-2.2-2-2-2.3-1.5-2.2-1.2-3-1.5-4.5H17v1.4zm130.8-87.4l1.5-2.8 1.7-2.8.5-1.5.3-1.5v-1.5l-.3-1.8-1.7.2-.5.3-.5.3-.3.5-.3.8-.3 1.5-.3 1.5h-.6l-.8-4.3h-.2l-1.7-.5-.5-.2-.5.2v.5l-.3.5v1.5l.5 1.5.3 1.3.8 1.3 1.5 2.5 1.7 2.5zm122.7 104.5l2-1.8 1.8-2 1.8-2.5 1.5-2.7 1.3-3 .8-3 .5-3-.3-1.3-.3-1.5-.6.5-.3.8v.5l.3.8v1h-.5l-.3-1.2-1.5 4.5-.7 2-1 2-1.3 2-1.5 1.5-1.7 1.5-2.3 1.2 2.3 3.7zm5.7-115.8l-.2.3-2.3-1.5-2.2-1.8-2-1.5-1.3-.8-1.2-.5 3 2.7 3 2.5 7 5 1 .8 1 .5 1 .3h1l1-.3 1-.2 1-.5 1-.8.8-1.2.3-1-.5-1-.8-1-.3.8-.5 1.5-.8 1-.5.2-.7.3h-.5l-.8-.3-2.3-1.2-2.2-1.5-2.8-2.2-2.7-2.3-2.2-1.5L269 44h-.8l8 6.5zM267.5 91l.5.3-4 8.3 1.5-1 1.5-1.3 1.2-1.8 1-2 .8-2 .5-2v-1.8L270 86l-1.8.5-1.5 1-1.5 1.5-1 1.7-1 2-.5 2-.2 2.3.2 2.2 4.8-8.2zm-240-47.2l-3 1.2-2.7 1.5-2.3 1.8-2.2 2.2-1.3 1.2-1.5 1-1.8 1-1.7.5-.7-.2h-.8l-.8-.7-.5-1-.3-1v-1l-1 1.3-.5 1 .3 1 .8 1 1 1 1 .5 1.2.5 1.3-.3 2-.5.8-.3.7-.5 4.8-3.5 4.8-3.8 3-2.5-1.3.5-1 .5-2 1.5-2.3 1.5-2 1.5-.2-.3 8.2-6.6zm78.2.7h4l1.8.3 1.5.7 2 .8 2.3.8 2 .5h2.5l1.2-.3 1.3-.5 2.5-1.3 2-1.5 2-1.8.3-.8-.3-.8h-1l-2 1.5-1.7 1.3-2 .8-2 .3h-2.3l-2.7-.3-2.8-.5-3-.5-2.7-.5-1 .3-1 .3-.6.7-.3.5zM189.3 22l-1 .3-1.3.2h-1.2l-1.5-.2-1.3-.5-3.5-1.3-3-1-1.5-.3h-1.5l-1.5.3-1.5.5-1.3.5-1.3.8-2.2 1.7-2.3 2 .5.8.3.5.5-.3.8-.5 1.3-1 1.2-.8 1.5-.8 1.3-.5 1.5-.2 1.5-.3h1.5l1.7.3 3 .7 3.2.8 1.8.5 1.5-.3 1.5-.8 1.3-1.1zm-23-16.3l.3-.3-1-.8-1.4-.6-2.5-.5-1.5-.3-1.2.3-1.2.3-1.3.5-1 1-1 1-.5 1-.5 1.5-.8 4-.5 3.8.3.5.3.3 1 .5h1l1-.5.5-1.3v-4.3l.3-2 .3-1.5.8-1.3.8-1 1-.8 1.3-.5h2.8l1.5.8 1.2.2zm76.2 195.8l.3.3h9l2-.3 2-.8 1.3-.5 1-.8 1-1 .3-.5.3-1 .3-1 .3-1 .8-2 .3-.8v-.8h-.3l-.5 1.8-.5 1.7-1 1.8-.7 1.5-.5-.2.7-1.5.8-1.3.3-1.5.3-1.7-2.7 6.2h-.3l1.7-5.5-.5-.5-.5.5-.5.5-.5 1.7-1 1.5-1.5 1.3-1.7.5-1.5.5-1.7.3-3.3.5-2 .5v.3l1.7.3-1 .5v.3h3.2v.3h-5.4v-.1zM131.3 25l-2-1.8-1.5-1.2-1.7-1-1.5-.8-1.7-.8-2.5-.3-2 .3-2.4.6-2 .8-2 .8-1.8.8-2 .2h-1.8l-.3.3.5.5.8.5h3.5l3.2-.5 3-.8 3-.5h1.5l1.2.3 1.5.2 1.3.5 1.3.8 1.2 1 1 .8 1.3.8.9-1.5zm-3.1-19l1.8-.8 1.5-.5 1.5-.3 1.5.3 1.5.8 1.2 1 .8 1 .5 1.5v1.5l-.3 1.5.3 1.7.3 1.8.8 1.5.3.8h.8l1.2-.3.5-.3.3-.5v-1l-.8-5.3-.3-2.2-.5-1-.5-1-1-.8-1-1-1-.5-1-.5-1.2-.3h-1l-1.4.4-1.2.3-1 .3-1 .3-1 .7-.6.9zM55.7 35.8l.8.7.5.2.5-.2.5-.5.5-.7 1.5-1.5 1.5-1.3 1.5-1.2 1.5-1.3 1.8-.8 1.8-1 4-1.3 1.7-.2 1.8-.3 1.8.3 2 .7 1 .2.3-.8.3-1v-.5l-.5-.3h-1l-2-.5h-2l-3.7.8-3.8 1.2-3.7 1.7-3.3 2-1.5 1.2-1.5 1.3-1 1.5-1.3 1.6zM164 40.3v1.2l-.3.3.3.5 1.5 1.5 1.8 1.2 1.7 1 1.8.8 2 .5h2l2.2-.3 2-.5 2.3-1 2.5-.7 2.2-.5h2.9l-1-1-1-.5h-1l-1.3.3-6.5 1.3-2.7.5-2.8-.3-1.2-.3-1.4-.3-1.5-.8-1.2-.8-3.3-2.1zM67 59.7l-.3.5 2.7 2 .5.5 1 .2h14.8l2.2-.2-5.5-2.3-1-.5-1-.3H67v.1zm61.5 1.3l-.3.5 3 1.5 1.7.5 1.8.2 1.5-.2 1.5-.5 1.3-1 1-1.3.8-1.3.5-1.7 1-7 .3-.8-.3-.3-.3-.3-1.2-.5h-.5l-.5.5-.8 1.7-.3 1.8-.3 2.5v2.5l-.3 1.2-.3.8-.8 1-1 .5-1.5.8-1.5.3h-1.5l-1.5-.5-1.5-.9zm37.8.3l-.3-.3-3.7 1h-2l-1-.3-.7-.5-.8-.5-.5-.8-.5-1-.3-1-.3-2.8v-3.5l-.3-1-.5-.8-.5-.5-.5-.5h-.4l-1 .5-.3.5-.3.8 1 6.5.3 1.2.5 1 .5 1.3.8.8 1 .8 1 .5 1.3.5 1.2.3 1.8-.3 1.5-.3 1.5-.5 1.5-1.1zm49.2-33.8l2.2-.5 1-.2h1.3l2.5.2 2.5.5 2.5.8 2.3 1 2 1.3 2 1.5 2 1.8 1.8 2 .5.7.5.2.8-.2.5-.5-.3-.5-2-2.3-2-2.2-2.5-1.5-2.7-1.5-3-1.5-3.5-1-3.2-.5-1.8-.3-1.9.2-1.5.3h-.5l-.3.3v.8l.8 1.1zm-170 31.2l2.5 3.5 1.8 3.5 1.2 3.5.5 3.8v3.5l-.5 3.8-1.2 3.7-1.8 3.7.3.3.3-.3 1.5-2 1.5-2.2 1-2.5.3-1.2.3-1.3v-3l-.3-3-.3-3-.5-3-.8-2-1-2-1.3-2-1.3-1.8-.7-.7h-.7l-.8.7zM179.3 33l-3.2-1.3-3.3-.7-3.5-.5-3.2.3v1.7l1.3.3v.2h-1v2l.8.5h1.2l3.3-.3 3.7-.8 2-.5 1.9-.9zm-50.6-2.5h-3.2l-3.5.5-3 .7-3.2 1.5 2.7 1 3 .8 2.7.3 3 .3 1-.3.5-.3v-1.8L127 33v-.3l1.7-.3v-1.9zm33.3-7.8l1-1.5.7-1.5 3-7 .5-1 .7-1.3.8-1 1.3-.7.3-.3H168l-.7.3-1 .2-.8.5-.5.8-1.3 2-1 2-.8 2-1 2-.8 1-.8.8v.5l.3.3 2.4 1.9zm-65.3 3.8l-2 1-1 .8-.7.7-.5 1-.5.8-.5 1.2v2.6l.3.8.5.7.5.5-.3-.7-.3-1.3v-1.3l.3-1 .3-1.2.5-1 .8-1 1-.8 1.2-.8 1.5-.5 1.8-.2 1.7-.3 1.8.3h1.8l-.5-1.5-.3-.5-.3-.5-.8-.3-.8-.3H101l-1.5-.3 3.5-.3-1.8-.2h-1.7l-2.5.3-2.5 1-1.3.5-1 .8-1 .8-1 1-1 1.5-.2.7v1l.5-1.3.8-1.3 1-1 1-.7 1-.8 1.3-.8 2.7-.8-3 1.5-1.3 1-.8.5-.5.7 2-1 2.2-1 2-.5 2.3-.3-2.2.8-2.5.8-1.5.5-1.3 1-.7.7-.3 1 3-2.3.8-.5 1.2-.2zm73 31.8V58l-.5-.5-1.3-1-.7-1.3-.8-1.3-.5-1.5-.8-2.3-1-2.2-1-2-1.3-2-2.5 2 2.5 4.8 1 2.5 1 2.2 1 1.3 1.5 1 1.5.5h1.9v.1zM133 22.7l2-1.7.3-.5v-.3l-.3-.2-.8-1-.5-1-1-2-.8-2-.7-2.2-.5-.8-.8-.8-.8-.8-1-.5-.8-.5h-1l-1.3-.3-1 .3 1 .5 1 .8.8.8.5 1 1 1.8.8 2 .8 2.3 1 2 1 1.8 1.1 1.3zm-8.3 35.6h2l1.7-.5 1.3-1 1-1.5 1.2-2.5 1.3-3.5 1-1.5.5-.8.8-.8L133 44l-.8 1-.5.8L129 52l-.5 1.8-.8 1.5-1.2 1.3-1.3 1-.5.7zM12.8 166.7l1 1.5 1 1 .7 1 1 .7 1 .5 1 .3 1.2.3h2.6l.5-.3.5-.5.2-.5v-.5l-.5-.5-.8-.5-3.7-.8-.8-.5.3-.5 5.5 1.3-1.3-1-1-.8-1-.5-1-.5-1-.3h-2.5l-1 .3-1.3.3-.6.5zm258.9 2l1.5-.2 1.5-.5 1.3-.3 1.5.3-.3.3-.3.3-4 .8-.8.3v.3l-.2.5.2 1 .3.5.8.3h1.8l1.5-.3 1.3-.3 1.3-.7 1.3-.8 1-1.3.8-1 1-1.5-5-.5h-1.3l-1 .3-2 1.2-2.2 1.3zM190.5 32.2l.5.5 7.8 2.5h.5l.3-.3.5-.8.3-1V32l-.5-1-1-1-1.5-.8-1.5-.5h-4.5l-1.7.5 4 1.5-3.2 1.5zM228.8 60l-.3-.3-3 .3-1.5.3h-4.2l-4-.3-1.8.3-1.7.5-3.3 1.5.5.3h7.5l7.2.3.8-.3h.8l1-.8 1-.8 1-1zM105.7 29.2l-1-.2-1.3-.3H101l-2.5.5-1 .5-.8.5-.8 1-.5 1-.3 1.3.5 1.3.2.5.3.3h.5l.5-.3 3-1.3 5-1.8-3.2-1.5 3.8-1.5zM45 158.2l4 1.3h3.3l1-.5 1-.5 1-.5.7-.7.5-.8-1.7-.8-2.3-.5-2.2-.2-2.5.2-2.2.3-2 .5-1.7.8-1.5.7 11.2-.7v.3l-6.6 1.1zm210.2-.7v-.5l-4-1.3-2.2-.5-2-.2h-2l-2 .2-2.3.5-2 .8 1.3 1.2 1.5.8 1.3.8 1.8.5.2.3.5-.3 5-1.5-6.5-1.2.3-.5 11.1.9zm-150.4 87.8l-2-.3-1.8-.3-1.7-.8-4.3-2.2-1-.5-.3.3 4.5 3.2-1.8-.8v.3l1 1-.3.3-2.7-2v.8l-1.5-1.5-.3.5 2.5 2.5-1-.3.3.8-2.5-.5 1.3 1.3 1.3.7 1.7.5h3.3l1.7-.3 1.5-.5 1.5-.8h-4.5l-.5-.3-.8-.3h3l1.8-.3 1.6-.5zm118.9-35l-1 .3-1.5.3-1.3.5-1.3.7-1.2 1-1 1-1 1.3-.8 1 3.7.3 1.8.3 2 .8 1.6-7.5zM40.5 71.5h-.3l1.3 4.2 1.2 4.3.5 4.5.3 4.3 1-1.3.5-.5.3-.8v-3.5l-.3-3.2-.8-3.2-1.3-3-.5-1-.7-1-.3.3.5 1.7h-.2l-1.2-1.8zm40.3 144.7L80 215l-1-1-1.2-1-1.3-1-1.3-.7-1.3-.5-1-.3-1.3-.3 1.3 6 .5.5.6.3 6.8-.8zm110.4 30.3l-.3.3 1 .8 2.5.5 2 .3h2l2-.5 2-.7.8-.5.5-.8-.3-.3-4.2 1.8 1.7-1.3-.8-.3 1.8-1.8-1 .3.3-1-3.2 2.5.3-1.3-1 .3v-.3l1.8-1.3-1 .2-1 .3-2 .8-2 .8h-2l1.5.5 1.5.5h3.3l-.8.3-.8.3h-1.5l-1.5-.3h-1.6v-.1zm62.5-180.7l-.5-.3-3.5 7.5-.5-.3 2.3-5.3-.3-.2-.8 1-1.3 3.3-.7 1.5-.5 1.5-.2 2.5-.3 2.8.5 2.5.8 2.5.7.7v-5l.5-2.3.5-2.5.3-.5v-1l-.3-.5v-.5l1.8-4 1.5-3.4zm.3 5.7l-.7.3-.5.2-1 2.5-.8 2.7-.5 2.8-.3 3v2.7l.3 1 .5.8 1 1.3v-4l.3-4 1-4 1-3.7-1 .5.7-2.1zm-208 14l.7-1.2.5-1.3.5-1.3.3-1.2V78l-.5-2.5-.3-2-.8-2.2-2-3.8-.3.3 2 5.5H46l-1.5-3H44l1.3 3.8v.2l-.8-1.3.8 3.3.5 3 .3 3v3.2H46zm2.5 96.7l-1.3-1.8-1-1.2-1-.8-.8-.8-1.3-.5-1.1-.1-1.2.3-.5.3-.3.4-.3.5.3.8.3.5.5.7.5.3 1.5.8 1.8.5 2 .2h1.9v-.1zM10.7 53.3v-2.6l.3-.5 1-1 1.3-.8H16l1-.5.5-.5.5-1-.5-.3-.8-.1h-2.2l-1.8.3-1.5.7-.8.2-.6.8-.5.8-.5.7-.3 1.3.5 1 .8 1 .9.5zm28 73.4l-1.5.3-1.5.8-1.5 1.3-1.3 1.3-1.2 1.7-.8 1.8-.5 1.5v1.5l.8.8.8-1.3v.3l-.3.5-.5.5v.3l.3.5.8.5.3-2.5.3-.8.5.2.3-.2v-.7l1.5-2.5 1.3-2.5 1.2-1.5 1-1.8zM264.5 137l.2-1.8-.5-1.5-.8-1.8-1-1.7-1.3-1.3-1.5-1.3-1.5-.8-1.2-.3v.3l1.5 2 1.5 2 1.3 2 .8 2.2.5.3.2.2.3.3.2.8.3 2.3h.5l-.3-2.3.3-1.3h.3l.2 1.7zM178 264.3v-.3l2-1.3-1-.3h-.8l-1 .3-.7.8-.5 1-.3 1v1l.5 1 .7.8 1 .3 1 .3 1.3-.3 1-.8.7-1 .5-1v-1.2h-1l-.5.3-.5.5-.4.6.3-1.2-.3-.3-1.8 1.5v-.2l1.8-2.2-2 .7zm-146-139l.3.3 1-.8 1.8-2 2-1.5 4.2-3 5-3.5 4.7-3.5 2.8-2.3 2.7-2.7.5-.5.3-.5-.3-.5v-.5l-1.5 2-1.7 1.7-1.8 1.8-2 1.5-4.2 2.7-4 2.8-4.3 3-2.2 1.7-1.8 1.8-1.5 2zm181.5 97.2l1 .3v.5l-4.5 1 .8.5h.5l2.5-.5 1.3-.3 1-.5 1-.8 1-.8 1.3-2 .5-.5v-.4l-.5-.3h-.8l-3.2.3-3.5.8-.5.3-.5.7.3.3 2.2-1.2.3.5-1.2 1 .3.3 3-1.7.3.5-1.5 1.2v.3l1.5-.5v.3l-2.6.7zM183.2 24.7v-.5l-4.8-1-1.7-.5h-3.5l-1.7.3-1.5.5-1.5.8-1.5.7-1.5 1.3-.8.7v.5l.3.5.5.3h.3l.8-.5 1.5-1.2 1.5-.8 1.4-.8 1.5-.5 1.5-.5h3.5l1.8.3 2 .3 1.9.1zm-101.9 197v-.3l-1.5-1.2.3-.5 3 1.7.3-.3L82 220l.3-.3 3 1.7-.8-.8-.8-.7-1.3-.5-1.2-.5-1.3-.3h-2.8l-1.1.4.5 1.5.8 1.2 1.2 1 1.3 1 1.8.5 1.5.5h1.5l1.5-.3-5-1.3v-.5l1-.3-2.3-1v-.3l1.5.7zm30.5-179.5l-.3.3 4.5 1 1.8.5h3.5l1.7-.3 1.8-.5 1.5-.5 1.5-1 1.5-1.3.5-.5.3-.5-.3-.5-.3-.5-1.3.8L125 41l-1.8.8-1.5.8h-1.5l-1.8.2-3-.2-3.6-.4zm53.7-3.7l-.5.3v.8l.3.5 1.5 1.5 1.7 1 1.8 1 2.2.5h2.5l2.5-.3 4.8-1 .5-.5-4.2.3-2.5.2-2.3-.2-2.5-.5-2-1.3-3.8-2.3zm37.8-11.3l.3-.7-4-2-2-.5-2-.3h-2.2l-2 .3h-.5l-.2.5-1.3 2.3h.8l3.2-.3 3.5-.3h2l1.7.7 1.8 1 1.5 1.8.5.5-.7-1.5-1-1.3-1.3-.7-1.5-.8-3-.8-3-.8 2.5.2 2.5.3 2.2 1 2.2 1.4zM23 173h-2l-1.5.5-1.5.8-1.5 1-.5.5-.3.8-.3.8.3.8.5.5.8.3h.8l1-.3 1.5-1 1-1.5 1-1.5.7-1.7zM78 41v-2.5l.8-2.3.5-2.2v-1.3l-.3-1.2-1 1-1 1-.8 1.3-.5 1.5-.5 1.5L75 39v1.3l.3 1L78 41zm91 219.3l-.3-.3-1 3h-.3l.7-4.3h-.1l-1.2 4.5.3-3.7-.8 1-.3 1.5v1.5l.5 1.5.3 1.7.8 1.3.7 1.3 1 .8-.3-1.8v-3.5l.3-1.5.5-1.8.5-1.5 1.5-3.3h-.5l-2.5 4.5.2-.9zm-53.3 2.4l2.3 1.8-2.3-1v.3l2 2.5-.3.3-2-1.7.3 1-2.2-1.5-.5.3 1.2 2.5.8 1 1 .5h1l1-.3 1-.5.5-1 .3-1v-1l-.8-1-.7-.8-1.3-.5-1.3.1zM129.5 28l.3-.3.3-.5-.3-.5-.3-.3-1-.8-1-.8-2.2-1.3-1-.5-1-.2-2.7-.3-2.7.3-2.8.5-2.5.8-.5.3h1.8l1.7-.3 3-.3h1.5l1.3.3 1.5.3 1.1.6 1.5.8 1.3.8 1.2.7 1.5.7zm148 18.5l.5 1 .5.5.8.3h.5l.8-.3.7.3 1.8.5.8.5.5.5.5.8.3.8v1l-.3 1 .7-.3.8-.5.3-.5.3-1v-1l-.3-1-.8-.8-.7-.5-1.3-.8-1.5-.5-1.4-.5h-2.5l-1 .5zm-242 50.2l.5.3 2-2.3 1.8-2.2.5-.5-.3-.8-.3-.5-.7-.5-1-.2-1 .3-.8.3-.8.8-.4 1.4V94l.3 1.5.2 1.2zm211.8 85.5h1.8l2.7-.5 1.5-.8 1.2-1 .5-1v-.5l-.3-.5-.3-.5-.8-.5h-.5l-.5.3-1.8 1-1.5 1-1.2 1.2-.8 1.8zm-27-140.5l.3-1.5-.3-1.3-.3-1.3-.3-1.3-.8-1.2-.8-1-.7-1.3-1.3-.8.5 2 .3 2.2.5 1.5.2 1.5v1.2l.3.8.8.3h1.6v.2zm52.2 131l.3 1 .3.5.8 1.2 1.3 1 1 1 1.2.5.8.3h.5l.3-.3.5-.5.2-.5v-.8l-.2-.5-.5-.5-1.3-1-1.5-.8-1.8-.5-1.9-.1zM203.3 43.3V43l-3.5-.8-3.5-.8-1.7-.5-1.8-.3h-3.5l.5.8.8.8.7.3 1 .2 2.5.3h2.7l5.8.3zM20 152.5l.3 1.2.5 1.3 1.3 1.8 1.3 1.5 1 1.3 1.3 1 1.5.8.5.3h.8l-.3-.8-.2-.5-1.8-1.5-1.5-1.5-1.2-1.8-1-2-.5-.5-.5-.2-1.5-.4zm84.8-111.8h-2.5l-3.7.8-3.7.8-1.3.5-1 .5h1.3l8.7-.5 1-.2.5-.3.5-.8.2-.8zM109 46h-1.5l-1.5.3-2.7 1-2.8 1-2.8.7 1.8.3h2l5-.8 1.3-.3.5-.3.5-.8.2-1.1zm150.5 51l.8-3.2v-1.3l-.2-.8-.5-.5-.8-.3-.7-.3h-.8l-1 .3-.5.5v.8l3.7 4.8zM39.8 193.3l.5 1.5.8 1.5 1.2 1 1.5.8 2.5.5h7.2l-.3-1.2-3.7.3h-1.8l-1.7-.3-1.8-.5-1.5-1-1.5-1-1.4-1.6zm215.9-.3l-1.5 1.7-1.5 1.3-1.8.8-1.8.5-1.7.3h-2l-3.7-.5-.5 1.5h7.5l1.5-.3 1.3-.5 1.3-.5 1.2-1 .8-.5.5-.8.3-1 .1-1zm-63.5 48.3h2.3l1-.3 1-.5 1-.5.8-.8.5-.7.5-.8.3-.8-.3-.3-.5-.5h-1l-5.6 5.2zm-88.9 0l-6-5.5-.8.8-.5.4v.3l.3.8.5.7.8.8 1.5 1 2 .8h2.2v-.1zm-54-168.6h.3L49 70l-.8-2.5-1.2-2.8-1.5-2.5-.5-.4-.5-.3-.3.3-.5.2v1l.3.5 1.8 2.8 1.7 3 1 1.8.8 1.6zm77.5 197.1l.7-1 .8-1 .5-1.3.3-1.2.3-1.3.3-1.3-.3-1-.3-1-.3 3.5h-.3l-.3-2h-.2l-.3 1.5-1-4.5h-.5l.6 10.6zm-3.6-220.1l.3.3 2.5-1 2-1.5 4.3-3.5.3-.5-.3-.5-.7-.3-.6.3-4.5 3.7-3.3 3zm123 22.8l5.5-9.5v-1l-1-.5L249 64l-1.5 2.8-.8 2.7-.5 3zm20.8 88.8l.5.3h.5l1.3-.5 1.3-1 1.2-1.3 1.5-1.5 1-1.5.8-1.5.5-1.5H274l-1.3 2.5-1.5 2.2-2 2-2.2 1.8zM120.8 55.7l.2.3 3.2-1.8 3.2-2 .8-.8.5-1 .5-2-2 1.7L125 52l-2.2 1.8-1 1-1 .9zM44 193.7l2 .8 2.2.5h4.2l-.3-1-.3-.7-.3-.5-.5-.3-7 1.2zM170.8 49.3l.2-.3-7.5-6.3h-.5l-.3.3-.3.5v.5l.8.8 1 1 1.5 1 1.5 1 1.7.8 1.9.7zM171 18h-1l-1.3.5-2.5 1.3-2.3 1.5-1.5 1.5v1l.6.2h.5l.3-.3.5-.3 5.8-4.8.9-.6zm85.3 101.2l.3-.5-15-10.3 3.5 3 3.5 3 3.7 2.5 4 2.3zM46.7 139l-.3-.8-.2-.8-.5-.5-.5-.3h-2l-.3.5v1.8l.3.3 1.8 2 1.7-2.2zm85.8-116l-1.7-1.5-2-1.5-2-1.3-2.5-1 .5.7 6.3 5.3.5.3h.5l.3-.3.1-.7zm120.3 115l-.3-.3v-1l-.5-.3h-.5l-1.3.5-.5.2-.5.5-.2.8v.8l.2.7.5.8.3.3.5.3.3-.3.5-.3 1.5-2.7zm-73.3-99.2v-.5L169 39.5l.8.5 1 .5h3l1.8-.2 1.5-.5 1.5-.5.9-.5zm-65.7.2l3.2.5 2.5.5 2.5.5.8.3 1-.3.8-.2.8-.5-4-.8-3.2-.5h-2.5l-1.9.5zm-46.3 1.5l4.2.3.5-.3.3-.5v-1l-.3-.5-.2-.3-.5-.2H71l-1.5.2-1.2 1-.5.5-.3.8zm-10-10l1.8-1.5.5-.8v-1.5l-.5-.5-1-.5h-1l-.6.3-.3.3v1l1.1 3.2zm180.5.3l1-3.8-.2-.5-.3-.5h-1l-1 .3-.5.5-.3.5v.7l.3.5.8 1 1.2 1.3zm3.5 130.2l-3.5-2-.5 5.5 4-3.5zm-183.7 3.2l.2-.2-.5-5.3L54 161l3.8 3.2zm192.7 30.5v-.5l-7-1-.5 2 3.7-.3 3.8-.2zm-27.3-154l5-.5-.8-.8-.8-.5-1.7-.5h-1l-.8.3-.3.8.4 1.2zm-65.4-29.5l.8-2 1.2-1.5 1.5-1 2-.8-1.3-.4h-1l-1 .3-.8.8-1 1-.5 1-.3 1.2.4 1.4zM222 224l1-1 1-1.5 1-1.7.8-2 .5-1.7.5-2 .3-1.5-.3-1-.7 3.3-1 3.2-1.3 3.2-.8 1.3-1 1.4zm40.7-65.8v.5l1.3.3.5.3.5-.3 1-.5 1.2-1 .8-1 .8-1.3-6.1 3zm-236.2-3v.5l3.5 3 .8.5h.8l.4-.2.8-.8-6.3-3zM123.7 12l.3-.5-1-.5-.2-.3h-.3l-1.5.5-1.3.8-1 .8-1 1.2h.7l.8-.3 1.5-.7 1.5-.8.8-.2h.7zm76.8 15.7l1.5 2 .5.8.3.8.3 1v1l-.3 2.5v1l.8-1.5.5-1.8V32l-.5-1.5-.8-1-.5-.8-1-.5-.8-.5zm-22 .5v-.5l-2-.8-2.3-.5h-3l-1.2.6 8.5 1.2zm-62.2-.5l.3.5 8.2-1.3v-.5h-1.3l-1-.3-2 .3-2 .5-2.2.8zm134.4 91.5l-.3.3 2.8 2.5 1.7 1 .8.5 1 .2-6-4.5zM181 47.8l-5.3 1.5.5.5h2.3l1.5-.8.5-.8.5-.4zm59.7 105.4l-2.2-2.5-.3.3v3.2l2.5-1zm-195.4-34l-.3-.2-5.8 4.2.3.3 1-.3.8-.5 1.2-1 1.3-1.2 1.5-1.3zm204.9-87.7l1.5.3.5-.3.5-.5v-.5l-.3-.3-.5-.8-.5-.3-.5.5-.5.8-.2 1.1zM56 121.7h-.3l-.7 1-.3.5-.3.8.3.3.3.5 1.2.8v-3l-.2-.9zM133.2 61h.8l.8-.3.8-.5.5-.5.5-.5.5-.8v-1l.3-1-.8 1.5-1 1.2-1.3.8-1.1 1.1zm4-50.5v-1l-.3-1-.3-1-.3-.5-.8-.8-.5-.2-.8-.3h-1l1.3 1 1.3.8.7 1.5.7 1.5zm123 186.3l1-1.3.8-1.5.5-1.2V191l-.8 1.5-.5 1.2-.3 1.5-.7 1.6zM161.8 61l-1.5-1-1-.8-1-1.2-.8-1.3.5 2 .3.8.5.5.5.5.8.2 1.7.3zM56.7 53.8l-.5-.3-.5.5-.5.5 1.2 2.8.3-.3v-3.2zm.3 97.5l-.3-.3-1.5 2.2 1.7 1v-2.9h.1zm181.5-94l.5.3 1.5-3.3-1.7-.7-.3 3.7zm22.8-2.3l3 3.7.3-.5-1-1.8-.8-1-.8-.4h-.7zM229 194h-.5l-.5 6.5h.3l.7-6.5zm33.5-135.5l.2-.2-.5-1-.8-1-.5-1-.5-.5-.8-.2-.3.2 3.2 3.7zM124 256.3l-.5.2 2.3 5.2.5-.3-2.3-5.1zm23.5-243.8l-.5 1v1.8l.5 1 .5-1v-.8l-.3-1-.2-1zM243.8 62l.5.3 2.5-3.8-.5-.5-2.5 4zm-15.6 139.3h-.2l-.5 5.8h.3l.4-5.8zM49 57.8l-.5.5 2.5 3.5.5-.3-2.5-3.7zm214.2 120.7v3.7l.5-1.3.3-1-.3-.7-.5-.7zM147.8 53.8v-3.3l-.8.8V53l.8.8zm76.5 151.5h-1.8l-.5.7-.3.8 2.6-1.5zm20.2-149.6l-.5-.3-2.3 3.2.5.3 2.3-3.2zm-4.3 51.8l.3-.3-2.2-3 .3 1 .5 1 1.1 1.3zm-66.2-95l3 1.5.3-.3-.7-.5-.8-.5-.8-.5-1 .3zm-124.5 92l.3.3 3.7-3.7-.3-.3-3.7 3.7zm-19.3-44l.3.2 2.7-2.5-.4-.2-2.6 2.5zM226 203.2h-1l-1 .3-.5.3-.5.8 3-1.4zm35.3-25.2v3l.2-.8.3-.7v-.8l-.5-.7zM43.7 29.8l-1 1.5 2 .2-1-1.7zm201.5 154.9l-.2.5 3 .5v-.5l-2.8-.5zM92.5 245.5l.3-.3-2-2.2-.3.5 2 2zm172.2-65.7h.8l-.5-2.3h-.5l.2 2.3zm-37 27.7h-.5l-.3 3 .3.3.5-3.3z"/><path class="st0" d="M63 200.8l-3-19.3h.5l1 4.7.8 4.8 1.2 9.8H63zm2.5 4.7L62.8 186h.5l.7 5 .7 4.7 1.3 9.8h-.5zm-8-25.7l.8 1.4.7 1.3.8 3.2.4 3.3.5 3-3.2-12.2zm175 6.9l-2.5 18.6v-3.5l.8-6.1.9-5.7.5-2 .3-1.3zm0 10.8l2.3-16h.7l-2.5 16h-.5zm3.7-12.5l-1.2 7v-1.3l.3-2.2.4-2 .5-1.5zm1.8-4.5l-1.5 3.8h-.5l1.7-4.1.3.3zM42.5 109.2l-3.5 3.5-.3-.4 3.8-3.1zm117.2 99.3l9.5 8-4.8-2-2.2-1.3-2-1-1.7-1.5-1.5-1.5-1.5-1.7-1.2-2.3-.5 2.8-.8 2.7-1 2.2-1.8 2.5.3-2.3-.3-1.7-.5-2-.5-1.7-1.8-3.3-.5-1-1-.2-.7.2-.8.7-1.3 3-1 3-.5 2.5v2.8l-1.2-2-1-2-.8-2-.5-2-1.5 2-1.6 1.6-1.8 1.5-2 1-4.3 2-4 2 1.3-1.2 1.5-1.5 3-2.2 3-2.3 1.5-1.5 1.3-1.5-3 1.5-3 1.5-2.7 1.8-2.5 2.2-4.8 4.5-2.2 2.5-2 2.7-.3-.3 1.3-3.2 2-3.5 1.7-3 2.5-3 1.3-1.5 1-1.7-3.2.5-3.2 1-6.4 1.7 2-2 2.5-1.5 5.3-2.8-2.7.5-2.5.5-4 1.3-4 1.2-2.6.8-2.5.3-2.5-.3-2.8-.8-1-.7-1.2-.8 1.2.3 1.3.3 1 .3 1.3-.3 2.2-.8 2-1 2.7-1.5 12.7-4.8 3.5-1.5 3.3-1.5 1-.8.7-.8.8-.7.8-1 .8-2 .5-2 .5-3.7.3-3.5-.3-7.5V169l-.5-5.5-.5-2.5-1-2.3-.8-1.2-.8-.8-1-1-1-.8-1.5-1-1.7-.5-1.8-.5-2-.3h-2l-1.7.4-1.7.5-1.8.7.5 2.3v2.2l-.5 2.3-.8 2.2-.7.8-.5.8-.7.5-1 .3-.8-2-.3-2v-2.3l.8-2.2-1.3.8-1.7 1.7-1.8 2-1.5 2-1.2 2.3v.5l.3.8.7 2.5.3 2.3v2.2l-.5 1.3-.3 1.2-1 1.5-1 1.3-1-.8-.5-.8-1-2-.7-2-.3-2-2.5 2.2-1.2.8-1 .5-1.3.5-1.3.3-.8-.3-.5-.3-.5-.3v-.8l-.3-1-.3-1-1.3 2.3-.5.8-.5.3-.5-.3-.5-.5-.5-.8-.5-1-.5-1.7-.3-2 .3-2 .3-.7v-.5l-.5-1.3-.5-1v-2l.3-1 .3-1 1.3-2-3.5-1.3.5-1.5.8-1 1-.7 1-.8-1.3-2.3-1-2.5-.8-2.5-.3-2.5-1.5.3v-1.5l.3-1.5.5-1.5.5-1.3.8-1.3.8-1.2 1-1.3 1.3-1-1-.8-1-.7-.5-.5-.3-.5v-.8l.3-.8.3-.8.5-.5 1-1 1.3-.5 1.7-.3.3-1.3.3-1.5-.3-2.8-.4-1.9.3-2.2.3-.8.3-.8.5-.8 1-.5.3-.3 3.2-3.3-.8-1.2-.8-1.8-.5-1.5-.3-1.7v-1l.3-.5.8-.3.8.3 1.3.3 1 .2.8.8.8.5 3.7-2 .5-3.2.5-2 .5-.8.8-.7.8-.5.7-.5 2-.8.8-.3.8-.5 2.2-1.5 1-.8h.5l.8.3h.5l5.5-.5-.3-1.8-.3-2 .3-2 .5-2.2 1.8.7 1.3.8 1 1.5.8 1.5 1-2.8 1-2 1.3-1.3 1.5-1.3 2-.8 2.7-.5h4.3l1.5.5 1.5.5 1.2.5 2-3 1-.9 1.5-1.3-.8 2.5-.3 2.5v4.8l3.8-8.5 1 1 1 1 .8 1.2.5 1.3 1 2.5 1 2.8v-5l-.5-2.5-1-2.3h1l.5.5 1.3 1.3 1.8 2.7 1.2-1 1.5-.5 1.5-.5 1.5-.2h1.8l1.5.2 3 .8 1.8.8 1.5 1 1 1.3 1 1.7.8 3.3 1-1.8 1-1.3 1.3-1 1.8-.7.5 2 .3 2-.3 2-.2 2h4l2 .3 2 .5 1.7 1 1.5 1.3.8.3 1 .3 1.2.5 1 .8.8.8.8 1.2.1 1.4.5 2v1.5l3.7 1.5 1.3-.8 1-.5 1.5-.3h1.5v2l-.5 2-.5 2-1 1.7 4.2 3.8.8 1 .5 1v3.3l.8 1 1 1.3.5 1.8v1.5l-.5 1.8 1.3.5 1 .8.8 1 .3.5.3.8v.8l-.3.5-.8 1-1 .7-1.3.8 1.8 1.3 1 1 1 1 .5 1.3.5 1.3.8 2.5v1l-.3.8h-1.5l-.3 2.5-.5 2.5-1 2.2-1.3 2.5 1 .5 1 1 .8 1 .7 1.3-4 1.5 1 1.7.8 1.5.3 1.5-.3 1.2-.5 1.5-.3 1v.8l.3 2v2l-.3 1.7-.5 1-.8.8-.5.8-.5.3-.5-.5-.5-.8-.8-1.5-.8-.8v2.3l-.3 1-.3.5h-1.2l-2.3-.8-2.2-1.3-1.8-1-.3 1.5-.5 1.5-.5.9-1.2 1.3-.5.5-.5.3-.5-.3-.5-.8-.8-1.3-.5-1.5-.5-1.2v-4.2l.5-1.5.5-1.2.3-1.3v-.5l-.5-.5-1.5-2.2-2-2.3-2-2.2-2.2-1.8.3 2.2.3 2.3-.3 2.2-.5 2.3-1.3-.5-.8-.5-.7-.8-.5-1-1-2-.3-1.8v-2l.3-2v-.7l-.3-.5-.3-.3-.8-.3h-7l-1.8.3-1.7.7-1.5.8-1.2 1.3-1.3 1.5-1 1.7-.7 1.8-.8 2-.3 2.3v2l-.3 5.2v10.1l.3 4.8.3 1.8.5 1.5.5 1.5.8 1.3 1 1.2 1 1 1.5 1 1.5.8 4.3 1.5 4 1.5 4.8 1.5 2.2 1 2 1.2 3.2 1.5 3 1.3 3 1.5-1.8.8-2.2.5h-2l-2-.3-4-1-4-1 7.7 7.7-.3.5-1.2-.5-2.5-1.3-2.5-1.5-2.5-1.5-2.7-1.3-2.7-1-3-.7 1.8 1.5 1.5 1.8 1.5 1.7 1.3 2 2 4 1.7 4.3-.3.3-2-2.2-1.8-2.3-2.5-3-2.8-2.5-3-2-3.2-2-3-1.3-.3.3zM102 152.3l-4.8 3.8-2.5 1.5-2.5 1.5.8.2h.5l3.7-1.5 3.5-1.8 4-2.5 4-2.5 1.2-.5 1-.5 2.5-.7v.5l-4.8 2-1.8 1-1.5 1-1.2 1-.8.8-.3 1-.3 1 .8-1.3v.3L102 160h.8l.5-.8 1.5-2 1.7-1.8 2-1.3 2.2-1.2 2.8-1 2.7-.5h3l2.8.5 2 .8 1.8.8 1.7 1 1.8 1.5 1.5 1.5 1 1.7 1 2.3.3 2.2.5 7.5v7.7l-.3 3.2v3.2l-.5 3.3-.8 3.4-.7 1.8-1 1.7-1.3 1.3-1.5 1-3.7 1.5-4 1.5-7.2 2.5-3.5 1.5-3.5 1.5-1 .5.3.3 11.7-4 6.3-1.5 3-.8 3-.3.3.3-6 1.3v.3l6.8.5-3.2 4-1.5 2-1.3 2 3.5-2.3 1.7-1.2 2-1.8 1.5-1.8 1.3-2 2-4 .7-2 .8-2 .3-1.8.3-1.8.3-3.5v-.7l.3 2.5v2.5l-.3 2.3-.8 2.5-3.7 8.8 2.8-2 1.5-1.3 1.3-1.5.8-1.7.3-1 .3-1 .3-2.7V184l-.3-3-.8-4.7-.5-4.5-.3-4.5.3-4.8.3-3.5.3.5v6.8l.5 6 .5 6 .5 6.3.3 3.5-.3 3.7-.2 7.3-.5 4.3-.5 4.5.3 1 .3 1.3.3-.8.3-.5.5-2.2 1-2.3 1.3-2 1.5-1.8.7-.5h1l1 .8 1 1.3 1.5 2.7 1.3 3 .3 1.2.5-.5v-3.9l-.3-3.2-.8-5-.5-4.8.3-4.8.3-5 1-11.5.5-10.8.3-.8.5 4.7-.3 4.8-.3 4.8-.5 4.5-.8 6.8-.3 7v3.2l.3 1.8.5 1.5 1.3 2.2 1.7 1.8 1.8 1.5 2.2 1.2-1.5-2.2-1.3-2.3-1-2.5-1-2.5-.5-2.5-.3-2.5v-2.7l.5-2.5v3.5l.2 3 .8 2.8.8 3 1.3 2.7 1.5 2.5 1.7 2 2.3 2 1.7 1.3 1.8 1 1.3.5-1.3-1.5-1.5-1.5-1.3-1.5-1-1.7 7-1-1.5-.5-1.7-.3-1.5-.2-1.5-.5.7-.3h.5l2.8.5 4.8 1.5 3 .8 3.5.7 4.5 1.5 1 .3v-.3l-2.3-1.3-2.5-1-10.8-3-2.2-.8-1-.5-1-.8-1.2-1.3-1.3-1.5-1-1.7-.5-1.8-.5-3-.5-3-.5-5.5-.3-5.5V169l.7-5.5.5-2.2.8-2 1.3-2 1.5-1.5 2.7-2 1.5-.8 1.7-.8 1.5-.5 1.7-.2h3.6l2.5.2 2.3.8 2.2 1 1 .7.8.8 4.8 4.8.8.5.3-.3-3-4.5.8.3v-.3l-2.3-2-2.2-1.8-2.7-1.3-2.8-1 1.5.3 2.5.5 2.3 1.3 2.2 1.3 2 1.5 2.2 1.3 2.3 1.3 2.2.8 2.5.8h1l1.2-.3 1.3-.3h.8l.8.3 1.7.7 2 .8 1 .8.8 1 .5 1 .3 1.5v.8l.3 1 .5-1.3.3-1V161l-.5-1-.5-1-.7-.7-.8-.5-5.3-2.3-2.3-1-3-1.2-4.5-1.3-3.7-2-3.5-1.7-2-.8-2-.8-2-.3-2 .3-3.2.8-3.2 1-2 .8-2.3 1 2-1.2 1.8-1 2-1 2-.8.5-.3.3-.5 1-2.5 1-2.5 1-1.5 1.3-1.8.5-.5.7-.2h.5l.8.5 1.5 1 1.5 1.5 3.5 4.5 3.5 4.5 1 1.2 1.2 1 1 .8 1.3.8 1.3.5 1.5.5h1.5l1.5-.3 2.5-.5 1-.3 1-.5 1-.8 1-.8.5-1 .8-1.3.3-2.3.3-2.2v-1l-.3-1-.8-.5-.8-.7.3 2v1.8l-.3 1.7-.8 1.5-1 1.3-1 1-1.5.6-1.5.5h-2.7l-1.5-.5-1.2-.7-1.5-.8-2.7-2.8-2.3-3-2.2-3-2-3.3-.3-.7-.5-.3-.5-.3h-4.5l6-1 3.2-.3h6l3.2.3 6.3.5v-.3l-3-1h.3l2.5.2v-.5l-.5-.3-.3-.3-5.3-.5-1.7-.2 4.8-1 .5-.5.3-.8v-1.3l.3-1 .5-.7 1-.8 1-1 .5-1.3V122l-.3-1.2-.3-1-.5-.8-.3 1.3-.3 1.3-.8 2-1 1.8-.5.8-1 .7-1 .5-1 .3-2 .3H195l-2.3-.5-2-.5-2-.7-4-1.8-3.7-2.2-.8-.8-.8-1 2.5-1 2.3-.3 2.5-.5 13.5-4.2 1.5-.5 1.5-.3 1.2.3 1.5.8-.5-1-.8-.5-.7-.5-1-.3h-1.5l-1.8.3-3 1-6 1.8-3 .8-3 .5 1.5-.5 9.5-3 3.8-1.3 2-.3h1l1.3.3-1-1-1-.5-1-.3h-1.2l-4.8.8-3 .5-2.7.8-2.5 1-2.2 1.2-2.5 1.3-2.5 1-3.5 1-3.8 1.1-2.5 1-2.5 1.3-2 1.7-.8 1-.8 1.3-1.7 3.5-2 3.8-1.7 3.4-.8 1 3.2-1 1-.5.3-.5.3-.5.8-2.8 1.2-2.7 1.5-2.7 1-1 1-1.3 1.2-1 1.3-.7 1.3-.5h2.5l1.3.3 1.3.5 1.5.8 3 1.8 3 1.8 3.2 1.5 3.5 1 3.7 1v.3l-1.3.2-3 .5-3.3.3-4 .3-4 .5-4 .5-3.7 1-3 .8-2.7 1.2-1.3.8-1.2.8-1.3 1-1 1.3-1.3 1.7-1 2-1.5 4-1.8 5 1-4.3 1.3-4 1.5-4 1-1.8 1.3-2-2.2 1-1 .5-.8.8-1.5 1.5-1 1.7-.5 1.8-.5 2-.5 4.8-.3 4.2-.5-3.2.3-3.5.8-3.8.5-1.8.7-1.8h-.7l-1.3 1-1 1.3-.8 1.3-.3 1.7-.3 13.2-.5 6V146l.2-4.3.3-4 .5-4.2.5-4.3 1-4.2 1.3-4.3.3-.8v-1l-.8-5.7-.3-.8h-.3l-1.5 14v-.8l-.3-.5 1.5-15.5.5-5.3.3-2.5.3-2.5.3-2v-1.8L153 94l-1-1.8-.3-.8-.3-.7-.4-.7-2 7.2v2.3h.5l1.2-4 .3.3-.5 2.3-.3 1.3-.3 1v1.3l.3 1.3.5 2.5-.8-2-.5-1.8-.5-1-.8-.5-.5-.7-.6-.5-.8-.3-.8-.3-.7.3-.7.3-1.3.8-1 1-.8 1.5-.2 1.5-.3 1h-.3l1-4V99l-1-3.7h.3l1.5 4 .5-.5.3-.5v-.5l-.3-.8-1.5-5.8-.5-2.7L138 94l-.3 1.3v1l.8 5.3 2 17.2.3 5.5-.3.3-1.5-12-1 2.5-.5 2.5-.3.7v.8l.5 1.5 1.3 3.2 1 3.5.8 4.8.7 4.7.5 3.8.3 3.8.3 3.8v3.7l-.3 3v3l.3 2.7.5 3v1.3l-.8-3-.3-3-.3-3v-7.3l-.3-1.3-.5-1.5-1-1.2-.8-1 .5 6-.8-3.2-.5-1.7-.8-1.3-1-1.5-1-1-1.3-1-1.2-.9 4.5 13.2-.5.3-.5-1.5-2-5-2-5.3-.5-.7-.5-.8-1.5-1.2-2.3-1.3-2.5-1-2.5-1-2.5-.8-2.5-.8-2.5-.5-5.3-.5-4.5-.5-4.5-.5-2-.3h-1.8l-9.3 1.5-1.7.5-1 .5-.8.5 4.2-.5h4l-4.5.5-2 .5-2 .8 3.2-.5 3.3-.3 6.7.3 6.5.3 3.5.3 3.2.7-.8-.2h-.7l-.9.3-1 .8-1 1-1.2 1.3-3 3.2-.3-.3 5.5-6-1-.2-.5.2-.7.3-.5.5-1.8 2-6.3 8.3-1 1-1 1-1.3.7-1.3.8-1.2.3-1.4.1-1.5-.3-1.5-.3-2.3-1-1.7-1-.5-.8-.5-.6-.3-1-.3-1-.3-1.7.3-1.8-.8.8-.3.3v.5l.3 2.7.5 2.8.5 1 .5 1 1 .8 1 .5 4 1.3 2 .5 2-.3 2-.5 1.8-1 2.2-2 2.3-2.2 3.2-3.7 3-3.7 1.8-1.8 2-1.3 1-.5 1.3-.3 1.3-.3h1.2l3.3.3 1.7.3 1.5.2 1.8.8 1.5.8 1.3 1 1.5 1 1 1.2 1 1.5 1 1.5.8 1.5 1.7 4 1.5 4.2 1 4.2.5 4.3.5 6.2.3 6.3.3 11.2-.3 3-.5 3-1.3 3-1.5 2.8-.8 1 .3-1 .3-.8 1.3-2.5 1-2.5.5-2.5v-8.7l-.3-6-.3-7.5-.5-7.5-.5-3-.5-1.3-.5-1.5-.8-1-1-1.3-1-1-1.5-.8-2.5-1.5-2.8-1.3-1.5-.8-1.5-.8-1.3-1-1.2-1.2-1.8-3-1.8-3-.5-.8-.5-.5h-.8l-1.3.3 4.8 8-.8.8 3 1.3 3 1.3 2.7 1.7 2.8 1.5-2.8-1-2.7-1.2-2.3-1-2-.5-2.3-.3-2.2.3-1.8.5-1.5.5-3 1.2.3-.5.3-.2 5.8-1.8 1.3-.3 1.2-.2h-.3l-.3-.3H111l-1.7.3-1.8.5-3.2 1-3 1.7-2.7 1.5-2.7 1.3-5.5 2.2-3.5 1.5-3.3 1.5-.8.5-.7.8-.8 1.3-.5 1.8.3 1.7.5 1.3.5-.3v-1.5l.3-1 .2-1 .4-.8.8-.8 3-1.8 1.7-.7 1.8-.5 2.7-.8 2.8-1 2.7-1.3 2.5-1.5 1-.3zM87.7 112h2.8l2.5.5 1.5.3 1.5.7 10 2.8h-1.2l-1.5-.3-9.8-2.7-1.3-.5-1.5-.3h-1.3l-1.5.3 1 1.2 5.8 2 6 1.8 3 .7 3.2.8 3 .5 3.3.3-.3.2-3.5 2.5-3.7 2-4 1.8-4.2 1.5-1.3.3H95l-3.5-.3-1.7-.3-1.5-.5-1.3-.7-.7-.8-.5-.8-.5-.5.3 2 .8 1.5 1.2 1.5 1.8 1-2.5-1-.3.8v.5l.5.5.8.2 2.3.3h1.3l1-.3 5.3-1 5-1.5 1.8-.8 1.5-.8 7.8-4.3 1.5-.8 1.5-.5 1.3-.3h1.5l1.3.3 1.3.5 1 .8 1.2 1 1 1.3 1.3 1.3.8 1.5.7 1.5 2 5.8.3.7.5.5.5.3h.8l-.5-1-.8-2-.8-1.8-.3-2.2.3-2-.3-1-.3-.7-1.5-2-1.7-1.8-1-1-1-.8-2.5-1.3-2.3-.8-2.5-.8-6.3-2.2-3.2-1.3-3-1.2-1.5-.8-1.8-.8-3.2-.8-3.5-.5H90l-1 .3-.8.5-.5 1zm40.5 11.2l-.3.3 1.5 1.5.8.8.8.8 1.5 1 1.5 1.3 1.3 1.3 1.2 1.5 2 3 2 3.2v-.9l-.3-3.8-.8-3.7-.8-3.2-1-3-.8-1.5-.7-1.5-1-1.5-1.3-1.2-1.8-2-1.7-2.2-1.3-2.4-1.3-2.5-1.2-2.5-.8-2.7-1.5-5.3-1-4.8-.5-5v.5l-.3.5-.5 3.5V96l.3 3.5.5 3.2 1.5 5 1 2.5 1 2.5 1.2 2.2 1.5 2.3 1.5 2 1.7 2 1.8 1.7 1.5 2 2.7 4 .8 1.8-.3.3-.8-1.8-1-1.5-1.2-1-1.3-1-3.2-1.3-2.9-1.2zm40.5-32.4l-.5 4-1 3.5-1 3.5-1.3 3.5-1.5 3.3-1.2 2.7-1.5 2.5-1.8 2.5-2 2-1.5 1.8-1.2 2-1 2-.5 2.3-.8 3.2-.8 6.3h.5l.8-2 1.3-1.8 1.2-1.7 1.3-1.8 3.2-2.7 3.3-2.8-3 1-1.5.8-1.5.8-1 1-1 1.2-2.2 3 .8-1.5.5-1 1.7-2.2 1.8-2.3 2.7-3 2.5-3 2.2-3.3.8-2 .8-1.8 1.5-5 1.5-5 .5-2.5v-2.5l-.3-2.5-.8-2.5zM125 116.3l-1.3-1-5.3-2-5.2-2-2.5-1-2.5-1-2.2-1.3-2.2-1.8-1.8-1.8-.8-1-.5-1-.5-1.3-.3-1V99l.3-1.5 1-2.5-.8.3-.5.5-.5 1L99 98l-.5 1 .8-3-.8 1-.5.7-.3 1-.3 1v2l.3 1.8.5 1.7.8 1.8 1 1.5 1.2 1.2 1.5 1.3 1.5 1 2.7 1.3 2.7 1.2 5.8 2.3 3.7 1 3.7 1-1.2-2.5h3.4zm64.3-22.8l.7 1.5.7 1.2.3 1.3.3 1.3-.3 1.5-.7 2.5-1 2-1.8 1.8-2 1.5-2.8 1.5-3 1.3-13 5-1 .5-1 .8 1.8-.3 1.7-.3 1.8-.3h1.8l-1 1.7 1.7-.5 3.8-1 3.7-1.3 3.5-1.5 3.5-1.7 2.3-1.5 1.7-2 1.5-2 .8-2.5.5-2v-1.8l-.3-2-.8-1.8-.5-1-.8-.7-1-.8-1.1-.4zm-35 6.3l1.5.2.5.3.5.5.5 1 .3 2h1.8l.8.3.5.3v1.5l-.8 2-1.2 1.7-1.7 1.4-1.8 1.3-.5.5-.3.3.8 5 .8-.5 3-3.8 2.8-4 1-2 .3-.5V106l-.3-.8-1.3-1.7-1-1.8-.8-2.2-.8-2-.5-2.2V93l.3-3.5V85l.2-1 .3-.8.5-.5.5-.5.8-.2h2.3l.2-1-1.2-.8-1.5-.3-1.5.3h-1.5l-.5.3-.3.3-.3.5v.7l.5 2-.3 2.3-.8 4.3-1 4.2-.8 5zM136 118l1-3.8.3-.5-.3-.5-.3-.3-.5-.5-1.8-1.3-1.5-1.8-1.2-1.7-.5-2.3-.3-1 .3-.2.5-.5h.7l.5-.3.5-.3.5-1.3.8-1 1-.8 1.5-.3-.5-2.7-.7-4.5-.5-2.2-1-2-.5-1.8v-4l.3-2.5-1.8-.3-1.7-.3-1.8.7-1.7.5 1 2.2 1.8-.5h.8l.8.3.3.5.5.5.5 1.8.5 4.3.3 2.7v2.5l-.5 2.7-1 2.5-3.2 5.5-.5 1v.5l.3.5 1.5 2.7 1.8 2.8 2 2.5 1.8 2.5zm41.7-17.5l-.5 1.8-.7 1.5-.8 1.2-1.3 1.3-1 1-1.4.7-1.5.5-1.5.3-.5.2-.3.3-2.5 5.5 6.5-2.7 6.5-2.3-.5-1-.3-1-.3-1.3.3-1 .3-1 .8-1 .8-.8 1-.5-1.3-2.3-1-2-.5-2.3-.3-2.5-2.5.5.8 1.5.3 1.2v.8l-.5.8-1 1-1 .5h-1.3l-1.5-.3-1 3.2 2-1.3 1.7-.8 2-.3h1l1 .6zM114 93.2l-.7 2.8-.5 2.8-1.3 2.2-1.3 2.5.8.5.5.7.5.8v2.6l-.3 1.7 1.3.3 1.5.3h2.8l2.7-.5 2.8-.8-.3-.2-1.5-.3-1.5-.5-1.2-.8-1-.8-1-1-.8-1.2-.5-1.3-.8-1.5v-.8l.3-.5.3-.3h.8l2.3.8 2 .8 1.5.8-.8-3.2-1.3.8h-1.5l-1-.3-1-1-.5-.8-.3-.8.5-1.5.5-1.7-2-.6zm-18 34l2-.3 1.8-.5 3.5-1.5-3.2-1-.3-.3-.5-.5.3-.5.3-.5 2.5-2.8-5.5-2-5.7-2.3-2-.3h-1.3l1.8 2.8 2 3.2 1.3-.5h1l1.3.3 1 1 .5.5.2 1 .3.8v.8l-.5 1.3-.8 1.3zM204.5 115h-1.2l-1.8.3-5 1.5-4.8 1.7-1.7.8-1.3.5 4 3-.3.8-4 1.5 1.8.8 1.7.5 1.5.3h1.3l-.3-1.3V124l.3-1 .7-1.2 1-.8 1.3-.5h1.3l1.2.5.8-1.8.8-1.7 1.3-1.5 1.4-1zM86.8 136v2.3l-.8 2.2-1 2.3-1 2h1.5l1.5.5 1.5.8 1.3 1 .5.2.5.3 1-.5h.8l1 .2.8.5 3.2-3.7 1.5-2 1.5-2-3 1.2-3.2 1.3-1.5.2H91l-1.8-.2-1.8-.5 1.5-2 .3-.5v-.6l-1-3h-1.4zm118.2 6.2l-1.7.5-1.8.3h-1.8l-1.7-.3-1.5-.5-1.5-.8-3-1.7.3 1.2 1 1.3 2.2 2.7 2.5 2.8 1.3 1 1 .5 1.5-1.5 1.8-1.5 1.7-1 2.3-.5-1.3-2-1-2.3-.5-2-.3-2.3-.3-.3-.5-.5-.3.3.5 1-.3 1-.3 1-.5.8 2.2 2.8zM126.3 101h.5l2.7-5.3.5.3-2.7 5-.3 1v.8l.3.8.7 1 1.3-1.5 1-2 1-2.2.7-2.5.5-2.2v-4.3l-.7-1.5-1.8 2.3-1.8 2.2-1.2 2.7-.8 2.8v2.6h.1zm19.2-24.5l-1 2.2-.8 2.3-.8 2.5-.5 2.3-.3 2.2.3 2 .3 2 .5 1.5.5-5.5h.3v6l.5-1 .3-1.3 2.2-7.2.5-2.3v-2l-.3-1-.5-1-.5-1-.7-.7zm14.5 12l-.5 1.8v2l.3 2.5.5 2.2.8 2.5.8 2 1 1.8 1.2 1 .5-.8.3-.8-.3-1-.3-.8-2-4.3h.3l2.5 4.5.5-1-.3-1.7-.3-1.8-.8-1.7-.8-2-1.2-1.8-1-1.5-1.2-1.1zM115 124l-6.7 3.5-6.8 3 2.5.5 2.5.3h5l.5-.3.3-.5 1-1.3.7-1.3.8-.8.5-1v-1l-.3-1.1zm-11.5-20l1.3.5 1.5-.2 1.5-.5.5-.5.5-.8 2-3.2 1.8-3.5.3-1 .3-1.3h-1.3l-1.5.5-1.2.5-.8.8-2.5 5.2 2.8-2.2v.3l-5.2 5.4zm93.5 34.5l-.3.5-6.7-2.8.7 1.3 1.5 1.5 1.8 1 2.2 1 2 .8 2 .5h1.8l.8-.3.8-.3-1.3-1.5-1.5-1.5-1.7-1-1.5-1-1.8-1-1.7-.5h-1.5l-1.5.3 5.9 3zm-42.7-57l.5-.3 1.3-1 1.5-.8 1.7-.3h1.5l1.5.3 1.5.5 1.5 1 1 1.2 1.3 2 1 2.2.8 2.3.6 2.4.3 1.5V94h.5v-8l-.5-1.8-.5-1.5-.5-1.2-1-1-1.5-.8-1.5-.8-2-.5-2.3-.4h-2l-2.2.5-2 1-.5.2-.3.5v.5l.3.8zm38.5 68.2l-6.3-8.2-.5 1-1 .8-1 .5h-1l-1.3-.3-1-.3-.8-.8-.5-1.3-1.5 3 14.9 5.6zm-80.3-8.7l-1.5 2-.8.5-.8.3h-.7l-1-.5-2-1.5-6.2 8h.5l.7-.5 2.8-1.3 2.5-1.3 2.8-.8 3-.8 3-.7-2.3-3.4zm8.8-46.5V92l.5-2.2.5-2.5.7-2 1-2.3 1.5-1.7L127 80l1-.3 1-.5h2.3l3 .5 3 .8.3-.5-.3-.3-1-.5-2-.8-2-.3h-2l-2.3.3-1.2.3-1 .3-1 .5-1 .8-.8.7-.7.8-.5 1.2-.5 1-.8 2.7-.3 2.5.3 2.5.8 2.8zm-32.3 47l1.5.5h1.7l1.8-.3 2-.8 1.8-.7 1.8-1.3 1.2-1 1-1.5L95 139v-.5l6-2.5-2-.2-1.8.2-1.7.5-1.5.8-1.5 1-1.5 1-1 1-1 1.2zm13.2-39.3l1-.8 1-1 1-1.5 1-1.8.5-1.8.5-1.5.3-1.8-.3-1.3-1.5 1-1.5 1-1 1-1 1.3-.8 1.2-.5 1.3v2l2.5-3-.3.8-.3.8-.8 1.3v.6l-.3.8v.8l.5.6zm82.6-2.9l.2-.3-1-2-.5-1-.8-1-.8-.5-1-.5h-2l.3 2 .8 1.8.8 2 1.2 1.5 1.5 1.5 1.5 1.3.8.3.7.2h1l1-.5-3-3-2.8-3 .3-.3 1.8 1.5zm-59.5-3.6l1-1.7.8-1.5.5-2 .3-2v-2l-.3-1.7-.2-1.8-.8-1.5-.8 1-.8 1.3-.8 1.8-.3 2-.3 2v2l.3 1.8.5 1.3 1.5-6.8h.3l-.9 7.8zm-36 63h-.8l-.8.3-.5.5-.5.5-.8 1.3-.3 1.7.3 1 .8 1 1 .5 1.3.3h.8l.5-.3 1.2-.8.5-1.3.3-1.5-.3-1.3-.5-1-1-.8-1.2-.1zm1-31.7l.3-.5.3-.8v-2l-.3-2-.8-2-1-1.8-1.3-1-1.2-1h-.6l-.3.3-.3.5v2l.3 2.3.8 2 .7 2 .5.8.8.5.3-.3-1-4 .8 1.2.5 1.3.5 1.3 1 1.2zm98.5 3l-6.3-2.8-6-3.2v2l.5 1 .5.3.5.3.3.2.3.5.5 1 1 2h2.2l2.8-.3 2.2-.5 1.5-.5zm16.7-14.5l-1.3.8-1.2.7-.8 1.2-.5 1.3-.5 3.2-.2 3.3.3.5.3.5h.3l2-5.5h.3l-1 4.5.8-.8.7-1 .5-1.3.5-1.2.3-1.5.3-1.5V117l-.8-1.5zM151 76.8l.5 7 .3 2.5v2.5l.3 1.5.5 1.2.8 1.5.8 1 .5-2.3v-4.5l-.2-2.2-.5-2-.5-2-1-2.3-1.5-1.9zm15.8 15.9l.5-1.5.3-1.5v-1.5l-.3-1.5-.5-1.5-.5-1.5-.8-1-1.3-1-.5 1.5-.3 1.8.3 2.2.3 2.3.3 2 .8 2 .8 1.5.5.3.5.2-1.5-7.7h.5l.9 4.9zM141 76l-1.5 1.7-1 2-.8 2.2-.5 2v8.5l1.3-1.7.8-2 .5-2 .3-2.2.5-4.3.4-4.2zm61.3 82.5l-1.3.3-1 .5-.5.8-.3 1 .3 1.8.5 1.2.8 1h1l1.5-.3 1.2-.5.5-1 .3-1.2-.3-1.3-.5-1.3-1-.8-1.2-.2zm-12.8-56.3l.3-1v-.5l-.5-1-.5-1-1.5-2.5.3-.2 2.5 3.5v-1.3l-.3-1.3-.5-1.5-.8-1.2-1-1-1-1-1-.5-1-.5v3l.5 1.8.5 1.5.7 1.5 1 1.2 1 1 1.3 1zm5.7 67.3l-.5.2-.8 3-.3-.3V171l.5-1.5v-.8l-.3-.5-.3-.5-.5-.5-.8 1.2-.5 1.3-.3 1.5v1.2l.3 1.5.3 1.3 1 2 .3.5.3.3.5-.3.5-.3.7-1.5.5-1.8.3-1.5V171l-.5-.8-.4-.7zm13.1 4.5l.7-1.5.5-1.7v-2l-.5-2.2-.3-.8-.5-1-.8-.8-1.3-.8.8 4-.5.2-.8-3-.5.8-.3 1v1.2l.3 1.3.5 1.5.8 1.3.8 1.2 1.1 1.3zm-125.1.2l1.3-2 1-2 .5-1.8.3-2-.3-.8-.3-1-.3.3-1 2.7h-.3l.5-4.3-1.3 1-.8 1.5-.7 1.3-.3 1.5-.3 1.8.3 1.5.7 1.3 1 1zm32.3-91.5l-.5 1.8-.3 1.8.3 1.7.3 1.5.5 1.3 1 1.5 1 1.3 1.5 1.3-1.7-3.8-.5-1.7v-2l2.2 5.8h.3l-.5-4.8-.3-1.8-.8-1.6-1-1.3-1.5-1zm-18.3 86.8H97l-.8.8-.3.5v2l.3 1.5.5 1.5 1 1.2.5.8h.3l.5-.3.3-.5.8-1.7.3-1.8v-1.7l-.3-2-.3-1.3-.8-1.5-.5.7-.3.5-.3.5.3.5.3 3h-.3l-1-2.7zm-7.2 2.3l-.3-.3 3.7-3.8-1.3.3-1.2.5-1.3.8-1 1-.8 1-.8 1.2-.3 1.3v1.5l1.3-.3 1.3-.5 1.3-1 1.5-1 1.3-1.5 1-1.3.8-1.3.3-1.5-2.8 2.5-2.7 2.4zm85.8-89.3l-1 .8-.8.7-.8 1-.5 1.3-.5 1.5-.3 1.5v1.5l.3 1.5 2.2-5.8v1l-.3 1-.5 2-1.7 3.7 1.5-1 1-1.3.8-1.2.8-1.5.3-1.8.3-1.5-.3-1.8-.5-1.6zm-80.8 81l-.5-.3 1.5-3.7-1.2.3-.8.2-.5.3-.5.7v.8l-.3 1.5-.5 1-.8 1-1.2.8-.5.5-.3.5.3.5.3.4 4.5-1.5 1.3-.5 1-.8.8-1 .3-1.3-2.9.6zm101.7 3.8l.3 1.5.5 1.3.8 1.3 1 1.2 1.2 1 1.3.8 1.3.5h1.5v-1l-.3-1-.5-1.2-.8-1-.8-1-1.3-.8-1.3-.5-1.2-.5 3.2 3.3h-.3l-4.6-3.9zm-66.4-40.5l-.3 1.5v2l.3 1.7.8 2 .8 1.8 1 1.5 1.3 1 1.5.8-3-6h.3l2.8 4.3h.3l-1-2.7-1.3-2.8-3.5-5.1zm23.5 12.2l.3.3 2-2.3 1.8-2 .8-1.3.7-1.3.3-1.5.3-1.5-1.5.8-1.3 1-1.5 1.2-1 1.5-1 1.5-.8 1.7-.5 1.3-.3 1.3 3-3.5h.3l-1.6 2.8zm-31.5-32.8l-.3-1-.5-1-.5-1-1-.8-.8-.8-1-.5-1-.3-1-.3h-.8l-.3.3v1.1l.8 1.3.8 1.2 1 1.3 1 .8 1.3.8 1 .3 1 .3 1-.3-4-2.8.3-.3 3 1.7zm.7 27.5l-.2-1.5-.5-1.2-.5-1.3-1-1.3-1-1-1-.7-1.2-.8-1.3-.5v2.5l.3 1.3.3 1.3.8.8.8.7.7.5h1.3l-2-3.8 1 1.3 1 1.3 1.3 1.2 1.2 1.2zm50.2-5h.3l-2 3.8h1.8l.8-.5.5-1 .5-1.3.3-1.3.3-1.5v-1.5l-1.3.5-1.3.5-1 1-1 1.3-1 1.3-.8 1.3-.3 1.2v1h.3l.3-.3 3.6-4.5zm-79.4-19l.3-1.5-.3-1.5-.5-1.3-.5-1-.8-1-1.2-.5-1-.5h-1.3v1.8l.5 1.8.5 1.5.5.8.8.7.7.3 1 .5-.8-2.7.5.8.3.8 1.3 1zm-2.5 15v1.5l.2.5.5.3.8.3.8.3.8-.3.6-.3.5-.5.5-.5.3-.8v-2l-.7-1-.8-.8-1.3-.3-1 .3-.8.5-.3.7-.2 1.3v.8h.1zm76.2 7.3l2.2-3.5v-.8l.3-.5-.3-3.2-1.3.8-1.2 1-.8 1.2-.8 1.5-.5 1.5v3.2l.5 1.3.8-.3.3-.3.3-.3v-.6l.3-3.2h.3v2.2h-.1zm11.5-25.8v1.3l.5 1 .5.5.5.3 2.5-1 2.3-1.5.3-.2.3-.5-.3-.3-.8-.5-2.3-1.5-1-.3h-.5l-.8.3-.5.5-.5 1-.2.9zm19.3 53.8l-3-.8 1 2 .3 1-.3 1h-1.7l.5 1.3.7.8.8.8.8.5 2 .8 2 .7.8-1.7-2-1-.5-.5-.5-.5-.3-.8-.3-1-.3-2.6zm-41.8-53v.3l-1.8 1.7-.5.5-.3.8-.3.5.3.5.5.5.5-.3 1-.5 1.3-1.3 1-1.5.7-1.3.8-1.8v-.8h-2.5l-1 .3-.8.5-.8.8-.5.8-.3.8v1l2.7-1.5zM128 120.8l.3-.3 2.8 1.5h.3l-.3-.8-3.3-3-1-.7-1.3-.5h-2.8l.5 1 .8 1.3 1.3 1 1.3 1 1.2 1 1.5.7 1.5.5 1.2.3-4-3zm83.3 8.4l-.3-1-.8-1-1-.5-1.2-.3-1 .3-.8.5-.5.8-.3 1 .3 1 .8 1 1 .5 1 .3 1-.3 1-.5.5-.8.3-1zm-128.6 2.5H84l1-.5.5-.8.3-1.3-.3-1-.5-.8-.8-.5-1-.2-1.2.4-1 .5-.5 1-.3 1 .3 1 .5.8.8.5h.9v-.1zM173 104l.3.5-4.2 3h1.3l1.3-.3 1-.5 1-.8 1-1 .8-1 .8-1.3.5-1.5h-1.3l-1.3.3-1.3.5-1 .5-1 .8-.8 1-.5.7-.3 1 3.7-1.9zm-24.7-21.8l-1.8 6.5v1l.3 1.2.8 2.8.5 1h.3l-.8-6.5h.3l1 5.3.5-3 .5-2.8-.3-1.3-.3-1.5-.3-1.3-.7-1.4zm-38.6 73.3l-.7.5-.8 1-.5 1.3-.3 1.5-.3 1.3.3 1.5.3 1 .5 1 .8-.5.7-1 .8-1 .3-1.5.5-1.3v-1.5l-.3-1.3-.5-1.3-1.7 5.3-.5-.3 1.4-4.7zm50.5-32.8v.3l2.8-1.2 2.7-1.3 2.2-1.5 2.3-2-2.7.3-1.5.3-1.3.5-1.3.5-1.2.8-1 1.3-1 1.3 3-1.8.2.2-3.2 2.3zM131.3 151l.3-.3-2.8-5.8-.5-.2-.8.2-1.2.3-1.3.3h-1l-1.2-.3-1.8-.2v.3l2.5 1.5 2.8 1 2.7 1.5 1 .7 1.3 1zM112 140l-.5-1.3-.5-.5-.3-.5h-.5l-.5.3-1.2.5-.8.5-.8.8-.3.7-.3.8.3.8.8.5 1 .8h.8l.7-.3.8-.5.5-.8.5-.8.3-1zm88.2-15.3v-1.3l-.5-1-.5-.7h-2l-.8.5-.8 1v2.3l.5 1 .8.5h2.1l.7-.5.5-.8v-1zM181.5 155l1.5 4.8-.5.3-2-5-.3 1.3-.3 1.5.3 1.2.3 1.5.5 1.3.7 1.2.5.8.8.3.5-1 .3-1.2v-2.6l-.3-1.2-.5-1-.8-1-.7-1.2zm-72.2-34l-1.5-.5h-4l-1.3.5-1 .5-.8.8-.3.7 1 .5 1 .3 1.3.3 1-.3 1.2-.3 1.3-.5 1-.5.8-.7h-4.2v-.3l4.5-.5zm25.2-14l.3-.5 3 2-.3-.8-.3-.8-.5-.8-.7-.8-1-.5-1-.3h-2l.3 1.3.5 1 .5 1 .8 1 .8 1 .8.8 1 .5 1 .3v-.4l.3-.5-.3-.8-.5-.5-2.7-2.2zM119 143.3l1.3.5 1 .3 2.2.3 2-.3 2-.8-.5-.3-.5-.3-3.3.5-1.2-.2v-.5l3.7-.8-.5-1-.5-.5-.7-.2h-.8l-1.2.3-1.3.7-1 1-.7 1.3zm84-40.8l-1.3.3-1.3.3-1 .5-.8.8-.5.7-.5 1.3-.3 1.3v1.3l1.8-2.5h.3L198 109h2l.5-.5.5-.8 1-2.5 1-2.7zm-20.5 19.3l1 .5 1 .5 1 .5 1.2.3h2.6l1-.3.7-.5-.5-1-1-.5-1-.8-1-.3-1.3-.2H185l-1.3.2-1.5.5 5 1h-4.7v.1zm-67.8 15.4l3.3 5.3 4.3-4-3.5-.8-2-.5h-2.1zm7.1-9.5l.3-1 .3-.8.3-.8.3-.5-.3-.5-.3-.3-1.3-.8-1.5-.5H117l-.8.5-.8.5 6.4 4.2zm18.7 15.3l-1-3.5-1.3-3.3-1-1.5-.8-1.5-1.2-1.3-1.3-1.2.5 1.2.5 1.3 1 1.8.3 1 .2.8.5 2 .8 1.5 1.3 1.5 1.5 1.2zm40-3l.3 1.2.5 1 .7.5 1 .3h1l.8-.5.5-.5.3-.8-.3-1.2-.8-.8-.8-.8-1-.3h-1l-.5.5-.5.5-.2.9zm-98-6l-1 .5-1 .8-.8 1-.8 1.3-.5 1-.5 1.3-.2 1.2v1l1-.5.8-.5 1-.7.8-1 .7-1.4.5-1 .3-1.2v-1l-1.7 2.5h-.3l1.7-3.3zm43.3.5l.5-1.5v-4l-.5-1-.5-1-.8-.7-.8-.5-.5.8-.3.7v1.5l.5 1.8.5 1.5.3-2.5h.3v4l.3.5.5.3.5.1zm87.7 7.2v-1.3l-.3-1.2-.5-1.3-.5-1.3-.8-1-.8-.8-.8-.8-1-.3 1.3 2.5-.3.2-1.5-2.7v1.3l.2 1.2.5 1 .8 1.3.8 1 1 1 1 .8.9.4zm-130 4l.8 1.8 1.3 1.3 1.5 1 .8.3h1l.3-.3-1.8-1.2 3.5 1.7-.5-1.2-.5-.8-1-1-1-.5-1-.5-1-.5h-2.4v-.1zm26.2-41.7l-4.2 2.2 4.5 2.5h.5l.5-.3.3-.5.3-.8-.3-1.3-.5-1.3-1.1-.5zm-13.5-1l-1.2.3-.8.5-.3.7.3 1 .5 1.5.3.8.3.5.5.3.7-.3.8-.3.5-.5.2-.5-.3-.8-.3-1.3-.3-1-.5-.8-.4-.1zm105 47l3.7-1.7.3.3-1.5 1.2 1.7-.5 1.5-1 1.3-1.3.5-.5v-.8l-1-.2-1 .2-1 .3-1.3.5-1 .5-.8 1-1 .8-.4 1.2zm-122 6l2 .5 1.7.3 1.8-.5 1.5-1-2.5-.3v-.5l2.8-.3-1-.5-1-.3-1-.3-1 .3-1 .3-1 .5-.5.8-.8 1zm129.1-12.7v-5.8l-.3-.8-.8-.8-.8-.2h-1.3v2.2l.5 1.8 1 2 1.7 1.6zm-2.8 11.7l.8.8.8.5.8.3h1l1.5-.3 1.8-.5-.5-1-.8-.8-.8-.5-1-.3-1-.3h-1l-1 .5-1.3.5 2.8.5v.2l-2.1.4zM183 93.2v-1.8l-.3-.5-.5-.5h-5.5l-.5.3-.5.5-.3.8 7.6 1.2zm-65.7 1.1l-.5.8-.5.5-.3.8v1l.3.8.5.5.8.3.8.3h1l.5-.5.1-.8.3-.5V97l-.3-.5-.5-.5-2.2-1.7zM195 108h1l.3-.5.3-.5.3-1 .3-.8.3-.8-.5-.4-.5-.5-.5-.3-.8-.3h-.5l-.3.5-.4.6-.5 2v.8l.3.8.5.5h.7v-.1zm-79.3-15.8l-.3-.5-.3-.2-.5-.5h-.5l-2-.2h-3l-.8.5-.3.5.3 1.3v.2l7.4-1.1zm-30.9 44l-.5.5-.5.8-.5 2-.3 2.5.3 1.3.3 1 1-2 1-2 .3-2-.3-2.3-.5 1-.3 1-.5 2H84l.8-3.8zm90.5-39.7V95l-.5-.3-.5-.3-1 .3-1 .7-.8 1-.3 1v.6l.5.5 1 .3 1-.3.8-.5.8-.8v-.7zM162.8 83l-.8-.3h-.5l-.8.3-.5.5-.5 1.3v.5l.3.7.5.5.5.8 1.5 1.5.3-5.3V83zm-67.3 79.8l1-.3.8-.3 1.8-1 .8-.8.5-.5.2-.8.3-1-2.2 2.2-.3-.3 1.8-2.2-1.8.5-.8.5-.8.5-.8 1.7-.5 1.8zm80.5-39.1l-1-.5-1.3-.5h-1.5l-1 .5-.3.5v3l.5-.3 4.6-2.7zm-58.7-12.5l2.2 1.3 1.5.3 1.5-.3 2-.8-.3-1.3-.2-.4h-.8l-1 .5-2 .5-2.9.2zM129 89l1-1 .8-1 .5-1 .3-1.5-.3-.5-.3-.5-.5-.3h-.5l-.8.3h-.2l-.3.5v.5l.3 4.5zm69 46.5l4.2 3.2.5-1 .3-.8v-.8l-.5-.5-1-.8-1.3-.3-1.2.5-1 .5zm-52-43h-.5l-1.5 5.3 3.5.3-1.5-5.6zm-8.3 13l-.3-3.3v-.8l-.3-.5H136l-.5.3-.5.5-.3.5-.3 1 .3.5.3.3 2.7 1.5zM84 148.8l-1-2-.5-2.2-.5-2.3V140l-.8 1.2-.3 1.5v1.3l.3 1.2.3 1.3.8 1 .7.8 1 .5zm7.3-13.8l-1 .8-.5.2-.3.5v1l.5 1 2-.8.3-.3.3-.8.3-.2v-.4l-.3-.2-.3-.3-1-.5zM136 89.5v-2.3l.3-2V84l-.3-.8-.5-.8-.5-.7-.3 2 .3 2 .3 1.7.7 2.1zm68 76.5l-.8.5-.8.8-.3.7v.8l2.5 3h.3l-.9-5.8zm-87.5-34l-1.3-3.5-1 .3-.7.8-.3.8-.3 1.2 3.6.4zm-30.2 39.8h.3l2-2.5.5-.8v-.5l-.3-.7-.5-.5-.5-.3-.5-.3-1 5.6zm67.7-66.6l1-.8.8-.5.5-.8.3-.8-.5-.8-.5-.8h-.9l-.3.3-.2.5-.2 3.7zm1.7-16.7l.5-1.8.3-1.7-.3-1.8-.3-1.7-.5 1-.3.8-.1 1.7.3 1.7.4 1.8zm19.6 43.5l2.7-.5.3-.2v-1.1l-.3-.8-.8-.8-.7-.5-1.2 3.9zm16.9 26.3l.3.5.5.5.3.5-.3.8v.5l.8.5 1 .5 1 .3-.5-1.8-.7-1.3-1-.8-.8-.2h-.6zm-93.7-50l-3.5 1v.3l4.8.8-1.3-2.1zm24.3 5.4l3.7 2-.8-1.8-.8-.7h-.8l-1.3.5zm4.7 18.5l-.2-.2-.5 2.8 1.5.8-.8-3.4zm-35.8 17.3h.5l.8-1.2-1.5-.3.2 1.5z"/><path class="st0" d="M179 136l-2 4-1 1.7-1.3 1.5-1.3 1.5-1.4 1.3-1.8 1.3-1.8.8-3 1.5-1.8.8-1.2.8-1.3 1.3-1 1-1 1.5-.5 1.3-.5 1.8-.3 1.7-.8 14v14.4l.3 3.2 1 3 1.2 2.8.3.5-.5.3-1-2-1-2.2-.8-3-.3-3-.3-3.2.3-3 .3-10.2.3-5 .5-5 .8-5 .5-2.5.7-2.5 1-2.5 1-2.3 1.3-2.2 1.5-2.3 1-1.3 1-1 1-1 1.2-.8 1.3-.5 1.5-.5 3-.8h2.3l2.6-.2zm-6 7.3l-.5-1.3-1-.8-1-.5-1-.5-1-.3h-1l-.8.7-.8 1 3.5 1h-2.6l-.8-.2-.5.2-.5.4-.5.8 2.3.8h2.2l2-.5 2-.8zm4.5-6.3l-4 .5-1.7.3-1.8 1 4.2 3.8 3.3-5.6zM161 150h.3l5-2.2 2.7-1.3 1.3-.5 1.3-.8-2 .3-2 .2-1.8-.2-2-.7-2.8 5.2zm-13-27.3l-1.3 2.3-.8 2.2-.3 2.3.3 2.5h-.5v-5.5l-.5-1-1-1.5v12.7h-.3l-.5-5.3-1.3-21.8.3-3 .3-3 .5-1.3.5-.8 1-1 1-.2 1 .2 1 1 1 1.3.5 1.7.3 1.5v9.8l-.5 8-.5 6.8-.8 7 .6-14.9zm-2.3 1.5h.5l.8-1.8.5-1.5.5-1.8-.3-2-1.3-7-.8-2.2-1 2.2-1 2.5-.3 2.2-.3 2.5.3 2 .5 2 .5 1.7.8 1.3v-9.8h.5v9.7h.1zm2.1-12.7h.3v-4.3l-.3-2.3-.3-2-.3-.3-.5-.5-1-.5h-.5l-.5.3-.5.2-.3.5-.5 1.3-.3 1.5-.3 5.3h.3l1.3-2.2.8-1.3 1-1.3 1.6 5.6zM137 165l-.5-7v-3.5l-.2-3.2-.5-3.3-.8-3.3.5-.2.5 2.8.5 2.4.5 6.1.2 5.7v3.5h-.2zm18.2-1.3v-10l.3-2.4.2-2.6.8-2.5 1-2.4-.7 2.4-.6 2.5-.2 2.6-.3 2.4v5l-.2 2.6-.3 2.4zM207 130l-.7-3.5h.5l.5 3.3-.3.2z"/></svg>